<svg width="464" height="670" viewBox="0 0 464 670" fill="none" xmlns="http://www.w3.org/2000/svg">
<g clip-path="url(#clip0_52_395)">
<path d="M411.667 122.951L444.728 141.074L477.788 122.951V86.7486L444.728 68.6255L411.667 86.7486V122.951Z" stroke="#00A7B8"/>
<path d="M445.158 141.021V104.85" stroke="#00A7B8"/>
<path d="M444.799 105.034L477.661 86.9484" stroke="#00A7B8"/>
<path d="M445.277 105.034L412.415 86.9484" stroke="#00A7B8"/>
<path d="M369.839 178.632L402.9 196.755L435.96 178.632V142.43L402.9 124.307L369.839 142.43V178.632Z" stroke="#00A7B8"/>
<path d="M403.33 196.702V160.531" stroke="#00A7B8"/>
<path d="M402.971 160.716L435.833 142.63" stroke="#00A7B8"/>
<path d="M403.449 160.716L370.587 142.63" stroke="#00A7B8"/>
<path d="M441.193 184.819L474.253 202.942L507.314 184.819V148.617L474.253 130.494L441.193 148.617V184.819Z" stroke="#00A7B8"/>
<path d="M474.802 166.903L441.94 148.817" stroke="#00A7B8"/>
<path d="M296.026 177.395L329.086 195.518L362.147 177.395V141.192L329.086 123.069L296.026 141.192V177.395Z" stroke="#00A7B8"/>
<path d="M329.516 195.465V159.294" stroke="#00A7B8"/>
<path d="M329.157 159.478L362.019 141.392" stroke="#00A7B8"/>
<path d="M329.635 159.478L296.773 141.392" stroke="#00A7B8"/>
<path d="M254.198 233.076L287.258 251.199L320.319 233.076V196.874L287.258 178.751L254.198 196.874V233.076Z" stroke="#00A7B8"/>
<path d="M287.688 251.146V214.975" stroke="#00A7B8"/>
<path d="M287.329 215.16L320.191 197.074" stroke="#00A7B8"/>
<path d="M287.807 215.16L254.945 197.074" stroke="#00A7B8"/>
<path d="M325.551 239.263L358.612 257.386L391.672 239.263V203.061L358.612 184.938L325.551 203.061V239.263Z" stroke="#00A7B8"/>
<path d="M359.042 257.333V221.162" stroke="#00A7B8"/>
<path d="M358.683 221.347L391.545 203.261" stroke="#00A7B8"/>
<path d="M359.161 221.347L326.299 203.261" stroke="#00A7B8"/>
<path d="M182.845 228.127L215.905 246.25L248.965 228.127V191.925L215.905 173.802L182.845 191.925V228.127Z" stroke="#00A7B8"/>
<path d="M216.335 246.197V210.026" stroke="#00A7B8"/>
<path d="M215.976 210.21L248.838 192.124" stroke="#00A7B8"/>
<path d="M216.454 210.21L183.592 192.124" stroke="#00A7B8"/>
<path d="M141.017 283.808L174.077 301.931L207.138 283.808V247.606L174.077 229.483L141.017 247.606V283.808Z" stroke="#00A7B8"/>
<path d="M174.507 301.878V265.707" stroke="#00A7B8"/>
<path d="M174.148 265.892L207.01 247.806" stroke="#00A7B8"/>
<path d="M174.626 265.892L141.764 247.806" stroke="#00A7B8"/>
<path d="M212.37 289.995L245.431 308.118L278.491 289.995V253.793L245.431 235.67L212.37 253.793V289.995Z" stroke="#00A7B8"/>
<path d="M245.861 308.065V271.894" stroke="#00A7B8"/>
<path d="M245.502 272.079L278.364 253.993" stroke="#00A7B8"/>
<path d="M245.98 272.079L213.118 253.993" stroke="#00A7B8"/>
<path d="M305.868 54.8953L338.928 73.0184L371.988 54.8953V18.6932L338.928 0.570068L305.868 18.6932V54.8953Z" stroke="#00A7B8"/>
<path d="M339.358 72.9651V36.7944" stroke="#00A7B8"/>
<path d="M338.999 36.9788L371.861 18.8934" stroke="#00A7B8"/>
<path d="M339.477 36.9788L306.615 18.8934" stroke="#00A7B8"/>
<path d="M264.04 110.577L297.1 128.7L330.161 110.577V74.3748L297.1 56.2517L264.04 74.3748V110.577Z" stroke="#00A7B8"/>
<path d="M297.53 128.646V92.4758" stroke="#00A7B8"/>
<path d="M297.171 92.6602L330.033 74.5748" stroke="#00A7B8"/>
<path d="M297.649 92.6602L264.787 74.5748" stroke="#00A7B8"/>
<path d="M335.393 116.764L368.453 134.887L401.514 116.764V80.5616L368.453 62.4385L335.393 80.5616V116.764Z" stroke="#00A7B8"/>
<path d="M368.883 134.833V98.6628" stroke="#00A7B8"/>
<path d="M368.524 98.8472L401.386 80.7618" stroke="#00A7B8"/>
<path d="M369.002 98.8472L336.14 80.7618" stroke="#00A7B8"/>
<path d="M192.687 105.628L225.747 123.751L258.807 105.628V69.4254L225.747 51.3023L192.687 69.4254V105.628Z" stroke="#00A7B8"/>
<path d="M226.177 123.697V87.5263" stroke="#00A7B8"/>
<path d="M225.818 87.7107L258.68 69.6253" stroke="#00A7B8"/>
<path d="M226.296 87.7107L193.434 69.6253" stroke="#00A7B8"/>
<path d="M150.859 161.309L183.919 179.432L216.98 161.309V125.107L183.919 106.984L150.859 125.107V161.309Z" stroke="#00A7B8"/>
<path d="M184.349 179.379V143.208" stroke="#00A7B8"/>
<path d="M183.99 143.393L216.852 125.307" stroke="#00A7B8"/>
<path d="M184.468 143.393L151.606 125.307" stroke="#00A7B8"/>
<path d="M222.212 167.496L255.272 185.619L288.333 167.496V131.294L255.272 113.17L222.212 131.294V167.496Z" stroke="#00A7B8"/>
<path d="M255.702 185.566V149.395" stroke="#00A7B8"/>
<path d="M255.344 149.579L288.206 131.493" stroke="#00A7B8"/>
<path d="M255.822 149.579L222.96 131.493" stroke="#00A7B8"/>
<path d="M283.723 296.182L316.784 314.305L349.844 296.182V259.98L316.784 241.857L283.723 259.98V296.182Z" stroke="#00A7B8"/>
<path d="M317.214 314.252V278.081" stroke="#00A7B8"/>
<path d="M316.855 278.266L349.717 260.18" stroke="#00A7B8"/>
<path d="M317.333 278.266L284.471 260.18" stroke="#00A7B8"/>
<path d="M241.896 351.864L274.956 369.987L308.016 351.864V315.661L274.956 297.538L241.896 315.661V351.864Z" stroke="#00A7B8"/>
<path d="M275.386 369.934V333.763" stroke="#00A7B8"/>
<path d="M275.027 333.947L307.889 315.861" stroke="#00A7B8"/>
<path d="M275.505 333.947L242.643 315.861" stroke="#00A7B8"/>
<path d="M313.249 358.05L346.309 376.173L379.37 358.05V321.848L346.309 303.725L313.249 321.848V358.05Z" stroke="#00A7B8"/>
<path d="M346.739 376.12V339.949" stroke="#00A7B8"/>
<path d="M346.38 340.134L379.242 322.048" stroke="#00A7B8"/>
<path d="M346.858 340.134L313.996 322.048" stroke="#00A7B8"/>
<path d="M399.365 245.45L432.425 263.573L465.486 245.45V209.248L432.425 191.125L399.365 209.248V245.45Z" stroke="#00A7B8"/>
<path d="M432.855 263.52V227.349" stroke="#00A7B8"/>
<path d="M432.496 227.533L465.358 209.447" stroke="#00A7B8"/>
<path d="M432.974 227.533L400.112 209.447" stroke="#00A7B8"/>
<path d="M357.537 301.132L390.598 319.255L423.658 301.132V264.93L390.598 246.806L357.537 264.93V301.132Z" stroke="#00A7B8"/>
<path d="M391.028 319.201V283.03" stroke="#00A7B8"/>
<path d="M390.669 283.215L423.531 265.129" stroke="#00A7B8"/>
<path d="M391.147 283.215L358.285 265.129" stroke="#00A7B8"/>
<path d="M428.89 307.318L461.951 325.441L495.011 307.318V271.116L461.951 252.993L428.89 271.116V307.318Z" stroke="#00A7B8"/>
<path d="M462.381 325.388V289.217" stroke="#00A7B8"/>
<path d="M462.022 289.402L494.884 271.316" stroke="#00A7B8"/>
<path d="M462.5 289.402L429.638 271.316" stroke="#00A7B8"/>
<path d="M411.667 122.951L444.728 141.074L477.788 122.951V86.7486L444.728 68.6255L411.667 86.7486V122.951Z" stroke="#00A7B8"/>
<path d="M445.158 141.021V104.85" stroke="#00A7B8"/>
<path d="M444.799 105.034L477.661 86.9484" stroke="#00A7B8"/>
<path d="M445.277 105.034L412.415 86.9484" stroke="#00A7B8"/>
<path d="M369.839 178.632L402.9 196.755L435.96 178.632V142.43L402.9 124.307L369.839 142.43V178.632Z" stroke="#00A7B8"/>
<path d="M403.33 196.702V160.531" stroke="#00A7B8"/>
<path d="M402.971 160.716L435.833 142.63" stroke="#00A7B8"/>
<path d="M403.449 160.716L370.587 142.63" stroke="#00A7B8"/>
<path d="M441.193 184.819L474.253 202.942L507.314 184.819V148.617L474.253 130.494L441.193 148.617V184.819Z" stroke="#00A7B8"/>
<path d="M474.802 166.903L441.94 148.817" stroke="#00A7B8"/>
<path d="M296.026 177.395L329.086 195.518L362.147 177.395V141.192L329.086 123.069L296.026 141.192V177.395Z" stroke="#00A7B8"/>
<path d="M329.516 195.465V159.294" stroke="#00A7B8"/>
<path d="M329.157 159.478L362.019 141.392" stroke="#00A7B8"/>
<path d="M329.635 159.478L296.773 141.392" stroke="#00A7B8"/>
<path d="M254.198 233.076L287.258 251.199L320.319 233.076V196.874L287.258 178.751L254.198 196.874V233.076Z" stroke="#00A7B8"/>
<path d="M287.688 251.146V214.975" stroke="#00A7B8"/>
<path d="M287.329 215.16L320.191 197.074" stroke="#00A7B8"/>
<path d="M287.807 215.16L254.945 197.074" stroke="#00A7B8"/>
<path d="M325.551 239.263L358.612 257.386L391.672 239.263V203.061L358.612 184.938L325.551 203.061V239.263Z" stroke="#00A7B8"/>
<path d="M359.042 257.333V221.162" stroke="#00A7B8"/>
<path d="M358.683 221.347L391.545 203.261" stroke="#00A7B8"/>
<path d="M359.161 221.347L326.299 203.261" stroke="#00A7B8"/>
<path d="M182.845 228.127L215.905 246.25L248.965 228.127V191.925L215.905 173.802L182.845 191.925V228.127Z" stroke="#00A7B8"/>
<path d="M216.335 246.197V210.026" stroke="#00A7B8"/>
<path d="M215.976 210.21L248.838 192.124" stroke="#00A7B8"/>
<path d="M216.454 210.21L183.592 192.124" stroke="#00A7B8"/>
<path d="M141.017 283.808L174.077 301.931L207.138 283.808V247.606L174.077 229.483L141.017 247.606V283.808Z" stroke="#00A7B8"/>
<path d="M174.507 301.878V265.707" stroke="#00A7B8"/>
<path d="M174.148 265.892L207.01 247.806" stroke="#00A7B8"/>
<path d="M174.626 265.892L141.764 247.806" stroke="#00A7B8"/>
<path d="M212.37 289.995L245.431 308.118L278.491 289.995V253.793L245.431 235.67L212.37 253.793V289.995Z" stroke="#00A7B8"/>
<path d="M245.861 308.065V271.894" stroke="#00A7B8"/>
<path d="M245.502 272.079L278.364 253.993" stroke="#00A7B8"/>
<path d="M245.98 272.079L213.118 253.993" stroke="#00A7B8"/>
<path d="M305.868 54.8953L338.928 73.0184L371.988 54.8953V18.6932L338.928 0.570068L305.868 18.6932V54.8953Z" stroke="#00A7B8"/>
<path d="M339.358 72.9651V36.7944" stroke="#00A7B8"/>
<path d="M338.999 36.9788L371.861 18.8934" stroke="#00A7B8"/>
<path d="M339.477 36.9788L306.615 18.8934" stroke="#00A7B8"/>
<path d="M264.04 110.577L297.1 128.7L330.161 110.577V74.3748L297.1 56.2517L264.04 74.3748V110.577Z" stroke="#00A7B8"/>
<path d="M297.53 128.646V92.4758" stroke="#00A7B8"/>
<path d="M297.171 92.6602L330.033 74.5748" stroke="#00A7B8"/>
<path d="M297.649 92.6602L264.787 74.5748" stroke="#00A7B8"/>
<path d="M335.393 116.764L368.453 134.887L401.514 116.764V80.5616L368.453 62.4385L335.393 80.5616V116.764Z" stroke="#00A7B8"/>
<path d="M368.883 134.833V98.6628" stroke="#00A7B8"/>
<path d="M368.524 98.8472L401.386 80.7618" stroke="#00A7B8"/>
<path d="M369.002 98.8472L336.14 80.7618" stroke="#00A7B8"/>
<path d="M192.687 105.628L225.747 123.751L258.807 105.628V69.4254L225.747 51.3023L192.687 69.4254V105.628Z" stroke="#00A7B8"/>
<path d="M226.177 123.697V87.5263" stroke="#00A7B8"/>
<path d="M225.818 87.7107L258.68 69.6253" stroke="#00A7B8"/>
<path d="M226.296 87.7107L193.434 69.6253" stroke="#00A7B8"/>
<path d="M150.859 161.309L183.919 179.432L216.98 161.309V125.107L183.919 106.984L150.859 125.107V161.309Z" stroke="#00A7B8"/>
<path d="M184.349 179.379V143.208" stroke="#00A7B8"/>
<path d="M183.99 143.393L216.852 125.307" stroke="#00A7B8"/>
<path d="M184.468 143.393L151.606 125.307" stroke="#00A7B8"/>
<path d="M222.212 167.496L255.272 185.619L288.333 167.496V131.294L255.272 113.17L222.212 131.294V167.496Z" stroke="#00A7B8"/>
<path d="M255.702 185.566V149.395" stroke="#00A7B8"/>
<path d="M255.344 149.579L288.206 131.493" stroke="#00A7B8"/>
<path d="M255.822 149.579L222.96 131.493" stroke="#00A7B8"/>
<path d="M283.723 296.182L316.784 314.305L349.844 296.182V259.98L316.784 241.857L283.723 259.98V296.182Z" stroke="#00A7B8"/>
<path d="M317.214 314.252V278.081" stroke="#00A7B8"/>
<path d="M316.855 278.266L349.717 260.18" stroke="#00A7B8"/>
<path d="M317.333 278.266L284.471 260.18" stroke="#00A7B8"/>
<path d="M241.896 351.864L274.956 369.987L308.016 351.864V315.661L274.956 297.538L241.896 315.661V351.864Z" stroke="#00A7B8"/>
<path d="M275.386 369.934V333.763" stroke="#00A7B8"/>
<path d="M275.027 333.947L307.889 315.861" stroke="#00A7B8"/>
<path d="M275.505 333.947L242.643 315.861" stroke="#00A7B8"/>
<path d="M313.249 358.05L346.309 376.173L379.37 358.05V321.848L346.309 303.725L313.249 321.848V358.05Z" stroke="#00A7B8"/>
<path d="M346.739 376.12V339.949" stroke="#00A7B8"/>
<path d="M346.38 340.134L379.242 322.048" stroke="#00A7B8"/>
<path d="M346.858 340.134L313.996 322.048" stroke="#00A7B8"/>
<path d="M399.365 245.45L432.425 263.573L465.486 245.45V209.248L432.425 191.125L399.365 209.248V245.45Z" stroke="#00A7B8"/>
<path d="M432.855 263.52V227.349" stroke="#00A7B8"/>
<path d="M432.496 227.533L465.358 209.447" stroke="#00A7B8"/>
<path d="M432.974 227.533L400.112 209.447" stroke="#00A7B8"/>
<path d="M357.537 301.132L390.598 319.255L423.658 301.132V264.93L390.598 246.806L357.537 264.93V301.132Z" stroke="#00A7B8"/>
<path d="M391.028 319.201V283.03" stroke="#00A7B8"/>
<path d="M390.669 283.215L423.531 265.129" stroke="#00A7B8"/>
<path d="M391.147 283.215L358.285 265.129" stroke="#00A7B8"/>
<path d="M428.89 307.318L461.951 325.441L495.011 307.318V271.116L461.951 252.993L428.89 271.116V307.318Z" stroke="#00A7B8"/>
<path d="M462.381 325.388V289.217" stroke="#00A7B8"/>
<path d="M462.022 289.402L494.884 271.316" stroke="#00A7B8"/>
<path d="M462.5 289.402L429.638 271.316" stroke="#00A7B8"/>
<path d="M377.221 484.262L410.281 502.385L443.342 484.262V448.06L410.281 429.937L377.221 448.06V484.262Z" stroke="#00A7B8"/>
<path d="M410.711 502.332V466.161" stroke="#00A7B8"/>
<path d="M410.352 466.345L443.214 448.259" stroke="#00A7B8"/>
<path d="M410.83 466.345L377.968 448.259" stroke="#00A7B8"/>
<path d="M335.393 539.943L368.453 558.067L401.514 539.943V503.741L368.453 485.618L335.393 503.741V539.943Z" stroke="#00A7B8"/>
<path d="M368.883 558.013V521.843" stroke="#00A7B8"/>
<path d="M368.524 522.027L401.386 503.941" stroke="#00A7B8"/>
<path d="M369.002 522.027L336.14 503.941" stroke="#00A7B8"/>
<path d="M406.746 546.13L439.807 564.253L472.867 546.13V509.928L439.807 491.805L406.746 509.928V546.13Z" stroke="#00A7B8"/>
<path d="M440.237 564.2V528.029" stroke="#00A7B8"/>
<path d="M439.878 528.214L472.74 510.128" stroke="#00A7B8"/>
<path d="M440.356 528.214L407.494 510.128" stroke="#00A7B8"/>
<path d="M389.523 365.475L422.583 383.598L455.644 365.475V329.273L422.583 311.149L389.523 329.273V365.475Z" stroke="#00A7B8"/>
<path d="M423.013 383.544V347.374" stroke="#00A7B8"/>
<path d="M422.655 347.558L455.517 329.472" stroke="#00A7B8"/>
<path d="M423.133 347.558L390.271 329.472" stroke="#00A7B8"/>
<path d="M347.695 421.156L380.756 439.279L413.816 421.156V384.954L380.756 366.831L347.695 384.954V421.156Z" stroke="#00A7B8"/>
<path d="M381.186 439.226V403.055" stroke="#00A7B8"/>
<path d="M380.827 403.24L413.689 385.154" stroke="#00A7B8"/>
<path d="M381.305 403.24L348.443 385.154" stroke="#00A7B8"/>
<path d="M419.049 427.343L452.109 445.466L485.169 427.343V391.141L452.109 373.018L419.049 391.141V427.343Z" stroke="#00A7B8"/>
<path d="M452.539 445.413V409.242" stroke="#00A7B8"/>
<path d="M452.18 409.427L485.042 391.341" stroke="#00A7B8"/>
<path d="M452.658 409.427L419.796 391.341" stroke="#00A7B8"/>
<path d="M276.342 416.207L309.402 434.33L342.463 416.207V380.004L309.402 361.881L276.342 380.004V416.207Z" stroke="#00A7B8"/>
<path d="M309.833 434.276V398.106" stroke="#00A7B8"/>
<path d="M309.474 398.29L342.336 380.204" stroke="#00A7B8"/>
<path d="M309.952 398.29L277.09 380.204" stroke="#00A7B8"/>
<path d="M234.514 471.888L267.575 490.011L300.635 471.888V435.686L267.575 417.563L234.514 435.686V471.888Z" stroke="#00A7B8"/>
<path d="M268.005 489.958V453.787" stroke="#00A7B8"/>
<path d="M267.646 453.972L300.508 435.886" stroke="#00A7B8"/>
<path d="M268.124 453.972L235.262 435.886" stroke="#00A7B8"/>
<path d="M305.868 478.075L338.928 496.198L371.988 478.075V441.873L338.928 423.75L305.868 441.873V478.075Z" stroke="#00A7B8"/>
<path d="M339.358 496.145V459.974" stroke="#00A7B8"/>
<path d="M338.999 460.159L371.861 442.073" stroke="#00A7B8"/>
<path d="M339.477 460.159L306.615 442.073" stroke="#00A7B8"/>
<path d="M160.701 470.651L193.761 488.774L226.821 470.651V434.449L193.761 416.326L160.701 434.449V470.651Z" stroke="#00A7B8"/>
<path d="M194.191 488.721V452.55" stroke="#00A7B8"/>
<path d="M193.832 452.735L226.694 434.649" stroke="#00A7B8"/>
<path d="M194.31 452.735L161.448 434.649" stroke="#00A7B8"/>
<path d="M118.873 526.332L151.933 544.455L184.994 526.332V490.13L151.933 472.007L118.873 490.13V526.332Z" stroke="#00A7B8"/>
<path d="M152.363 544.402V508.232" stroke="#00A7B8"/>
<path d="M152.004 508.416L184.866 490.33" stroke="#00A7B8"/>
<path d="M152.482 508.416L119.62 490.33" stroke="#00A7B8"/>
<path d="M190.226 532.519L223.286 550.642L256.347 532.519V496.317L223.286 478.194L190.226 496.317V532.519Z" stroke="#00A7B8"/>
<path d="M223.716 550.589V514.418" stroke="#00A7B8"/>
<path d="M223.358 514.603L256.22 496.517" stroke="#00A7B8"/>
<path d="M223.836 514.603L190.974 496.517" stroke="#00A7B8"/>
<path d="M47.5196 521.383L80.58 539.506L113.64 521.383V485.181L80.58 467.058L47.5196 485.181V521.383Z" stroke="#00A7B8"/>
<path d="M81.0099 539.453V503.282" stroke="#00A7B8"/>
<path d="M80.6512 503.467L113.513 485.381" stroke="#00A7B8"/>
<path d="M81.129 503.467L48.2671 485.381" stroke="#00A7B8"/>
<path d="M5.69183 577.065L38.7522 595.188L71.8126 577.065V540.863L38.7522 522.74L5.69183 540.863V577.065Z" stroke="#00A7B8"/>
<path d="M39.1822 595.135V558.964" stroke="#00A7B8"/>
<path d="M38.8234 559.148L71.6853 541.062" stroke="#00A7B8"/>
<path d="M39.3013 559.148L6.43938 541.062" stroke="#00A7B8"/>
<path d="M77.0451 583.252L110.105 601.375L143.166 583.252V547.05L110.105 528.926L77.0451 547.05V583.252Z" stroke="#00A7B8"/>
<path d="M110.535 601.321V565.151" stroke="#00A7B8"/>
<path d="M110.177 565.335L143.039 547.249" stroke="#00A7B8"/>
<path d="M110.655 565.335L77.793 547.249" stroke="#00A7B8"/>
<path d="M170.542 348.151L203.603 366.275L236.663 348.151V311.949L203.603 293.826L170.542 311.949V348.151Z" stroke="#00A7B8"/>
<path d="M204.033 366.221V330.05" stroke="#00A7B8"/>
<path d="M203.674 330.235L236.536 312.149" stroke="#00A7B8"/>
<path d="M204.152 330.235L171.29 312.149" stroke="#00A7B8"/>
<path d="M128.715 403.833L161.775 421.956L194.835 403.833V367.631L161.775 349.508L128.715 367.631V403.833Z" stroke="#00A7B8"/>
<path d="M162.205 421.903V385.732" stroke="#00A7B8"/>
<path d="M161.846 385.917L194.708 367.831" stroke="#00A7B8"/>
<path d="M162.324 385.917L129.462 367.831" stroke="#00A7B8"/>
<path d="M200.068 410.02L233.128 428.143L266.189 410.02V373.818L233.128 355.695L200.068 373.818V410.02Z" stroke="#00A7B8"/>
<path d="M233.558 428.09V391.919" stroke="#00A7B8"/>
<path d="M233.199 392.103L266.061 374.017" stroke="#00A7B8"/>
<path d="M233.677 392.103L200.815 374.017" stroke="#00A7B8"/>
<path d="M57.3614 398.884L90.4218 417.007L123.482 398.884V362.681L90.4218 344.558L57.3614 362.681V398.884Z" stroke="#00A7B8"/>
<path d="M90.8518 416.953V380.783" stroke="#00A7B8"/>
<path d="M90.493 380.967L123.355 362.881" stroke="#00A7B8"/>
<path d="M90.9708 380.967L58.1089 362.881" stroke="#00A7B8"/>
<path d="M15.5337 454.565L48.5941 472.688L81.6544 454.565V418.363L48.5941 400.24L15.5337 418.363V454.565Z" stroke="#00A7B8"/>
<path d="M49.024 472.635V436.464" stroke="#00A7B8"/>
<path d="M48.6652 436.649L81.527 418.563" stroke="#00A7B8"/>
<path d="M49.1431 436.649L16.2812 418.563" stroke="#00A7B8"/>
<path d="M86.8869 460.752L119.947 478.875L153.008 460.752V424.55L119.947 406.427L86.8869 424.55V460.752Z" stroke="#00A7B8"/>
<path d="M120.377 478.822V442.651" stroke="#00A7B8"/>
<path d="M120.018 442.836L152.88 424.75" stroke="#00A7B8"/>
<path d="M120.496 442.836L87.6341 424.75" stroke="#00A7B8"/>
<path d="M148.398 589.439L181.459 607.562L214.519 589.439V553.236L181.459 535.113L148.398 553.236V589.439Z" stroke="#00A7B8"/>
<path d="M181.889 607.508V571.338" stroke="#00A7B8"/>
<path d="M181.53 571.522L214.392 553.436" stroke="#00A7B8"/>
<path d="M182.008 571.522L149.146 553.436" stroke="#00A7B8"/>
<path d="M106.571 645.12L139.631 663.243L172.691 645.12V608.918L139.631 590.794L106.571 608.918V645.12Z" stroke="#00A7B8"/>
<path d="M140.061 663.189V627.019" stroke="#00A7B8"/>
<path d="M139.702 627.204L172.564 609.118" stroke="#00A7B8"/>
<path d="M140.18 627.204L107.318 609.118" stroke="#00A7B8"/>
<path d="M177.924 651.307L210.984 669.43L244.045 651.307V615.105L210.984 596.981L177.924 615.105V651.307Z" stroke="#00A7B8"/>
<path d="M211.414 669.376V633.206" stroke="#00A7B8"/>
<path d="M211.055 633.39L243.917 615.304" stroke="#00A7B8"/>
<path d="M211.533 633.39L178.671 615.304" stroke="#00A7B8"/>
<path d="M451.035 489.211L484.095 507.335L517.155 489.211V453.009L484.095 434.886L451.035 453.009V489.211Z" stroke="#00A7B8"/>
<path d="M484.644 471.295L451.782 453.209" stroke="#00A7B8"/>
<path d="M264.04 538.706L297.1 556.829L330.161 538.706V502.504L297.1 484.381L264.04 502.504V538.706Z" stroke="#00A7B8"/>
<path d="M297.53 556.776V520.605" stroke="#00A7B8"/>
<path d="M297.171 520.79L330.033 502.704" stroke="#00A7B8"/>
<path d="M297.649 520.79L264.787 502.704" stroke="#00A7B8"/>
<path d="M222.212 594.388L255.272 612.511L288.333 594.388V558.186L255.272 540.063L222.212 558.186V594.388Z" stroke="#00A7B8"/>
<path d="M255.702 612.458V576.287" stroke="#00A7B8"/>
<path d="M255.344 576.472L288.206 558.386" stroke="#00A7B8"/>
<path d="M255.822 576.472L222.96 558.386" stroke="#00A7B8"/>
<path d="M293.565 600.575L326.626 618.698L359.686 600.575V564.373L326.626 546.25L293.565 564.373V600.575Z" stroke="#00A7B8"/>
<path d="M327.056 618.645V582.474" stroke="#00A7B8"/>
<path d="M326.697 582.658L359.559 564.572" stroke="#00A7B8"/>
<path d="M327.175 582.658L294.313 564.572" stroke="#00A7B8"/>
<path d="M377.221 484.262L410.281 502.385L443.342 484.262V448.06L410.281 429.937L377.221 448.06V484.262Z" stroke="#00A7B8"/>
<path d="M410.711 502.332V466.161" stroke="#00A7B8"/>
<path d="M410.352 466.345L443.214 448.259" stroke="#00A7B8"/>
<path d="M410.83 466.345L377.968 448.259" stroke="#00A7B8"/>
<path d="M335.393 539.943L368.453 558.067L401.514 539.943V503.741L368.453 485.618L335.393 503.741V539.943Z" stroke="#00A7B8"/>
<path d="M368.883 558.013V521.843" stroke="#00A7B8"/>
<path d="M368.524 522.027L401.386 503.941" stroke="#00A7B8"/>
<path d="M369.002 522.027L336.14 503.941" stroke="#00A7B8"/>
<path d="M406.746 546.13L439.807 564.253L472.867 546.13V509.928L439.807 491.805L406.746 509.928V546.13Z" stroke="#00A7B8"/>
<path d="M440.237 564.2V528.029" stroke="#00A7B8"/>
<path d="M439.878 528.214L472.74 510.128" stroke="#00A7B8"/>
<path d="M440.356 528.214L407.494 510.128" stroke="#00A7B8"/>
<path d="M389.523 365.475L422.583 383.598L455.644 365.475V329.273L422.583 311.149L389.523 329.273V365.475Z" stroke="#00A7B8"/>
<path d="M423.013 383.544V347.374" stroke="#00A7B8"/>
<path d="M422.655 347.558L455.517 329.472" stroke="#00A7B8"/>
<path d="M423.133 347.558L390.271 329.472" stroke="#00A7B8"/>
<path d="M347.695 421.156L380.756 439.279L413.816 421.156V384.954L380.756 366.831L347.695 384.954V421.156Z" stroke="#00A7B8"/>
<path d="M381.186 439.226V403.055" stroke="#00A7B8"/>
<path d="M380.827 403.24L413.689 385.154" stroke="#00A7B8"/>
<path d="M381.305 403.24L348.443 385.154" stroke="#00A7B8"/>
<path d="M419.049 427.343L452.109 445.466L485.169 427.343V391.141L452.109 373.018L419.049 391.141V427.343Z" stroke="#00A7B8"/>
<path d="M452.539 445.413V409.242" stroke="#00A7B8"/>
<path d="M452.18 409.427L485.042 391.341" stroke="#00A7B8"/>
<path d="M452.658 409.427L419.796 391.341" stroke="#00A7B8"/>
<path d="M276.342 416.207L309.402 434.33L342.463 416.207V380.004L309.402 361.881L276.342 380.004V416.207Z" stroke="#00A7B8"/>
<path d="M309.833 434.276V398.106" stroke="#00A7B8"/>
<path d="M309.474 398.29L342.336 380.204" stroke="#00A7B8"/>
<path d="M309.952 398.29L277.09 380.204" stroke="#00A7B8"/>
<path d="M234.514 471.888L267.575 490.011L300.635 471.888V435.686L267.575 417.563L234.514 435.686V471.888Z" stroke="#00A7B8"/>
<path d="M268.005 489.958V453.787" stroke="#00A7B8"/>
<path d="M267.646 453.972L300.508 435.886" stroke="#00A7B8"/>
<path d="M268.124 453.972L235.262 435.886" stroke="#00A7B8"/>
<path d="M305.868 478.075L338.928 496.198L371.988 478.075V441.873L338.928 423.75L305.868 441.873V478.075Z" stroke="#00A7B8"/>
<path d="M339.358 496.145V459.974" stroke="#00A7B8"/>
<path d="M338.999 460.159L371.861 442.073" stroke="#00A7B8"/>
<path d="M339.477 460.159L306.615 442.073" stroke="#00A7B8"/>
<path d="M160.701 470.651L193.761 488.774L226.821 470.651V434.449L193.761 416.326L160.701 434.449V470.651Z" stroke="#00A7B8"/>
<path d="M194.191 488.721V452.55" stroke="#00A7B8"/>
<path d="M193.832 452.735L226.694 434.649" stroke="#00A7B8"/>
<path d="M194.31 452.735L161.448 434.649" stroke="#00A7B8"/>
<path d="M118.873 526.332L151.933 544.455L184.994 526.332V490.13L151.933 472.007L118.873 490.13V526.332Z" stroke="#00A7B8"/>
<path d="M152.363 544.402V508.232" stroke="#00A7B8"/>
<path d="M152.004 508.416L184.866 490.33" stroke="#00A7B8"/>
<path d="M152.482 508.416L119.62 490.33" stroke="#00A7B8"/>
<path d="M190.226 532.519L223.286 550.642L256.347 532.519V496.317L223.286 478.194L190.226 496.317V532.519Z" stroke="#00A7B8"/>
<path d="M223.716 550.589V514.418" stroke="#00A7B8"/>
<path d="M223.358 514.603L256.22 496.517" stroke="#00A7B8"/>
<path d="M223.836 514.603L190.974 496.517" stroke="#00A7B8"/>
<path d="M47.5196 521.383L80.58 539.506L113.64 521.383V485.181L80.58 467.058L47.5196 485.181V521.383Z" stroke="#00A7B8"/>
<path d="M81.0099 539.453V503.282" stroke="#00A7B8"/>
<path d="M80.6512 503.467L113.513 485.381" stroke="#00A7B8"/>
<path d="M81.129 503.467L48.2671 485.381" stroke="#00A7B8"/>
<path d="M5.69183 577.065L38.7522 595.188L71.8126 577.065V540.863L38.7522 522.74L5.69183 540.863V577.065Z" stroke="#00A7B8"/>
<path d="M39.1822 595.135V558.964" stroke="#00A7B8"/>
<path d="M38.8234 559.148L71.6853 541.062" stroke="#00A7B8"/>
<path d="M39.3013 559.148L6.43938 541.062" stroke="#00A7B8"/>
<path d="M77.0451 583.252L110.105 601.375L143.166 583.252V547.05L110.105 528.926L77.0451 547.05V583.252Z" stroke="#00A7B8"/>
<path d="M110.535 601.321V565.151" stroke="#00A7B8"/>
<path d="M110.177 565.335L143.039 547.249" stroke="#00A7B8"/>
<path d="M110.655 565.335L77.793 547.249" stroke="#00A7B8"/>
<path d="M170.542 348.151L203.603 366.275L236.663 348.151V311.949L203.603 293.826L170.542 311.949V348.151Z" stroke="#00A7B8"/>
<path d="M204.033 366.221V330.05" stroke="#00A7B8"/>
<path d="M203.674 330.235L236.536 312.149" stroke="#00A7B8"/>
<path d="M204.152 330.235L171.29 312.149" stroke="#00A7B8"/>
<path d="M128.715 403.833L161.775 421.956L194.835 403.833V367.631L161.775 349.508L128.715 367.631V403.833Z" stroke="#00A7B8"/>
<path d="M162.205 421.903V385.732" stroke="#00A7B8"/>
<path d="M161.846 385.917L194.708 367.831" stroke="#00A7B8"/>
<path d="M162.324 385.917L129.462 367.831" stroke="#00A7B8"/>
<path d="M200.068 410.02L233.128 428.143L266.189 410.02V373.818L233.128 355.695L200.068 373.818V410.02Z" stroke="#00A7B8"/>
<path d="M233.558 428.09V391.919" stroke="#00A7B8"/>
<path d="M233.199 392.103L266.061 374.017" stroke="#00A7B8"/>
<path d="M233.677 392.103L200.815 374.017" stroke="#00A7B8"/>
<path d="M57.3614 398.884L90.4218 417.007L123.482 398.884V362.681L90.4218 344.558L57.3614 362.681V398.884Z" stroke="#00A7B8"/>
<path d="M90.8518 416.953V380.783" stroke="#00A7B8"/>
<path d="M90.493 380.967L123.355 362.881" stroke="#00A7B8"/>
<path d="M90.9708 380.967L58.1089 362.881" stroke="#00A7B8"/>
<path d="M15.5337 454.565L48.5941 472.688L81.6544 454.565V418.363L48.5941 400.24L15.5337 418.363V454.565Z" stroke="#00A7B8"/>
<path d="M49.024 472.635V436.464" stroke="#00A7B8"/>
<path d="M48.6652 436.649L81.527 418.563" stroke="#00A7B8"/>
<path d="M49.1431 436.649L16.2812 418.563" stroke="#00A7B8"/>
<path d="M86.8869 460.752L119.947 478.875L153.008 460.752V424.55L119.947 406.427L86.8869 424.55V460.752Z" stroke="#00A7B8"/>
<path d="M120.377 478.822V442.651" stroke="#00A7B8"/>
<path d="M120.018 442.836L152.88 424.75" stroke="#00A7B8"/>
<path d="M120.496 442.836L87.6341 424.75" stroke="#00A7B8"/>
<path d="M148.398 589.439L181.459 607.562L214.519 589.439V553.236L181.459 535.113L148.398 553.236V589.439Z" stroke="#00A7B8"/>
<path d="M181.889 607.508V571.338" stroke="#00A7B8"/>
<path d="M181.53 571.522L214.392 553.436" stroke="#00A7B8"/>
<path d="M182.008 571.522L149.146 553.436" stroke="#00A7B8"/>
<path d="M106.571 645.12L139.631 663.243L172.691 645.12V608.918L139.631 590.794L106.571 608.918V645.12Z" stroke="#00A7B8"/>
<path d="M140.061 663.189V627.019" stroke="#00A7B8"/>
<path d="M139.702 627.204L172.564 609.118" stroke="#00A7B8"/>
<path d="M140.18 627.204L107.318 609.118" stroke="#00A7B8"/>
<path d="M177.924 651.307L210.984 669.43L244.045 651.307V615.105L210.984 596.981L177.924 615.105V651.307Z" stroke="#00A7B8"/>
<path d="M211.414 669.376V633.206" stroke="#00A7B8"/>
<path d="M211.055 633.39L243.917 615.304" stroke="#00A7B8"/>
<path d="M211.533 633.39L178.671 615.304" stroke="#00A7B8"/>
<path d="M451.035 489.211L484.095 507.335L517.155 489.211V453.009L484.095 434.886L451.035 453.009V489.211Z" stroke="#00A7B8"/>
<path d="M484.644 471.295L451.782 453.209" stroke="#00A7B8"/>
<path d="M264.04 538.706L297.1 556.829L330.161 538.706V502.504L297.1 484.381L264.04 502.504V538.706Z" stroke="#00A7B8"/>
<path d="M297.53 556.776V520.605" stroke="#00A7B8"/>
<path d="M297.171 520.79L330.033 502.704" stroke="#00A7B8"/>
<path d="M297.649 520.79L264.787 502.704" stroke="#00A7B8"/>
<path d="M222.212 594.388L255.272 612.511L288.333 594.388V558.186L255.272 540.063L222.212 558.186V594.388Z" stroke="#00A7B8"/>
<path d="M255.702 612.458V576.287" stroke="#00A7B8"/>
<path d="M255.344 576.472L288.206 558.386" stroke="#00A7B8"/>
<path d="M255.822 576.472L222.96 558.386" stroke="#00A7B8"/>
<path d="M293.565 600.575L326.626 618.698L359.686 600.575V564.373L326.626 546.25L293.565 564.373V600.575Z" stroke="#00A7B8"/>
<path d="M327.056 618.645V582.474" stroke="#00A7B8"/>
<path d="M326.697 582.658L359.559 564.572" stroke="#00A7B8"/>
<path d="M327.175 582.658L294.313 564.572" stroke="#00A7B8"/>
<path d="M109.031 223.177L142.091 241.3L175.152 223.177V186.975L142.091 168.852L109.031 186.975V223.177Z" stroke="#00A7B8"/>
<path d="M142.521 241.247V205.076" stroke="#00A7B8"/>
<path d="M142.162 205.261L175.024 187.175" stroke="#00A7B8"/>
<path d="M142.64 205.261L109.778 187.175" stroke="#00A7B8"/>
<path d="M96.7287 340.727L129.789 358.85L162.849 340.727V304.525L129.789 286.402L96.7287 304.525V340.727Z" stroke="#00A7B8"/>
<path d="M130.219 358.797V322.626" stroke="#00A7B8"/>
<path d="M129.86 322.811L162.722 304.725" stroke="#00A7B8"/>
<path d="M130.338 322.811L97.4761 304.725" stroke="#00A7B8"/>
</g>
<defs>
<clipPath id="clip0_52_395">
<rect width="464" height="670" fill="white"/>
</clipPath>
</defs>
</svg>
