<svg width="464" height="670" viewBox="0 0 464 670" fill="none" xmlns="http://www.w3.org/2000/svg">
<path d="M411.667 122.951L444.728 141.074L477.788 122.951V86.7486L444.728 68.6255L411.667 86.7486V122.951Z" stroke="white"/>
<line x1="445.158" y1="141.021" x2="445.158" y2="104.85" stroke="white"/>
<line y1="-0.5" x2="37.5098" y2="-0.5" transform="matrix(0.876088 -0.482151 0.477876 0.878427 445.038 105.473)" stroke="white"/>
<line y1="-0.5" x2="37.5098" y2="-0.5" transform="matrix(-0.876088 -0.482151 -0.477876 0.878427 445.038 105.473)" stroke="white"/>
<path d="M369.839 178.632L402.9 196.755L435.96 178.632V142.43L402.9 124.307L369.839 142.43V178.632Z" stroke="white"/>
<line x1="403.33" y1="196.702" x2="403.33" y2="160.531" stroke="white"/>
<line y1="-0.5" x2="37.5098" y2="-0.5" transform="matrix(0.876088 -0.482151 0.477876 0.878427 403.21 161.155)" stroke="white"/>
<line y1="-0.5" x2="37.5098" y2="-0.5" transform="matrix(-0.876088 -0.482151 -0.477876 0.878427 403.21 161.155)" stroke="white"/>
<path d="M441.193 184.819L474.253 202.942L507.314 184.819V148.617L474.253 130.494L441.193 148.617V184.819Z" stroke="white"/>
<line y1="-0.5" x2="37.5098" y2="-0.5" transform="matrix(-0.876088 -0.482151 -0.477876 0.878427 474.563 167.342)" stroke="white"/>
<path d="M296.026 177.395L329.086 195.518L362.147 177.395V141.192L329.086 123.069L296.026 141.192V177.395Z" stroke="white"/>
<line x1="329.516" y1="195.465" x2="329.516" y2="159.294" stroke="white"/>
<line y1="-0.5" x2="37.5098" y2="-0.5" transform="matrix(0.876088 -0.482151 0.477876 0.878427 329.396 159.917)" stroke="white"/>
<line y1="-0.5" x2="37.5098" y2="-0.5" transform="matrix(-0.876088 -0.482151 -0.477876 0.878427 329.396 159.917)" stroke="white"/>
<path d="M254.198 233.076L287.258 251.199L320.319 233.076V196.874L287.258 178.751L254.198 196.874V233.076Z" stroke="white"/>
<line x1="287.688" y1="251.146" x2="287.688" y2="214.975" stroke="white"/>
<line y1="-0.5" x2="37.5098" y2="-0.5" transform="matrix(0.876088 -0.482151 0.477876 0.878427 287.568 215.599)" stroke="white"/>
<line y1="-0.5" x2="37.5098" y2="-0.5" transform="matrix(-0.876088 -0.482151 -0.477876 0.878427 287.568 215.599)" stroke="white"/>
<path d="M325.551 239.263L358.612 257.386L391.672 239.263V203.061L358.612 184.938L325.551 203.061V239.263Z" stroke="white"/>
<line x1="359.042" y1="257.333" x2="359.042" y2="221.162" stroke="white"/>
<line y1="-0.5" x2="37.5098" y2="-0.5" transform="matrix(0.876088 -0.482151 0.477876 0.878427 358.922 221.786)" stroke="white"/>
<line y1="-0.5" x2="37.5098" y2="-0.5" transform="matrix(-0.876088 -0.482151 -0.477876 0.878427 358.922 221.786)" stroke="white"/>
<path d="M182.845 228.127L215.905 246.25L248.965 228.127V191.925L215.905 173.802L182.845 191.925V228.127Z" stroke="white"/>
<line x1="216.335" y1="246.197" x2="216.335" y2="210.026" stroke="white"/>
<line y1="-0.5" x2="37.5098" y2="-0.5" transform="matrix(0.876088 -0.482151 0.477876 0.878427 216.215 210.649)" stroke="white"/>
<line y1="-0.5" x2="37.5098" y2="-0.5" transform="matrix(-0.876088 -0.482151 -0.477876 0.878427 216.215 210.649)" stroke="white"/>
<path d="M141.017 283.808L174.077 301.931L207.138 283.808V247.606L174.077 229.483L141.017 247.606V283.808Z" stroke="white"/>
<line x1="174.507" y1="301.878" x2="174.507" y2="265.707" stroke="white"/>
<line y1="-0.5" x2="37.5098" y2="-0.5" transform="matrix(0.876088 -0.482151 0.477876 0.878427 174.387 266.331)" stroke="white"/>
<line y1="-0.5" x2="37.5098" y2="-0.5" transform="matrix(-0.876088 -0.482151 -0.477876 0.878427 174.387 266.331)" stroke="white"/>
<path d="M212.37 289.995L245.431 308.118L278.491 289.995V253.793L245.431 235.67L212.37 253.793V289.995Z" stroke="white"/>
<line x1="245.861" y1="308.065" x2="245.861" y2="271.894" stroke="white"/>
<line y1="-0.5" x2="37.5098" y2="-0.5" transform="matrix(0.876088 -0.482151 0.477876 0.878427 245.741 272.518)" stroke="white"/>
<line y1="-0.5" x2="37.5098" y2="-0.5" transform="matrix(-0.876088 -0.482151 -0.477876 0.878427 245.741 272.518)" stroke="white"/>
<path d="M305.868 54.8953L338.928 73.0184L371.988 54.8953V18.6932L338.928 0.570084L305.868 18.6932V54.8953Z" stroke="white"/>
<line x1="339.358" y1="72.9651" x2="339.358" y2="36.7944" stroke="white"/>
<line y1="-0.5" x2="37.5098" y2="-0.5" transform="matrix(0.876088 -0.482151 0.477876 0.878427 339.238 37.418)" stroke="white"/>
<line y1="-0.5" x2="37.5098" y2="-0.5" transform="matrix(-0.876088 -0.482151 -0.477876 0.878427 339.238 37.418)" stroke="white"/>
<path d="M264.04 110.577L297.1 128.7L330.161 110.577V74.3748L297.1 56.2517L264.04 74.3748V110.577Z" stroke="white"/>
<line x1="297.53" y1="128.646" x2="297.53" y2="92.4758" stroke="white"/>
<line y1="-0.5" x2="37.5098" y2="-0.5" transform="matrix(0.876088 -0.482151 0.477876 0.878427 297.41 93.0994)" stroke="white"/>
<line y1="-0.5" x2="37.5098" y2="-0.5" transform="matrix(-0.876088 -0.482151 -0.477876 0.878427 297.41 93.0994)" stroke="white"/>
<path d="M335.393 116.764L368.453 134.887L401.514 116.764V80.5616L368.453 62.4385L335.393 80.5616V116.764Z" stroke="white"/>
<line x1="368.883" y1="134.833" x2="368.883" y2="98.6628" stroke="white"/>
<line y1="-0.5" x2="37.5098" y2="-0.5" transform="matrix(0.876088 -0.482151 0.477876 0.878427 368.763 99.2864)" stroke="white"/>
<line y1="-0.5" x2="37.5098" y2="-0.5" transform="matrix(-0.876088 -0.482151 -0.477876 0.878427 368.763 99.2864)" stroke="white"/>
<path d="M192.687 105.628L225.747 123.751L258.807 105.628V69.4254L225.747 51.3023L192.687 69.4254V105.628Z" stroke="white"/>
<line x1="226.177" y1="123.697" x2="226.177" y2="87.5263" stroke="white"/>
<line y1="-0.5" x2="37.5098" y2="-0.5" transform="matrix(0.876088 -0.482151 0.477876 0.878427 226.057 88.1499)" stroke="white"/>
<line y1="-0.5" x2="37.5098" y2="-0.5" transform="matrix(-0.876088 -0.482151 -0.477876 0.878427 226.057 88.1499)" stroke="white"/>
<path d="M150.859 161.309L183.919 179.432L216.98 161.309V125.107L183.919 106.984L150.859 125.107V161.309Z" stroke="white"/>
<line x1="184.349" y1="179.379" x2="184.349" y2="143.208" stroke="white"/>
<line y1="-0.5" x2="37.5098" y2="-0.5" transform="matrix(0.876088 -0.482151 0.477876 0.878427 184.229 143.832)" stroke="white"/>
<line y1="-0.5" x2="37.5098" y2="-0.5" transform="matrix(-0.876088 -0.482151 -0.477876 0.878427 184.229 143.832)" stroke="white"/>
<path d="M222.212 167.496L255.272 185.619L288.333 167.496V131.294L255.272 113.17L222.212 131.294V167.496Z" stroke="white"/>
<line x1="255.702" y1="185.566" x2="255.702" y2="149.395" stroke="white"/>
<line y1="-0.5" x2="37.5098" y2="-0.5" transform="matrix(0.876088 -0.482151 0.477876 0.878427 255.583 150.018)" stroke="white"/>
<line y1="-0.5" x2="37.5098" y2="-0.5" transform="matrix(-0.876088 -0.482151 -0.477876 0.878427 255.583 150.018)" stroke="white"/>
<path d="M283.723 296.182L316.784 314.305L349.844 296.182V259.98L316.784 241.857L283.723 259.98V296.182Z" stroke="white"/>
<line x1="317.214" y1="314.252" x2="317.214" y2="278.081" stroke="white"/>
<line y1="-0.5" x2="37.5098" y2="-0.5" transform="matrix(0.876088 -0.482151 0.477876 0.878427 317.094 278.705)" stroke="white"/>
<line y1="-0.5" x2="37.5098" y2="-0.5" transform="matrix(-0.876088 -0.482151 -0.477876 0.878427 317.094 278.705)" stroke="white"/>
<path d="M241.896 351.864L274.956 369.987L308.016 351.864V315.661L274.956 297.538L241.896 315.661V351.864Z" stroke="white"/>
<line x1="275.386" y1="369.934" x2="275.386" y2="333.763" stroke="white"/>
<line y1="-0.5" x2="37.5098" y2="-0.5" transform="matrix(0.876088 -0.482151 0.477876 0.878427 275.266 334.386)" stroke="white"/>
<line y1="-0.5" x2="37.5098" y2="-0.5" transform="matrix(-0.876088 -0.482151 -0.477876 0.878427 275.266 334.386)" stroke="white"/>
<path d="M313.249 358.05L346.309 376.173L379.37 358.05V321.848L346.309 303.725L313.249 321.848V358.05Z" stroke="white"/>
<line x1="346.739" y1="376.12" x2="346.739" y2="339.949" stroke="white"/>
<line y1="-0.5" x2="37.5098" y2="-0.5" transform="matrix(0.876088 -0.482151 0.477876 0.878427 346.619 340.573)" stroke="white"/>
<line y1="-0.5" x2="37.5098" y2="-0.5" transform="matrix(-0.876088 -0.482151 -0.477876 0.878427 346.619 340.573)" stroke="white"/>
<path d="M399.365 245.45L432.425 263.573L465.486 245.45V209.248L432.425 191.125L399.365 209.248V245.45Z" stroke="white"/>
<line x1="432.855" y1="263.52" x2="432.855" y2="227.349" stroke="white"/>
<line y1="-0.5" x2="37.5098" y2="-0.5" transform="matrix(0.876088 -0.482151 0.477876 0.878427 432.735 227.972)" stroke="white"/>
<line y1="-0.5" x2="37.5098" y2="-0.5" transform="matrix(-0.876088 -0.482151 -0.477876 0.878427 432.735 227.972)" stroke="white"/>
<path d="M357.537 301.132L390.598 319.255L423.658 301.132V264.93L390.598 246.806L357.537 264.93V301.132Z" stroke="white"/>
<line x1="391.028" y1="319.201" x2="391.028" y2="283.03" stroke="white"/>
<line y1="-0.5" x2="37.5098" y2="-0.5" transform="matrix(0.876088 -0.482151 0.477876 0.878427 390.908 283.654)" stroke="white"/>
<line y1="-0.5" x2="37.5098" y2="-0.5" transform="matrix(-0.876088 -0.482151 -0.477876 0.878427 390.908 283.654)" stroke="white"/>
<path d="M428.89 307.318L461.951 325.441L495.011 307.318V271.116L461.951 252.993L428.89 271.116V307.318Z" stroke="white"/>
<line x1="462.381" y1="325.388" x2="462.381" y2="289.217" stroke="white"/>
<line y1="-0.5" x2="37.5098" y2="-0.5" transform="matrix(0.876088 -0.482151 0.477876 0.878427 462.261 289.841)" stroke="white"/>
<line y1="-0.5" x2="37.5098" y2="-0.5" transform="matrix(-0.876088 -0.482151 -0.477876 0.878427 462.261 289.841)" stroke="white"/>
<path d="M411.667 122.951L444.728 141.074L477.788 122.951V86.7486L444.728 68.6255L411.667 86.7486V122.951Z" stroke="white"/>
<line x1="445.158" y1="141.021" x2="445.158" y2="104.85" stroke="white"/>
<line y1="-0.5" x2="37.5098" y2="-0.5" transform="matrix(0.876088 -0.482151 0.477876 0.878427 445.038 105.473)" stroke="white"/>
<line y1="-0.5" x2="37.5098" y2="-0.5" transform="matrix(-0.876088 -0.482151 -0.477876 0.878427 445.038 105.473)" stroke="white"/>
<path d="M369.839 178.632L402.9 196.755L435.96 178.632V142.43L402.9 124.307L369.839 142.43V178.632Z" stroke="white"/>
<line x1="403.33" y1="196.702" x2="403.33" y2="160.531" stroke="white"/>
<line y1="-0.5" x2="37.5098" y2="-0.5" transform="matrix(0.876088 -0.482151 0.477876 0.878427 403.21 161.155)" stroke="white"/>
<line y1="-0.5" x2="37.5098" y2="-0.5" transform="matrix(-0.876088 -0.482151 -0.477876 0.878427 403.21 161.155)" stroke="white"/>
<path d="M441.193 184.819L474.253 202.942L507.314 184.819V148.617L474.253 130.494L441.193 148.617V184.819Z" stroke="white"/>
<line y1="-0.5" x2="37.5098" y2="-0.5" transform="matrix(-0.876088 -0.482151 -0.477876 0.878427 474.563 167.342)" stroke="white"/>
<path d="M296.026 177.395L329.086 195.518L362.147 177.395V141.192L329.086 123.069L296.026 141.192V177.395Z" stroke="white"/>
<line x1="329.516" y1="195.465" x2="329.516" y2="159.294" stroke="white"/>
<line y1="-0.5" x2="37.5098" y2="-0.5" transform="matrix(0.876088 -0.482151 0.477876 0.878427 329.396 159.917)" stroke="white"/>
<line y1="-0.5" x2="37.5098" y2="-0.5" transform="matrix(-0.876088 -0.482151 -0.477876 0.878427 329.396 159.917)" stroke="white"/>
<path d="M254.198 233.076L287.258 251.199L320.319 233.076V196.874L287.258 178.751L254.198 196.874V233.076Z" stroke="white"/>
<line x1="287.688" y1="251.146" x2="287.688" y2="214.975" stroke="white"/>
<line y1="-0.5" x2="37.5098" y2="-0.5" transform="matrix(0.876088 -0.482151 0.477876 0.878427 287.568 215.599)" stroke="white"/>
<line y1="-0.5" x2="37.5098" y2="-0.5" transform="matrix(-0.876088 -0.482151 -0.477876 0.878427 287.568 215.599)" stroke="white"/>
<path d="M325.551 239.263L358.612 257.386L391.672 239.263V203.061L358.612 184.938L325.551 203.061V239.263Z" stroke="white"/>
<line x1="359.042" y1="257.333" x2="359.042" y2="221.162" stroke="white"/>
<line y1="-0.5" x2="37.5098" y2="-0.5" transform="matrix(0.876088 -0.482151 0.477876 0.878427 358.922 221.786)" stroke="white"/>
<line y1="-0.5" x2="37.5098" y2="-0.5" transform="matrix(-0.876088 -0.482151 -0.477876 0.878427 358.922 221.786)" stroke="white"/>
<path d="M182.845 228.127L215.905 246.25L248.965 228.127V191.925L215.905 173.802L182.845 191.925V228.127Z" stroke="white"/>
<line x1="216.335" y1="246.197" x2="216.335" y2="210.026" stroke="white"/>
<line y1="-0.5" x2="37.5098" y2="-0.5" transform="matrix(0.876088 -0.482151 0.477876 0.878427 216.215 210.649)" stroke="white"/>
<line y1="-0.5" x2="37.5098" y2="-0.5" transform="matrix(-0.876088 -0.482151 -0.477876 0.878427 216.215 210.649)" stroke="white"/>
<path d="M141.017 283.808L174.077 301.931L207.138 283.808V247.606L174.077 229.483L141.017 247.606V283.808Z" stroke="white"/>
<line x1="174.507" y1="301.878" x2="174.507" y2="265.707" stroke="white"/>
<line y1="-0.5" x2="37.5098" y2="-0.5" transform="matrix(0.876088 -0.482151 0.477876 0.878427 174.387 266.331)" stroke="white"/>
<line y1="-0.5" x2="37.5098" y2="-0.5" transform="matrix(-0.876088 -0.482151 -0.477876 0.878427 174.387 266.331)" stroke="white"/>
<path d="M212.37 289.995L245.431 308.118L278.491 289.995V253.793L245.431 235.67L212.37 253.793V289.995Z" stroke="white"/>
<line x1="245.861" y1="308.065" x2="245.861" y2="271.894" stroke="white"/>
<line y1="-0.5" x2="37.5098" y2="-0.5" transform="matrix(0.876088 -0.482151 0.477876 0.878427 245.741 272.518)" stroke="white"/>
<line y1="-0.5" x2="37.5098" y2="-0.5" transform="matrix(-0.876088 -0.482151 -0.477876 0.878427 245.741 272.518)" stroke="white"/>
<path d="M305.868 54.8953L338.928 73.0184L371.988 54.8953V18.6932L338.928 0.570084L305.868 18.6932V54.8953Z" stroke="white"/>
<line x1="339.358" y1="72.9651" x2="339.358" y2="36.7944" stroke="white"/>
<line y1="-0.5" x2="37.5098" y2="-0.5" transform="matrix(0.876088 -0.482151 0.477876 0.878427 339.238 37.418)" stroke="white"/>
<line y1="-0.5" x2="37.5098" y2="-0.5" transform="matrix(-0.876088 -0.482151 -0.477876 0.878427 339.238 37.418)" stroke="white"/>
<path d="M264.04 110.577L297.1 128.7L330.161 110.577V74.3748L297.1 56.2517L264.04 74.3748V110.577Z" stroke="white"/>
<line x1="297.53" y1="128.646" x2="297.53" y2="92.4758" stroke="white"/>
<line y1="-0.5" x2="37.5098" y2="-0.5" transform="matrix(0.876088 -0.482151 0.477876 0.878427 297.41 93.0994)" stroke="white"/>
<line y1="-0.5" x2="37.5098" y2="-0.5" transform="matrix(-0.876088 -0.482151 -0.477876 0.878427 297.41 93.0994)" stroke="white"/>
<path d="M335.393 116.764L368.453 134.887L401.514 116.764V80.5616L368.453 62.4385L335.393 80.5616V116.764Z" stroke="white"/>
<line x1="368.883" y1="134.833" x2="368.883" y2="98.6628" stroke="white"/>
<line y1="-0.5" x2="37.5098" y2="-0.5" transform="matrix(0.876088 -0.482151 0.477876 0.878427 368.763 99.2864)" stroke="white"/>
<line y1="-0.5" x2="37.5098" y2="-0.5" transform="matrix(-0.876088 -0.482151 -0.477876 0.878427 368.763 99.2864)" stroke="white"/>
<path d="M192.687 105.628L225.747 123.751L258.807 105.628V69.4254L225.747 51.3023L192.687 69.4254V105.628Z" stroke="white"/>
<line x1="226.177" y1="123.697" x2="226.177" y2="87.5263" stroke="white"/>
<line y1="-0.5" x2="37.5098" y2="-0.5" transform="matrix(0.876088 -0.482151 0.477876 0.878427 226.057 88.1499)" stroke="white"/>
<line y1="-0.5" x2="37.5098" y2="-0.5" transform="matrix(-0.876088 -0.482151 -0.477876 0.878427 226.057 88.1499)" stroke="white"/>
<path d="M150.859 161.309L183.919 179.432L216.98 161.309V125.107L183.919 106.984L150.859 125.107V161.309Z" stroke="white"/>
<line x1="184.349" y1="179.379" x2="184.349" y2="143.208" stroke="white"/>
<line y1="-0.5" x2="37.5098" y2="-0.5" transform="matrix(0.876088 -0.482151 0.477876 0.878427 184.229 143.832)" stroke="white"/>
<line y1="-0.5" x2="37.5098" y2="-0.5" transform="matrix(-0.876088 -0.482151 -0.477876 0.878427 184.229 143.832)" stroke="white"/>
<path d="M222.212 167.496L255.272 185.619L288.333 167.496V131.294L255.272 113.17L222.212 131.294V167.496Z" stroke="white"/>
<line x1="255.702" y1="185.566" x2="255.702" y2="149.395" stroke="white"/>
<line y1="-0.5" x2="37.5098" y2="-0.5" transform="matrix(0.876088 -0.482151 0.477876 0.878427 255.583 150.018)" stroke="white"/>
<line y1="-0.5" x2="37.5098" y2="-0.5" transform="matrix(-0.876088 -0.482151 -0.477876 0.878427 255.583 150.018)" stroke="white"/>
<path d="M283.723 296.182L316.784 314.305L349.844 296.182V259.98L316.784 241.857L283.723 259.98V296.182Z" stroke="white"/>
<line x1="317.214" y1="314.252" x2="317.214" y2="278.081" stroke="white"/>
<line y1="-0.5" x2="37.5098" y2="-0.5" transform="matrix(0.876088 -0.482151 0.477876 0.878427 317.094 278.705)" stroke="white"/>
<line y1="-0.5" x2="37.5098" y2="-0.5" transform="matrix(-0.876088 -0.482151 -0.477876 0.878427 317.094 278.705)" stroke="white"/>
<path d="M241.896 351.864L274.956 369.987L308.016 351.864V315.661L274.956 297.538L241.896 315.661V351.864Z" stroke="white"/>
<line x1="275.386" y1="369.934" x2="275.386" y2="333.763" stroke="white"/>
<line y1="-0.5" x2="37.5098" y2="-0.5" transform="matrix(0.876088 -0.482151 0.477876 0.878427 275.266 334.386)" stroke="white"/>
<line y1="-0.5" x2="37.5098" y2="-0.5" transform="matrix(-0.876088 -0.482151 -0.477876 0.878427 275.266 334.386)" stroke="white"/>
<path d="M313.249 358.05L346.309 376.173L379.37 358.05V321.848L346.309 303.725L313.249 321.848V358.05Z" stroke="white"/>
<line x1="346.739" y1="376.12" x2="346.739" y2="339.949" stroke="white"/>
<line y1="-0.5" x2="37.5098" y2="-0.5" transform="matrix(0.876088 -0.482151 0.477876 0.878427 346.619 340.573)" stroke="white"/>
<line y1="-0.5" x2="37.5098" y2="-0.5" transform="matrix(-0.876088 -0.482151 -0.477876 0.878427 346.619 340.573)" stroke="white"/>
<path d="M399.365 245.45L432.425 263.573L465.486 245.45V209.248L432.425 191.125L399.365 209.248V245.45Z" stroke="white"/>
<line x1="432.855" y1="263.52" x2="432.855" y2="227.349" stroke="white"/>
<line y1="-0.5" x2="37.5098" y2="-0.5" transform="matrix(0.876088 -0.482151 0.477876 0.878427 432.735 227.972)" stroke="white"/>
<line y1="-0.5" x2="37.5098" y2="-0.5" transform="matrix(-0.876088 -0.482151 -0.477876 0.878427 432.735 227.972)" stroke="white"/>
<path d="M357.537 301.132L390.598 319.255L423.658 301.132V264.93L390.598 246.806L357.537 264.93V301.132Z" stroke="white"/>
<line x1="391.028" y1="319.201" x2="391.028" y2="283.03" stroke="white"/>
<line y1="-0.5" x2="37.5098" y2="-0.5" transform="matrix(0.876088 -0.482151 0.477876 0.878427 390.908 283.654)" stroke="white"/>
<line y1="-0.5" x2="37.5098" y2="-0.5" transform="matrix(-0.876088 -0.482151 -0.477876 0.878427 390.908 283.654)" stroke="white"/>
<path d="M428.89 307.318L461.951 325.441L495.011 307.318V271.116L461.951 252.993L428.89 271.116V307.318Z" stroke="white"/>
<line x1="462.381" y1="325.388" x2="462.381" y2="289.217" stroke="white"/>
<line y1="-0.5" x2="37.5098" y2="-0.5" transform="matrix(0.876088 -0.482151 0.477876 0.878427 462.261 289.841)" stroke="white"/>
<line y1="-0.5" x2="37.5098" y2="-0.5" transform="matrix(-0.876088 -0.482151 -0.477876 0.878427 462.261 289.841)" stroke="white"/>
<path d="M377.221 484.262L410.281 502.385L443.342 484.262V448.06L410.281 429.937L377.221 448.06V484.262Z" stroke="white"/>
<line x1="410.711" y1="502.332" x2="410.711" y2="466.161" stroke="white"/>
<line y1="-0.5" x2="37.5098" y2="-0.5" transform="matrix(0.876088 -0.482151 0.477876 0.878427 410.591 466.784)" stroke="white"/>
<line y1="-0.5" x2="37.5098" y2="-0.5" transform="matrix(-0.876088 -0.482151 -0.477876 0.878427 410.591 466.784)" stroke="white"/>
<path d="M335.393 539.943L368.453 558.067L401.514 539.943V503.741L368.453 485.618L335.393 503.741V539.943Z" stroke="white"/>
<line x1="368.883" y1="558.013" x2="368.883" y2="521.843" stroke="white"/>
<line y1="-0.5" x2="37.5098" y2="-0.5" transform="matrix(0.876088 -0.482151 0.477876 0.878427 368.763 522.466)" stroke="white"/>
<line y1="-0.5" x2="37.5098" y2="-0.5" transform="matrix(-0.876088 -0.482151 -0.477876 0.878427 368.763 522.466)" stroke="white"/>
<path d="M406.746 546.13L439.807 564.253L472.867 546.13V509.928L439.807 491.805L406.746 509.928V546.13Z" stroke="white"/>
<line x1="440.237" y1="564.2" x2="440.237" y2="528.029" stroke="white"/>
<line y1="-0.5" x2="37.5098" y2="-0.5" transform="matrix(0.876088 -0.482151 0.477876 0.878427 440.117 528.653)" stroke="white"/>
<line y1="-0.5" x2="37.5098" y2="-0.5" transform="matrix(-0.876088 -0.482151 -0.477876 0.878427 440.117 528.653)" stroke="white"/>
<path d="M389.523 365.475L422.583 383.598L455.644 365.475V329.273L422.583 311.149L389.523 329.273V365.475Z" stroke="white"/>
<line x1="423.013" y1="383.544" x2="423.013" y2="347.374" stroke="white"/>
<line y1="-0.5" x2="37.5098" y2="-0.5" transform="matrix(0.876088 -0.482151 0.477876 0.878427 422.894 347.997)" stroke="white"/>
<line y1="-0.5" x2="37.5098" y2="-0.5" transform="matrix(-0.876088 -0.482151 -0.477876 0.878427 422.894 347.997)" stroke="white"/>
<path d="M347.695 421.156L380.756 439.279L413.816 421.156V384.954L380.756 366.831L347.695 384.954V421.156Z" stroke="white"/>
<line x1="381.186" y1="439.226" x2="381.186" y2="403.055" stroke="white"/>
<line y1="-0.5" x2="37.5098" y2="-0.5" transform="matrix(0.876088 -0.482151 0.477876 0.878427 381.066 403.679)" stroke="white"/>
<line y1="-0.5" x2="37.5098" y2="-0.5" transform="matrix(-0.876088 -0.482151 -0.477876 0.878427 381.066 403.679)" stroke="white"/>
<path d="M419.049 427.343L452.109 445.466L485.169 427.343V391.141L452.109 373.018L419.049 391.141V427.343Z" stroke="white"/>
<line x1="452.539" y1="445.413" x2="452.539" y2="409.242" stroke="white"/>
<line y1="-0.5" x2="37.5098" y2="-0.5" transform="matrix(0.876088 -0.482151 0.477876 0.878427 452.419 409.866)" stroke="white"/>
<line y1="-0.5" x2="37.5098" y2="-0.5" transform="matrix(-0.876088 -0.482151 -0.477876 0.878427 452.419 409.866)" stroke="white"/>
<path d="M276.342 416.207L309.402 434.33L342.463 416.207V380.004L309.402 361.881L276.342 380.004V416.207Z" stroke="white"/>
<line x1="309.833" y1="434.276" x2="309.833" y2="398.106" stroke="white"/>
<line y1="-0.5" x2="37.5098" y2="-0.5" transform="matrix(0.876088 -0.482151 0.477876 0.878427 309.713 398.729)" stroke="white"/>
<line y1="-0.5" x2="37.5098" y2="-0.5" transform="matrix(-0.876088 -0.482151 -0.477876 0.878427 309.713 398.729)" stroke="white"/>
<path d="M234.514 471.888L267.575 490.011L300.635 471.888V435.686L267.575 417.563L234.514 435.686V471.888Z" stroke="white"/>
<line x1="268.005" y1="489.958" x2="268.005" y2="453.787" stroke="white"/>
<line y1="-0.5" x2="37.5098" y2="-0.5" transform="matrix(0.876088 -0.482151 0.477876 0.878427 267.885 454.411)" stroke="white"/>
<line y1="-0.5" x2="37.5098" y2="-0.5" transform="matrix(-0.876088 -0.482151 -0.477876 0.878427 267.885 454.411)" stroke="white"/>
<path d="M305.868 478.075L338.928 496.198L371.988 478.075V441.873L338.928 423.75L305.868 441.873V478.075Z" stroke="white"/>
<line x1="339.358" y1="496.145" x2="339.358" y2="459.974" stroke="white"/>
<line y1="-0.5" x2="37.5098" y2="-0.5" transform="matrix(0.876088 -0.482151 0.477876 0.878427 339.238 460.598)" stroke="white"/>
<line y1="-0.5" x2="37.5098" y2="-0.5" transform="matrix(-0.876088 -0.482151 -0.477876 0.878427 339.238 460.598)" stroke="white"/>
<path d="M160.701 470.651L193.761 488.774L226.821 470.651V434.449L193.761 416.326L160.701 434.449V470.651Z" stroke="white"/>
<line x1="194.191" y1="488.721" x2="194.191" y2="452.55" stroke="white"/>
<line y1="-0.5" x2="37.5098" y2="-0.5" transform="matrix(0.876088 -0.482151 0.477876 0.878427 194.071 453.174)" stroke="white"/>
<line y1="-0.5" x2="37.5098" y2="-0.5" transform="matrix(-0.876088 -0.482151 -0.477876 0.878427 194.071 453.174)" stroke="white"/>
<path d="M118.873 526.332L151.933 544.455L184.994 526.332V490.13L151.933 472.007L118.873 490.13V526.332Z" stroke="white"/>
<line x1="152.363" y1="544.402" x2="152.363" y2="508.232" stroke="white"/>
<line y1="-0.5" x2="37.5098" y2="-0.5" transform="matrix(0.876088 -0.482151 0.477876 0.878427 152.243 508.855)" stroke="white"/>
<line y1="-0.5" x2="37.5098" y2="-0.5" transform="matrix(-0.876088 -0.482151 -0.477876 0.878427 152.243 508.855)" stroke="white"/>
<path d="M190.226 532.519L223.286 550.642L256.347 532.519V496.317L223.286 478.194L190.226 496.317V532.519Z" stroke="white"/>
<line x1="223.716" y1="550.589" x2="223.716" y2="514.418" stroke="white"/>
<line y1="-0.5" x2="37.5098" y2="-0.5" transform="matrix(0.876088 -0.482151 0.477876 0.878427 223.597 515.042)" stroke="white"/>
<line y1="-0.5" x2="37.5098" y2="-0.5" transform="matrix(-0.876088 -0.482151 -0.477876 0.878427 223.597 515.042)" stroke="white"/>
<path d="M47.5196 521.383L80.58 539.506L113.64 521.383V485.181L80.58 467.058L47.5196 485.181V521.383Z" stroke="white"/>
<line x1="81.0099" y1="539.453" x2="81.0099" y2="503.282" stroke="white"/>
<line y1="-0.5" x2="37.5098" y2="-0.5" transform="matrix(0.876088 -0.482151 0.477876 0.878427 80.8901 503.906)" stroke="white"/>
<line y1="-0.5" x2="37.5098" y2="-0.5" transform="matrix(-0.876088 -0.482151 -0.477876 0.878427 80.8901 503.906)" stroke="white"/>
<path d="M5.69181 577.065L38.7522 595.188L71.8126 577.065V540.863L38.7522 522.74L5.69181 540.863V577.065Z" stroke="white"/>
<line x1="39.1822" y1="595.135" x2="39.1822" y2="558.964" stroke="white"/>
<line y1="-0.5" x2="37.5098" y2="-0.5" transform="matrix(0.876088 -0.482151 0.477876 0.878427 39.0623 559.587)" stroke="white"/>
<line y1="-0.5" x2="37.5098" y2="-0.5" transform="matrix(-0.876088 -0.482151 -0.477876 0.878427 39.0623 559.587)" stroke="white"/>
<path d="M77.0451 583.252L110.105 601.375L143.166 583.252V547.05L110.105 528.926L77.0451 547.05V583.252Z" stroke="white"/>
<line x1="110.535" y1="601.321" x2="110.535" y2="565.151" stroke="white"/>
<line y1="-0.5" x2="37.5098" y2="-0.5" transform="matrix(0.876088 -0.482151 0.477876 0.878427 110.416 565.774)" stroke="white"/>
<line y1="-0.5" x2="37.5098" y2="-0.5" transform="matrix(-0.876088 -0.482151 -0.477876 0.878427 110.416 565.774)" stroke="white"/>
<path d="M170.542 348.151L203.603 366.275L236.663 348.151V311.949L203.603 293.826L170.542 311.949V348.151Z" stroke="white"/>
<line x1="204.033" y1="366.221" x2="204.033" y2="330.05" stroke="white"/>
<line y1="-0.5" x2="37.5098" y2="-0.5" transform="matrix(0.876088 -0.482151 0.477876 0.878427 203.913 330.674)" stroke="white"/>
<line y1="-0.5" x2="37.5098" y2="-0.5" transform="matrix(-0.876088 -0.482151 -0.477876 0.878427 203.913 330.674)" stroke="white"/>
<path d="M128.715 403.833L161.775 421.956L194.835 403.833V367.631L161.775 349.508L128.715 367.631V403.833Z" stroke="white"/>
<line x1="162.205" y1="421.903" x2="162.205" y2="385.732" stroke="white"/>
<line y1="-0.5" x2="37.5098" y2="-0.5" transform="matrix(0.876088 -0.482151 0.477876 0.878427 162.085 386.356)" stroke="white"/>
<line y1="-0.5" x2="37.5098" y2="-0.5" transform="matrix(-0.876088 -0.482151 -0.477876 0.878427 162.085 386.356)" stroke="white"/>
<path d="M200.068 410.02L233.128 428.143L266.189 410.02V373.818L233.128 355.695L200.068 373.818V410.02Z" stroke="white"/>
<line x1="233.558" y1="428.09" x2="233.558" y2="391.919" stroke="white"/>
<line y1="-0.5" x2="37.5098" y2="-0.5" transform="matrix(0.876088 -0.482151 0.477876 0.878427 233.438 392.542)" stroke="white"/>
<line y1="-0.5" x2="37.5098" y2="-0.5" transform="matrix(-0.876088 -0.482151 -0.477876 0.878427 233.438 392.542)" stroke="white"/>
<path d="M57.3614 398.884L90.4218 417.007L123.482 398.884V362.681L90.4218 344.558L57.3614 362.681V398.884Z" stroke="white"/>
<line x1="90.8518" y1="416.953" x2="90.8518" y2="380.783" stroke="white"/>
<line y1="-0.5" x2="37.5098" y2="-0.5" transform="matrix(0.876088 -0.482151 0.477876 0.878427 90.7319 381.406)" stroke="white"/>
<line y1="-0.5" x2="37.5098" y2="-0.5" transform="matrix(-0.876088 -0.482151 -0.477876 0.878427 90.7319 381.406)" stroke="white"/>
<path d="M15.5337 454.565L48.5941 472.688L81.6544 454.565V418.363L48.5941 400.24L15.5337 418.363V454.565Z" stroke="white"/>
<line x1="49.024" y1="472.635" x2="49.024" y2="436.464" stroke="white"/>
<line y1="-0.5" x2="37.5098" y2="-0.5" transform="matrix(0.876088 -0.482151 0.477876 0.878427 48.9041 437.088)" stroke="white"/>
<line y1="-0.5" x2="37.5098" y2="-0.5" transform="matrix(-0.876088 -0.482151 -0.477876 0.878427 48.9041 437.088)" stroke="white"/>
<path d="M86.8869 460.752L119.947 478.875L153.008 460.752V424.55L119.947 406.427L86.8869 424.55V460.752Z" stroke="white"/>
<line x1="120.377" y1="478.822" x2="120.377" y2="442.651" stroke="white"/>
<line y1="-0.5" x2="37.5098" y2="-0.5" transform="matrix(0.876088 -0.482151 0.477876 0.878427 120.257 443.275)" stroke="white"/>
<line y1="-0.5" x2="37.5098" y2="-0.5" transform="matrix(-0.876088 -0.482151 -0.477876 0.878427 120.257 443.275)" stroke="white"/>
<path d="M148.398 589.439L181.459 607.562L214.519 589.439V553.236L181.459 535.113L148.398 553.236V589.439Z" stroke="white"/>
<line x1="181.889" y1="607.508" x2="181.889" y2="571.338" stroke="white"/>
<line y1="-0.5" x2="37.5098" y2="-0.5" transform="matrix(0.876088 -0.482151 0.477876 0.878427 181.769 571.961)" stroke="white"/>
<line y1="-0.5" x2="37.5098" y2="-0.5" transform="matrix(-0.876088 -0.482151 -0.477876 0.878427 181.769 571.961)" stroke="white"/>
<path d="M106.571 645.12L139.631 663.243L172.691 645.12V608.918L139.631 590.794L106.571 608.918V645.12Z" stroke="white"/>
<line x1="140.061" y1="663.189" x2="140.061" y2="627.019" stroke="white"/>
<line y1="-0.5" x2="37.5098" y2="-0.5" transform="matrix(0.876088 -0.482151 0.477876 0.878427 139.941 627.643)" stroke="white"/>
<line y1="-0.5" x2="37.5098" y2="-0.5" transform="matrix(-0.876088 -0.482151 -0.477876 0.878427 139.941 627.643)" stroke="white"/>
<path d="M177.924 651.307L210.984 669.43L244.045 651.307V615.105L210.984 596.981L177.924 615.105V651.307Z" stroke="white"/>
<line x1="211.414" y1="669.376" x2="211.414" y2="633.206" stroke="white"/>
<line y1="-0.5" x2="37.5098" y2="-0.5" transform="matrix(0.876088 -0.482151 0.477876 0.878427 211.294 633.829)" stroke="white"/>
<line y1="-0.5" x2="37.5098" y2="-0.5" transform="matrix(-0.876088 -0.482151 -0.477876 0.878427 211.294 633.829)" stroke="white"/>
<path d="M451.035 489.211L484.095 507.335L517.155 489.211V453.009L484.095 434.886L451.035 453.009V489.211Z" stroke="white"/>
<line y1="-0.5" x2="37.5098" y2="-0.5" transform="matrix(-0.876088 -0.482151 -0.477876 0.878427 484.405 471.734)" stroke="white"/>
<path d="M264.04 538.706L297.1 556.829L330.161 538.706V502.504L297.1 484.381L264.04 502.504V538.706Z" stroke="white"/>
<line x1="297.53" y1="556.776" x2="297.53" y2="520.605" stroke="white"/>
<line y1="-0.5" x2="37.5098" y2="-0.5" transform="matrix(0.876088 -0.482151 0.477876 0.878427 297.41 521.229)" stroke="white"/>
<line y1="-0.5" x2="37.5098" y2="-0.5" transform="matrix(-0.876088 -0.482151 -0.477876 0.878427 297.41 521.229)" stroke="white"/>
<path d="M222.212 594.388L255.272 612.511L288.333 594.388V558.186L255.272 540.063L222.212 558.186V594.388Z" stroke="white"/>
<line x1="255.702" y1="612.458" x2="255.702" y2="576.287" stroke="white"/>
<line y1="-0.5" x2="37.5098" y2="-0.5" transform="matrix(0.876088 -0.482151 0.477876 0.878427 255.583 576.911)" stroke="white"/>
<line y1="-0.5" x2="37.5098" y2="-0.5" transform="matrix(-0.876088 -0.482151 -0.477876 0.878427 255.583 576.911)" stroke="white"/>
<path d="M293.565 600.575L326.626 618.698L359.686 600.575V564.373L326.626 546.25L293.565 564.373V600.575Z" stroke="white"/>
<line x1="327.056" y1="618.645" x2="327.056" y2="582.474" stroke="white"/>
<line y1="-0.5" x2="37.5098" y2="-0.5" transform="matrix(0.876088 -0.482151 0.477876 0.878427 326.936 583.097)" stroke="white"/>
<line y1="-0.5" x2="37.5098" y2="-0.5" transform="matrix(-0.876088 -0.482151 -0.477876 0.878427 326.936 583.097)" stroke="white"/>
<path d="M377.221 484.262L410.281 502.385L443.342 484.262V448.06L410.281 429.937L377.221 448.06V484.262Z" stroke="white"/>
<line x1="410.711" y1="502.332" x2="410.711" y2="466.161" stroke="white"/>
<line y1="-0.5" x2="37.5098" y2="-0.5" transform="matrix(0.876088 -0.482151 0.477876 0.878427 410.591 466.784)" stroke="white"/>
<line y1="-0.5" x2="37.5098" y2="-0.5" transform="matrix(-0.876088 -0.482151 -0.477876 0.878427 410.591 466.784)" stroke="white"/>
<path d="M335.393 539.943L368.453 558.067L401.514 539.943V503.741L368.453 485.618L335.393 503.741V539.943Z" stroke="white"/>
<line x1="368.883" y1="558.013" x2="368.883" y2="521.843" stroke="white"/>
<line y1="-0.5" x2="37.5098" y2="-0.5" transform="matrix(0.876088 -0.482151 0.477876 0.878427 368.763 522.466)" stroke="white"/>
<line y1="-0.5" x2="37.5098" y2="-0.5" transform="matrix(-0.876088 -0.482151 -0.477876 0.878427 368.763 522.466)" stroke="white"/>
<path d="M406.746 546.13L439.807 564.253L472.867 546.13V509.928L439.807 491.805L406.746 509.928V546.13Z" stroke="white"/>
<line x1="440.237" y1="564.2" x2="440.237" y2="528.029" stroke="white"/>
<line y1="-0.5" x2="37.5098" y2="-0.5" transform="matrix(0.876088 -0.482151 0.477876 0.878427 440.117 528.653)" stroke="white"/>
<line y1="-0.5" x2="37.5098" y2="-0.5" transform="matrix(-0.876088 -0.482151 -0.477876 0.878427 440.117 528.653)" stroke="white"/>
<path d="M389.523 365.475L422.583 383.598L455.644 365.475V329.273L422.583 311.149L389.523 329.273V365.475Z" stroke="white"/>
<line x1="423.013" y1="383.544" x2="423.013" y2="347.374" stroke="white"/>
<line y1="-0.5" x2="37.5098" y2="-0.5" transform="matrix(0.876088 -0.482151 0.477876 0.878427 422.894 347.997)" stroke="white"/>
<line y1="-0.5" x2="37.5098" y2="-0.5" transform="matrix(-0.876088 -0.482151 -0.477876 0.878427 422.894 347.997)" stroke="white"/>
<path d="M347.695 421.156L380.756 439.279L413.816 421.156V384.954L380.756 366.831L347.695 384.954V421.156Z" stroke="white"/>
<line x1="381.186" y1="439.226" x2="381.186" y2="403.055" stroke="white"/>
<line y1="-0.5" x2="37.5098" y2="-0.5" transform="matrix(0.876088 -0.482151 0.477876 0.878427 381.066 403.679)" stroke="white"/>
<line y1="-0.5" x2="37.5098" y2="-0.5" transform="matrix(-0.876088 -0.482151 -0.477876 0.878427 381.066 403.679)" stroke="white"/>
<path d="M419.049 427.343L452.109 445.466L485.169 427.343V391.141L452.109 373.018L419.049 391.141V427.343Z" stroke="white"/>
<line x1="452.539" y1="445.413" x2="452.539" y2="409.242" stroke="white"/>
<line y1="-0.5" x2="37.5098" y2="-0.5" transform="matrix(0.876088 -0.482151 0.477876 0.878427 452.419 409.866)" stroke="white"/>
<line y1="-0.5" x2="37.5098" y2="-0.5" transform="matrix(-0.876088 -0.482151 -0.477876 0.878427 452.419 409.866)" stroke="white"/>
<path d="M276.342 416.207L309.402 434.33L342.463 416.207V380.004L309.402 361.881L276.342 380.004V416.207Z" stroke="white"/>
<line x1="309.833" y1="434.276" x2="309.833" y2="398.106" stroke="white"/>
<line y1="-0.5" x2="37.5098" y2="-0.5" transform="matrix(0.876088 -0.482151 0.477876 0.878427 309.713 398.729)" stroke="white"/>
<line y1="-0.5" x2="37.5098" y2="-0.5" transform="matrix(-0.876088 -0.482151 -0.477876 0.878427 309.713 398.729)" stroke="white"/>
<path d="M234.514 471.888L267.575 490.011L300.635 471.888V435.686L267.575 417.563L234.514 435.686V471.888Z" stroke="white"/>
<line x1="268.005" y1="489.958" x2="268.005" y2="453.787" stroke="white"/>
<line y1="-0.5" x2="37.5098" y2="-0.5" transform="matrix(0.876088 -0.482151 0.477876 0.878427 267.885 454.411)" stroke="white"/>
<line y1="-0.5" x2="37.5098" y2="-0.5" transform="matrix(-0.876088 -0.482151 -0.477876 0.878427 267.885 454.411)" stroke="white"/>
<path d="M305.868 478.075L338.928 496.198L371.988 478.075V441.873L338.928 423.75L305.868 441.873V478.075Z" stroke="white"/>
<line x1="339.358" y1="496.145" x2="339.358" y2="459.974" stroke="white"/>
<line y1="-0.5" x2="37.5098" y2="-0.5" transform="matrix(0.876088 -0.482151 0.477876 0.878427 339.238 460.598)" stroke="white"/>
<line y1="-0.5" x2="37.5098" y2="-0.5" transform="matrix(-0.876088 -0.482151 -0.477876 0.878427 339.238 460.598)" stroke="white"/>
<path d="M160.701 470.651L193.761 488.774L226.821 470.651V434.449L193.761 416.326L160.701 434.449V470.651Z" stroke="white"/>
<line x1="194.191" y1="488.721" x2="194.191" y2="452.55" stroke="white"/>
<line y1="-0.5" x2="37.5098" y2="-0.5" transform="matrix(0.876088 -0.482151 0.477876 0.878427 194.071 453.174)" stroke="white"/>
<line y1="-0.5" x2="37.5098" y2="-0.5" transform="matrix(-0.876088 -0.482151 -0.477876 0.878427 194.071 453.174)" stroke="white"/>
<path d="M118.873 526.332L151.933 544.455L184.994 526.332V490.13L151.933 472.007L118.873 490.13V526.332Z" stroke="white"/>
<line x1="152.363" y1="544.402" x2="152.363" y2="508.232" stroke="white"/>
<line y1="-0.5" x2="37.5098" y2="-0.5" transform="matrix(0.876088 -0.482151 0.477876 0.878427 152.243 508.855)" stroke="white"/>
<line y1="-0.5" x2="37.5098" y2="-0.5" transform="matrix(-0.876088 -0.482151 -0.477876 0.878427 152.243 508.855)" stroke="white"/>
<path d="M190.226 532.519L223.286 550.642L256.347 532.519V496.317L223.286 478.194L190.226 496.317V532.519Z" stroke="white"/>
<line x1="223.716" y1="550.589" x2="223.716" y2="514.418" stroke="white"/>
<line y1="-0.5" x2="37.5098" y2="-0.5" transform="matrix(0.876088 -0.482151 0.477876 0.878427 223.597 515.042)" stroke="white"/>
<line y1="-0.5" x2="37.5098" y2="-0.5" transform="matrix(-0.876088 -0.482151 -0.477876 0.878427 223.597 515.042)" stroke="white"/>
<path d="M47.5196 521.383L80.58 539.506L113.64 521.383V485.181L80.58 467.058L47.5196 485.181V521.383Z" stroke="white"/>
<line x1="81.0099" y1="539.453" x2="81.0099" y2="503.282" stroke="white"/>
<line y1="-0.5" x2="37.5098" y2="-0.5" transform="matrix(0.876088 -0.482151 0.477876 0.878427 80.8901 503.906)" stroke="white"/>
<line y1="-0.5" x2="37.5098" y2="-0.5" transform="matrix(-0.876088 -0.482151 -0.477876 0.878427 80.8901 503.906)" stroke="white"/>
<path d="M5.69181 577.065L38.7522 595.188L71.8126 577.065V540.863L38.7522 522.74L5.69181 540.863V577.065Z" stroke="white"/>
<line x1="39.1822" y1="595.135" x2="39.1822" y2="558.964" stroke="white"/>
<line y1="-0.5" x2="37.5098" y2="-0.5" transform="matrix(0.876088 -0.482151 0.477876 0.878427 39.0623 559.587)" stroke="white"/>
<line y1="-0.5" x2="37.5098" y2="-0.5" transform="matrix(-0.876088 -0.482151 -0.477876 0.878427 39.0623 559.587)" stroke="white"/>
<path d="M77.0451 583.252L110.105 601.375L143.166 583.252V547.05L110.105 528.926L77.0451 547.05V583.252Z" stroke="white"/>
<line x1="110.535" y1="601.321" x2="110.535" y2="565.151" stroke="white"/>
<line y1="-0.5" x2="37.5098" y2="-0.5" transform="matrix(0.876088 -0.482151 0.477876 0.878427 110.416 565.774)" stroke="white"/>
<line y1="-0.5" x2="37.5098" y2="-0.5" transform="matrix(-0.876088 -0.482151 -0.477876 0.878427 110.416 565.774)" stroke="white"/>
<path d="M170.542 348.151L203.603 366.275L236.663 348.151V311.949L203.603 293.826L170.542 311.949V348.151Z" stroke="white"/>
<line x1="204.033" y1="366.221" x2="204.033" y2="330.05" stroke="white"/>
<line y1="-0.5" x2="37.5098" y2="-0.5" transform="matrix(0.876088 -0.482151 0.477876 0.878427 203.913 330.674)" stroke="white"/>
<line y1="-0.5" x2="37.5098" y2="-0.5" transform="matrix(-0.876088 -0.482151 -0.477876 0.878427 203.913 330.674)" stroke="white"/>
<path d="M128.715 403.833L161.775 421.956L194.835 403.833V367.631L161.775 349.508L128.715 367.631V403.833Z" stroke="white"/>
<line x1="162.205" y1="421.903" x2="162.205" y2="385.732" stroke="white"/>
<line y1="-0.5" x2="37.5098" y2="-0.5" transform="matrix(0.876088 -0.482151 0.477876 0.878427 162.085 386.356)" stroke="white"/>
<line y1="-0.5" x2="37.5098" y2="-0.5" transform="matrix(-0.876088 -0.482151 -0.477876 0.878427 162.085 386.356)" stroke="white"/>
<path d="M200.068 410.02L233.128 428.143L266.189 410.02V373.818L233.128 355.695L200.068 373.818V410.02Z" stroke="white"/>
<line x1="233.558" y1="428.09" x2="233.558" y2="391.919" stroke="white"/>
<line y1="-0.5" x2="37.5098" y2="-0.5" transform="matrix(0.876088 -0.482151 0.477876 0.878427 233.438 392.542)" stroke="white"/>
<line y1="-0.5" x2="37.5098" y2="-0.5" transform="matrix(-0.876088 -0.482151 -0.477876 0.878427 233.438 392.542)" stroke="white"/>
<path d="M57.3614 398.884L90.4218 417.007L123.482 398.884V362.681L90.4218 344.558L57.3614 362.681V398.884Z" stroke="white"/>
<line x1="90.8518" y1="416.953" x2="90.8518" y2="380.783" stroke="white"/>
<line y1="-0.5" x2="37.5098" y2="-0.5" transform="matrix(0.876088 -0.482151 0.477876 0.878427 90.7319 381.406)" stroke="white"/>
<line y1="-0.5" x2="37.5098" y2="-0.5" transform="matrix(-0.876088 -0.482151 -0.477876 0.878427 90.7319 381.406)" stroke="white"/>
<path d="M15.5337 454.565L48.5941 472.688L81.6544 454.565V418.363L48.5941 400.24L15.5337 418.363V454.565Z" stroke="white"/>
<line x1="49.024" y1="472.635" x2="49.024" y2="436.464" stroke="white"/>
<line y1="-0.5" x2="37.5098" y2="-0.5" transform="matrix(0.876088 -0.482151 0.477876 0.878427 48.9041 437.088)" stroke="white"/>
<line y1="-0.5" x2="37.5098" y2="-0.5" transform="matrix(-0.876088 -0.482151 -0.477876 0.878427 48.9041 437.088)" stroke="white"/>
<path d="M86.8869 460.752L119.947 478.875L153.008 460.752V424.55L119.947 406.427L86.8869 424.55V460.752Z" stroke="white"/>
<line x1="120.377" y1="478.822" x2="120.377" y2="442.651" stroke="white"/>
<line y1="-0.5" x2="37.5098" y2="-0.5" transform="matrix(0.876088 -0.482151 0.477876 0.878427 120.257 443.275)" stroke="white"/>
<line y1="-0.5" x2="37.5098" y2="-0.5" transform="matrix(-0.876088 -0.482151 -0.477876 0.878427 120.257 443.275)" stroke="white"/>
<path d="M148.398 589.439L181.459 607.562L214.519 589.439V553.236L181.459 535.113L148.398 553.236V589.439Z" stroke="white"/>
<line x1="181.889" y1="607.508" x2="181.889" y2="571.338" stroke="white"/>
<line y1="-0.5" x2="37.5098" y2="-0.5" transform="matrix(0.876088 -0.482151 0.477876 0.878427 181.769 571.961)" stroke="white"/>
<line y1="-0.5" x2="37.5098" y2="-0.5" transform="matrix(-0.876088 -0.482151 -0.477876 0.878427 181.769 571.961)" stroke="white"/>
<path d="M106.571 645.12L139.631 663.243L172.691 645.12V608.918L139.631 590.794L106.571 608.918V645.12Z" stroke="white"/>
<line x1="140.061" y1="663.189" x2="140.061" y2="627.019" stroke="white"/>
<line y1="-0.5" x2="37.5098" y2="-0.5" transform="matrix(0.876088 -0.482151 0.477876 0.878427 139.941 627.643)" stroke="white"/>
<line y1="-0.5" x2="37.5098" y2="-0.5" transform="matrix(-0.876088 -0.482151 -0.477876 0.878427 139.941 627.643)" stroke="white"/>
<path d="M177.924 651.307L210.984 669.43L244.045 651.307V615.105L210.984 596.981L177.924 615.105V651.307Z" stroke="white"/>
<line x1="211.414" y1="669.376" x2="211.414" y2="633.206" stroke="white"/>
<line y1="-0.5" x2="37.5098" y2="-0.5" transform="matrix(0.876088 -0.482151 0.477876 0.878427 211.294 633.829)" stroke="white"/>
<line y1="-0.5" x2="37.5098" y2="-0.5" transform="matrix(-0.876088 -0.482151 -0.477876 0.878427 211.294 633.829)" stroke="white"/>
<path d="M451.035 489.211L484.095 507.335L517.155 489.211V453.009L484.095 434.886L451.035 453.009V489.211Z" stroke="white"/>
<line y1="-0.5" x2="37.5098" y2="-0.5" transform="matrix(-0.876088 -0.482151 -0.477876 0.878427 484.405 471.734)" stroke="white"/>
<path d="M264.04 538.706L297.1 556.829L330.161 538.706V502.504L297.1 484.381L264.04 502.504V538.706Z" stroke="white"/>
<line x1="297.53" y1="556.776" x2="297.53" y2="520.605" stroke="white"/>
<line y1="-0.5" x2="37.5098" y2="-0.5" transform="matrix(0.876088 -0.482151 0.477876 0.878427 297.41 521.229)" stroke="white"/>
<line y1="-0.5" x2="37.5098" y2="-0.5" transform="matrix(-0.876088 -0.482151 -0.477876 0.878427 297.41 521.229)" stroke="white"/>
<path d="M222.212 594.388L255.272 612.511L288.333 594.388V558.186L255.272 540.063L222.212 558.186V594.388Z" stroke="white"/>
<line x1="255.702" y1="612.458" x2="255.702" y2="576.287" stroke="white"/>
<line y1="-0.5" x2="37.5098" y2="-0.5" transform="matrix(0.876088 -0.482151 0.477876 0.878427 255.583 576.911)" stroke="white"/>
<line y1="-0.5" x2="37.5098" y2="-0.5" transform="matrix(-0.876088 -0.482151 -0.477876 0.878427 255.583 576.911)" stroke="white"/>
<path d="M293.565 600.575L326.626 618.698L359.686 600.575V564.373L326.626 546.25L293.565 564.373V600.575Z" stroke="white"/>
<line x1="327.056" y1="618.645" x2="327.056" y2="582.474" stroke="white"/>
<line y1="-0.5" x2="37.5098" y2="-0.5" transform="matrix(0.876088 -0.482151 0.477876 0.878427 326.936 583.097)" stroke="white"/>
<line y1="-0.5" x2="37.5098" y2="-0.5" transform="matrix(-0.876088 -0.482151 -0.477876 0.878427 326.936 583.097)" stroke="white"/>
<path d="M109.031 223.177L142.091 241.3L175.152 223.177V186.975L142.091 168.852L109.031 186.975V223.177Z" stroke="white"/>
<line x1="142.521" y1="241.247" x2="142.521" y2="205.076" stroke="white"/>
<line y1="-0.5" x2="37.5098" y2="-0.5" transform="matrix(0.876088 -0.482151 0.477876 0.878427 142.401 205.7)" stroke="white"/>
<line y1="-0.5" x2="37.5098" y2="-0.5" transform="matrix(-0.876088 -0.482151 -0.477876 0.878427 142.401 205.7)" stroke="white"/>
<path d="M96.7287 340.727L129.789 358.85L162.849 340.727V304.525L129.789 286.402L96.7287 304.525V340.727Z" stroke="white"/>
<line x1="130.219" y1="358.797" x2="130.219" y2="322.626" stroke="white"/>
<line y1="-0.5" x2="37.5098" y2="-0.5" transform="matrix(0.876088 -0.482151 0.477876 0.878427 130.099 323.25)" stroke="white"/>
<line y1="-0.5" x2="37.5098" y2="-0.5" transform="matrix(-0.876088 -0.482151 -0.477876 0.878427 130.099 323.25)" stroke="white"/>
</svg>
