<?xml version="1.0" encoding="utf-8"?>
<!-- Generator: Adobe Illustrator 27.9.0, SVG Export Plug-In . SVG Version: 6.00 Build 0)  -->
<svg version="1.1" id="Слой_1" xmlns="http://www.w3.org/2000/svg" xmlns:xlink="http://www.w3.org/1999/xlink" x="0px" y="0px"
	 viewBox="0 0 1440 900" style="enable-background:new 0 0 1440 900;" xml:space="preserve">
<style type="text/css">
	.st0{fill:#F9F9F9;}
	.st1{fill:#F9F7F7;}
	.st2{fill:#020202;}
</style>
<g>
	<path d="M543,334c0,0,183.4,143.4,149.5,399.7c0,0,203.7-215.3,114.5-444.7l-84,25l-36.1,107.3L612.4,341L543,334z"/>
	<path class="st0" d="M566,338c0,0,161,123,131,356c0,0,183-183.5,104-392l-72,26l-37,82l-66-73L566,338z"/>
	<path d="M799.9,740H623.1c-9.5,0-17.1-7.7-17.1-17.1v-68.8c0-9.5,7.7-17.1,17.1-17.1h176.8c9.5,0,17.1,7.7,17.1,17.1v68.8
		C817,732.3,809.3,740,799.9,740z"/>
	<path class="st1" d="M778.7,729.6H645.1c-9.5,0-17.1-7.7-17.1-17.1v-47.7c0-9.5,7.7-17.1,17.1-17.1h133.6c9.5,0,17.1,7.7,17.1,17.1
		v47.7C795.8,722,788.2,729.6,778.7,729.6z"/>
	<path class="st2" d="M736.9,148.3l0.6,72.2c0,4.3,2.2,8.3,5.7,10.7l59.8,40.4c8.9,6,7.1,19.7-3.2,23.1l-68.5,22.9
		c-4.1,1.4-7.2,4.6-8.4,8.7l-20,69.4c-3,10.4-16.6,12.8-23,4.1l-42.9-58.1c-2.5-3.4-6.6-5.4-10.9-5.3l-72.2,2.5
		c-10.8,0.4-17.3-11.8-11-20.6l42-58.8c2.5-3.5,3.1-8,1.6-12L562,179.8c-3.7-10.1,5.9-20.1,16.1-16.8l68.9,21.7
		c4.1,1.3,8.5,0.5,11.9-2.1l56.9-44.4C724.4,131.5,736.8,137.5,736.9,148.3z"/>
	<path class="st0" d="M727,170.1l0.5,61.5c0,3.6,1.9,7,4.9,9.1l51,34.5c7.6,5.1,6,16.8-2.7,19.7l-58.4,19.5
		c-3.5,1.2-6.1,3.9-7.1,7.4l-17,59.1c-2.5,8.8-14.1,10.9-19.6,3.5L642,335c-2.2-2.9-5.6-4.6-9.3-4.5l-61.5,2.1
		c-9.2,0.3-14.7-10-9.4-17.5l35.7-50.1c2.1-3,2.6-6.8,1.4-10.2l-21-57.8c-3.1-8.6,5-17.1,13.8-14.4l58.7,18.5
		c3.5,1.1,7.3,0.4,10.2-1.8l48.5-37.8C716.3,155.8,726.9,160.9,727,170.1z"/>
</g>
</svg>
