<?xml version="1.0" encoding="utf-8"?>
<!-- Generator: Adobe Illustrator 27.9.0, SVG Export Plug-In . SVG Version: 6.00 Build 0)  -->
<svg version="1.1" id="Слой_1" xmlns="http://www.w3.org/2000/svg" xmlns:xlink="http://www.w3.org/1999/xlink" x="0px" y="0px"
	 viewBox="0 0 1440 900" style="enable-background:new 0 0 1440 900;" xml:space="preserve">
<style type="text/css">
	.st0{fill:#050505;}
	.st1{fill:#070707;}
	.st2{fill:#FFFFFF;}
	.st3{fill:#FFFFFF;stroke:#000000;stroke-miterlimit:10;}
</style>
<circle class="st0" cx="753" cy="251" r="153"/>
<path class="st0" d="M753,604c0,0,74-48,91-53s97.5-40,106-40c9,0,9-10,9-10l-10-9c0,0-43.7-31.4-53-35c-13-5-41-21-66-26
	s-76-13-76-13l-64,8l-44,11l-56,29l-26,21l-16.8,10.9l3,12l9.8,0.1l46,15l28,11l36,19l39,23l33,19L753,604z"/>
<path class="st1" d="M479,527.9c0,0,114.5-17.4,274.1,104.3V900c0,0-155.6-101.2-274.1-106.4V538.6V527.9z"/>
<path class="st0" d="M1027.6,528c0,0-114.5-17.4-274.1,104.3v267.9c0,0,155.6-101.2,274.1-106.4V538.7V528z"/>
<g>
	<path class="st2" d="M736.5,853.1c-64.8-43.1-123.9-63.8-162.1-73.6c-38.5-9.8-64.1-10.9-67.9-11V554.3c2.4-0.2,5-0.3,7.6-0.3
		c79,0,215.8,80.6,222.4,84.6V853.1z"/>
	<path d="M514.1,554.6c42,0,100.2,23,141.6,42.3c42.1,19.6,75.9,39.5,80.3,42.1v213.2c-64.6-42.8-123.4-63.4-161.5-73.1
		c-37.1-9.5-62.3-10.8-67.5-11V554.8C509.3,554.6,511.6,554.6,514.1,554.6 M514.1,553.6c-2.8,0-5.5,0.1-8.1,0.3V769
		c0,0,105,1,231,85V638.4C737,638.4,595.7,553.6,514.1,553.6L514.1,553.6z"/>
</g>
<ellipse class="st0" cx="479" cy="663.5" rx="57" ry="68.5"/>
<g>
	<path class="st2" d="M768.5,639.2c6.7-4,143.4-84.6,222.4-84.6c2.6,0,5.1,0.1,7.6,0.3V769c-3.8,0.1-29.4,1.2-67.9,11
		c-38.2,9.8-97.3,30.5-162.1,73.6V639.2z"/>
	<path d="M990.9,554.1v1h0c2.4,0,4.8,0.1,7.1,0.2v213.2c-5.2,0.2-30.4,1.5-67.5,11c-38.1,9.7-96.9,30.3-161.5,73.1V639.5
		c4.4-2.6,38.2-22.5,80.3-42.1c41.4-19.3,99.7-42.3,141.6-42.3L990.9,554.1 M990.9,554.1c-81.6,0-222.9,84.8-222.9,84.8v215.6
		c126-84,231-85,231-85V554.4C996.4,554.2,993.7,554.1,990.9,554.1L990.9,554.1z"/>
</g>
<ellipse class="st0" cx="1025" cy="663.5" rx="57" ry="68.5"/>
<path class="st0" d="M815,673.2v36.7c0,6.3,6.3,10.8,12.3,8.6c31.2-11.3,111.6-40.2,119.1-39.4c10.7,1.1,5.1-20.6,2.8-42.9
	c-1.3-13-13.5-22.1-26.3-19.7c-28.6,5.4-76,16.7-98.2,35.5C818.4,657.2,815,665,815,673.2z"/>
<path class="st3" d="M637.5,726.5"/>
</svg>
