<svg width="442" height="442" viewBox="0 0 442 442" fill="none" xmlns="http://www.w3.org/2000/svg">
<g clip-path="url(#clip0_1_15)">
<path d="M142.508 158.907V228.518C142.508 230.182 143.829 231.502 145.495 231.502H328.786C330.394 231.502 331.658 230.24 331.658 228.633V159.021C331.658 157.357 330.337 156.037 328.671 156.037H145.38C143.772 156.037 142.508 157.3 142.508 158.907Z" fill="#1898AB" stroke="#1898AB" stroke-width="2.70532" stroke-miterlimit="10"/>
<path d="M140.498 241.373L86.849 278.273C85.4131 279.306 86.1023 281.544 87.883 281.544H261.811C263.304 281.544 264.798 281.142 266.062 280.339L331.428 240.971C331.83 240.742 331.658 240.11 331.198 240.11H144.346C142.968 240.11 141.647 240.512 140.555 241.315L140.498 241.373Z" fill="#1E6EAB" stroke="#1E6EAB" stroke-width="2.70532" stroke-miterlimit="10"/>
<path d="M78.348 291.931V364.01C78.348 364.928 79.0947 365.732 80.0138 365.732H261.294C262.213 365.732 262.96 364.986 262.96 364.01V291.931C262.96 291.013 262.213 290.21 261.294 290.21H80.0138C79.0947 290.21 78.348 290.956 78.348 291.931Z" fill="#1898AB" stroke="#1898AB" stroke-width="2.70532" stroke-miterlimit="10"/>
<path d="M69.5596 376.578L17.8637 412.159C15.7959 413.593 16.8298 416.75 19.2997 416.75H191.39C192.538 416.75 193.687 416.405 194.721 415.831L260.547 376.177C260.949 375.947 260.777 375.316 260.318 375.316H73.4081C72.0295 375.316 70.651 375.717 69.5022 376.521L69.5596 376.578Z" fill="#1E6EAB" stroke="#1E6EAB" stroke-width="2.70532" stroke-miterlimit="10"/>
<path d="M120.394 395.114L126.712 196.496L203.452 259.966L226.945 82.6384L296.734 121.146L300.755 24.5046L285.476 18.4789L312.014 7.40311L322.755 30.8747L311.037 27.4314L305.753 132.508C305.638 134.517 303.398 135.722 301.674 134.689L229.357 90.9596L209.885 265.189C209.656 267.369 207.071 268.46 205.348 267.14L129.125 208.662L120.337 395.172L120.394 395.114Z" fill="#4C4272" stroke="#4C4272" stroke-width="2.70532" stroke-miterlimit="10"/>
<path d="M117.694 395.114L122.117 192.88C122.117 190.585 124.874 189.38 126.597 190.872L197.076 250.957C198.742 252.334 201.269 251.358 201.557 249.235L223.843 80.802C224.073 78.9083 226.198 77.8179 227.864 78.7935L290.301 113.226C292.082 114.202 294.265 112.997 294.322 110.931L298.056 21.0041C298.056 19.6842 297.194 18.479 295.873 18.1921L285.993 16.5278L306.729 3.15651C308.108 2.29569 309.946 2.81218 310.635 4.36165L321.549 28.1202L311.726 22.5535C310.061 22.0371 308.337 23.2996 308.222 25.0212L303.11 126.54C302.995 128.606 300.755 129.811 298.975 128.721L230.391 87.2295C228.668 86.1965 226.485 87.2295 226.256 89.238L207.243 259.45C207.013 261.573 204.543 262.606 202.878 261.286L130.676 205.85C128.953 204.53 126.368 205.678 126.31 207.858L117.637 394.885L117.694 395.114Z" fill="#7D6DAC" stroke="#7D6DAC" stroke-width="2.70532" stroke-miterlimit="10"/>
<path d="M52.9022 194.143H25.7905V244.472H52.9022V194.143Z" fill="#1E6EAB"/>
<path d="M83.8622 194.143H56.7506V244.472H83.8622V194.143Z" fill="#1E6EAB"/>
<path d="M92.7654 237.872L86.1024 244.472L86.1599 194.143L93.1101 189.15L92.7654 237.872Z" fill="#1E6EAB"/>
<path d="M100.233 182.895L45.8946 182.321L26.365 191.847" fill="#1E6EAB"/>
<path d="M26.0778 192.651H83.3453L100.233 183.411" fill="#1E6EAB"/>
<path d="M101.094 229.895L94.4313 236.208L94.4887 188.174L101.439 183.411L101.094 229.895Z" fill="#1E6EAB"/>
<path d="M47.5028 212.966C47.5028 212.966 47.9623 212.851 48.2495 212.564C49.0537 211.761 49.4558 210.9 49.5706 210.785C50.3174 209.408 52.6724 208.662 54.5105 208.949C55.7742 209.178 57.6122 209.982 58.3589 211.416C58.5313 211.761 58.761 212.392 59.1057 212.335C59.4503 212.335 59.6801 211.531 59.7375 211.416C60.2545 209.637 65.3092 203.325 72.202 199.939C76.2802 197.93 80.0138 196.094 82.7135 197.701C87.9979 200.8 84.8962 214.343 84.092 215.319C84.092 215.376 83.6899 215.72 83.6899 216.179C83.6899 216.639 83.9771 216.983 84.0346 217.04C84.9536 218.245 82.9432 238.044 73.1784 239.249C71.3404 239.479 69.9618 238.962 68.8705 238.561C63.2413 236.552 59.5652 230.239 59.4503 225.476C59.4503 225.476 59.4503 223.066 59.278 223.066C59.1631 223.066 59.3354 224.501 58.4738 225.534C58.2441 225.821 57.9569 225.993 57.4399 226.337C57.2676 226.452 56.4634 227.026 55.7742 227.255C54.5679 227.714 52.9596 227.6 51.6959 226.968C49.743 225.993 49.3983 224.042 48.5367 224.214C47.9623 224.329 47.6751 225.304 47.6177 225.648C46.354 229.953 43.1948 234.945 41.0121 237.298C39.5187 238.905 38.1401 240.397 36.2446 240.397C34.2342 240.397 32.4536 237.929 29.0072 233.051C24.6992 226.911 24.1822 224.673 24.9289 223.525C25.3885 222.836 26.5372 222.263 26.3649 221.631C26.2501 221.23 25.6756 221.115 25.5608 221.115C24.1248 220.713 22.4016 217.499 21.7697 213.023C21.1953 208.604 20.1614 201.029 24.5843 198.16C29.0072 195.348 35.6702 199.193 37.2785 200.111C37.2785 200.111 41.1844 202.406 45.435 208.547C46.5838 210.269 47.2156 211.129 47.273 211.933C47.273 212.162 47.273 212.794 47.6177 212.851L47.5028 212.966Z" fill="#163670"/>
<path d="M58.2442 218.016C58.2442 221.574 56.0614 224.443 53.3618 224.443C50.6621 224.443 48.4794 221.574 48.4794 218.016C48.4794 214.458 50.6621 211.589 53.3618 211.589C56.0614 211.589 58.2442 214.458 58.2442 218.016Z" fill="#1898AB"/>
<path d="M61.4033 213.941C61.6905 213.081 62.2075 211.933 62.8968 210.67C63.4137 209.752 65.0795 206.998 68.5259 204.071C69.7896 203.038 75.8782 197.988 80.1862 199.25C80.2436 199.25 80.3011 199.25 80.4159 199.308C82.9433 200.341 84.609 205.792 83.0007 209.465C82.254 211.129 80.3011 213.712 81.1052 215.147C81.1626 215.261 81.335 215.491 81.5647 215.95C81.5647 215.95 82.0817 216.983 82.4263 218.131C82.771 219.336 83.4028 225.878 78.3481 232.42C76.2803 235.117 75.3038 236.437 73.5806 236.724C68.1812 237.643 61.9777 227.887 61.8054 223.41C61.8054 223.009 61.748 219.508 61.748 219.508L68.5259 216.753C68.1812 216.237 67.1473 214.86 65.1944 214.171C63.4712 213.54 62.0352 213.769 61.4033 213.884V213.941Z" fill="#1898AB"/>
<path d="M46.6413 215.433C46.469 214.86 46.1818 213.941 45.6649 212.908C45.033 211.531 43.8268 209.408 37.9679 203.841C35.1534 201.201 34.4641 200.8 33.6025 200.455C30.7305 199.48 28.0308 200.341 28.0308 200.341C27.9159 200.341 27.8585 200.341 27.801 200.398C26.1353 200.972 24.2398 202.062 23.2633 203.153C21.4827 205.276 22.2294 208.604 22.8612 211.589C22.9761 212.048 23.3782 213.827 24.4695 216.122C25.7332 218.705 27.2266 220.656 28.318 221.861C28.2606 222.033 28.0882 222.263 27.9734 222.55C27.2841 223.984 26.7671 225.821 26.7671 226.854C26.7671 228.403 27.9159 228.977 32.2239 232.994C35.7852 236.323 36.0724 236.896 37.1063 236.896C39.4039 236.896 41.1271 233.625 42.9077 230.24C44.0565 228.059 45.4351 224.845 46.4116 220.656L39.6337 217.901C39.8634 217.499 40.8973 215.893 42.9652 215.319C44.6884 214.802 46.1818 215.319 46.6413 215.491V215.433Z" fill="#1898AB"/>
<path d="M106.436 176.984C106.206 175.205 105.575 172.507 103.794 169.81C99.888 163.727 93.5122 162.005 91.8464 161.604C93.4548 161.374 98.5095 160.399 102.645 155.98C105.919 152.537 106.896 148.692 107.24 147.027C107.585 148.864 108.447 152.135 110.916 155.406C114.822 160.456 120.049 161.948 121.83 162.407C119.475 163.211 114.765 165.104 110.802 169.753C108.504 172.393 107.183 175.09 106.436 176.984Z" fill="#F19112"/>
<path d="M117.58 185.592C117.465 184.674 117.12 183.354 116.258 181.976C114.305 178.935 111.089 178.074 110.285 177.902C111.089 177.787 113.616 177.328 115.684 175.09C117.292 173.368 117.809 171.475 117.982 170.614C118.154 171.532 118.556 173.196 119.82 174.803C121.773 177.328 124.415 178.074 125.276 178.304C124.07 178.705 121.715 179.681 119.762 181.976C118.613 183.296 117.982 184.616 117.58 185.592Z" fill="#F19112"/>
<path d="M15.7385 268.747C15.5088 266.968 14.8769 264.27 13.0963 261.573C9.19039 255.49 2.81456 253.768 1.1488 253.367C2.75712 253.137 7.81183 252.162 11.9475 247.743C15.2216 244.299 16.1981 240.454 16.5427 238.79C16.8873 240.627 17.7489 243.898 20.2188 247.169C24.1248 252.219 29.3518 253.711 31.1324 254.17C28.7774 254.974 24.0673 256.867 20.104 261.516C17.8064 264.156 16.4853 266.853 15.7385 268.747Z" fill="#F19112"/>
<path d="M6.83535 243.955C6.72047 243.094 6.43327 241.832 5.62911 240.569C3.79103 237.7 0.804159 236.896 0 236.724C0.746719 236.61 3.15919 236.15 5.05471 234.085C6.60559 232.478 7.06511 230.641 7.23743 229.895C7.40975 230.756 7.81183 232.305 8.96062 233.855C10.7987 236.208 13.2686 236.954 14.0728 237.126C12.9814 237.47 10.7413 238.389 8.90318 240.569C7.81183 241.832 7.23743 243.094 6.83535 243.955Z" fill="#F19112"/>
<path d="M369.626 67.2585H342.514V117.587H369.626V67.2585Z" fill="#1E6EAB"/>
<path d="M400.586 67.2585H373.474V117.587H400.586V67.2585Z" fill="#1E6EAB"/>
<path d="M409.489 110.988L402.768 117.588L402.826 67.2585L409.834 62.2658L409.489 110.988Z" fill="#1E6EAB"/>
<path d="M416.899 56.0679L362.56 55.4366L343.088 65.0204" fill="#1E6EAB"/>
<path d="M342.744 65.7664L400.011 65.8238L416.899 56.5844" fill="#1E6EAB"/>
<path d="M417.818 103.068L411.155 109.324L411.212 61.3476L418.162 56.5844L417.818 103.068Z" fill="#1E6EAB"/>
<path d="M364.226 86.0817C364.226 86.0817 364.686 85.9669 364.973 85.68C365.777 84.8766 366.179 84.0157 366.294 83.901C367.041 82.5237 369.396 81.7776 371.234 82.0646C372.498 82.2941 374.336 83.0975 375.082 84.5322C375.255 84.8765 375.485 85.5078 375.829 85.4504C376.174 85.4504 376.404 84.647 376.461 84.5322C376.978 82.7532 382.033 76.4406 388.925 73.0547C393.004 71.0461 396.737 69.2097 399.437 70.8166C404.721 73.9155 401.62 87.459 400.816 88.4346C400.816 88.492 400.413 88.8363 400.413 89.2954C400.413 89.7545 400.701 90.0988 400.758 90.1562C401.677 91.3614 399.667 111.16 389.902 112.365C388.064 112.595 386.685 112.078 385.594 111.677C379.965 109.668 376.289 103.355 376.174 98.5922C376.174 98.5922 376.174 96.1819 376.001 96.1819C375.887 96.1819 376.059 97.6166 375.197 98.6496C374.968 98.9365 374.68 99.1087 374.163 99.453C373.991 99.5678 373.187 100.142 372.498 100.371C371.291 100.83 369.683 100.716 368.419 100.084C366.466 99.1087 366.122 97.1575 365.26 97.3297C364.686 97.4445 364.399 98.42 364.341 98.7644C363.078 103.068 359.918 108.061 357.736 110.414C356.242 112.021 354.864 113.513 352.968 113.513C350.958 113.513 349.177 111.045 345.731 106.167C341.423 100.027 340.906 97.7888 341.652 96.641C342.112 95.9524 343.261 95.3785 343.088 94.7472C342.974 94.3455 342.399 94.2307 342.284 94.2307C340.848 93.829 339.125 90.6153 338.493 86.1391C337.919 81.7202 336.885 74.1451 341.308 71.2757C345.731 68.4637 352.394 72.3086 354.002 73.2269C354.002 73.2269 357.908 75.5224 362.158 81.6628C363.307 83.3845 363.939 84.2453 363.997 85.0487C363.997 85.2783 363.997 85.9095 364.341 85.9669L364.226 86.0817Z" fill="#163670"/>
<path d="M374.968 91.1318C374.968 94.6898 372.785 97.5592 370.085 97.5592C367.386 97.5592 365.203 94.6898 365.203 91.1318C365.203 87.5738 367.386 84.7044 370.085 84.7044C372.785 84.7044 374.968 87.5738 374.968 91.1318Z" fill="#1898AB"/>
<path d="M378.127 87.1146C378.414 86.2538 378.931 85.1061 379.62 83.8435C380.137 82.9253 381.803 80.1707 385.249 77.2439C386.513 76.211 392.602 71.1608 396.91 72.4234C396.967 72.4234 397.025 72.4234 397.139 72.4808C399.667 73.5137 401.333 78.9656 399.724 82.6384C398.977 84.3026 397.025 86.8851 397.829 88.3198C397.886 88.4345 398.058 88.6641 398.288 89.1232C398.288 89.1232 398.805 90.1562 399.15 91.3039C399.494 92.5091 400.126 99.0513 395.072 105.593C393.004 108.291 392.027 109.611 390.304 109.898C384.905 110.816 378.701 101.06 378.529 96.5836C378.529 96.1819 378.471 92.6812 378.471 92.6812L385.249 89.9266C384.905 89.4101 383.871 88.0328 381.918 87.3442C380.195 86.7129 378.759 86.9425 378.127 87.0572V87.1146Z" fill="#1898AB"/>
<path d="M363.307 88.6067C363.135 88.0328 362.848 87.1146 362.331 86.0816C361.699 84.7043 360.493 82.581 354.634 77.0144C351.819 74.3746 351.13 73.9728 350.268 73.6285C347.396 72.6529 344.697 73.5137 344.697 73.5137C344.582 73.5137 344.524 73.5137 344.467 73.5711C342.801 74.145 340.906 75.2354 339.929 76.3257C338.149 78.4491 338.895 81.7776 339.527 84.7617C339.642 85.2208 340.044 86.9999 341.135 89.2954C342.399 91.8778 343.893 93.829 344.984 95.0341C344.926 95.2063 344.754 95.4358 344.639 95.7228C343.95 97.1575 343.433 98.9939 343.433 100.027C343.433 101.576 344.582 102.15 348.89 106.167C352.451 109.496 352.738 110.07 353.772 110.07C356.07 110.07 357.793 106.799 359.574 103.413C360.722 101.232 362.101 98.0183 363.077 93.829L356.3 91.0744C356.529 90.6727 357.563 89.0658 359.631 88.4919C361.354 87.9754 362.848 88.4919 363.307 88.6641V88.6067Z" fill="#1898AB"/>
<path d="M423.16 50.157C422.93 48.378 422.298 45.6808 420.517 42.9835C416.612 36.9004 410.236 35.1788 408.57 34.7771C410.178 34.5475 415.233 33.572 419.369 29.1531C422.643 25.7098 423.619 21.8649 423.964 20.2006C424.308 22.037 425.17 25.3081 427.64 28.5792C431.546 33.6293 436.773 35.1214 438.554 35.5805C436.199 36.384 431.488 38.2777 427.525 42.9261C425.228 45.566 423.906 48.2632 423.16 50.157Z" fill="#F19112"/>
<path d="M434.303 58.7652C434.188 57.847 433.843 56.5271 432.982 55.1497C431.029 52.1082 427.812 51.2474 427.008 51.0752C427.812 50.9604 430.34 50.5013 432.407 48.2632C434.016 46.5416 434.533 44.6478 434.705 43.787C434.877 44.7052 435.279 46.3694 436.543 47.9763C438.496 50.5013 441.138 51.2474 442 51.4769C440.794 51.8787 438.439 52.8542 436.486 55.1497C435.337 56.4697 434.705 57.7896 434.303 58.7652Z" fill="#F19112"/>
<path d="M332.462 141.92C332.232 140.141 331.6 137.444 329.82 134.747C325.914 128.663 319.538 126.942 317.872 126.54C319.481 126.311 324.535 125.335 328.671 120.916C331.945 117.473 332.921 113.628 333.266 111.964C333.611 113.8 334.472 117.071 336.942 120.342C340.848 125.392 346.075 126.884 347.856 127.344C345.501 128.147 340.791 130.041 336.827 134.689C334.53 137.329 333.209 140.026 332.462 141.92Z" fill="#F19112"/>
<path d="M323.559 117.071C323.444 116.21 323.157 114.948 322.352 113.685C320.514 110.816 317.528 110.012 316.723 109.84C317.47 109.725 319.883 109.266 321.778 107.2C323.329 105.594 323.789 103.757 323.961 103.011C324.133 103.872 324.535 105.421 325.684 106.971C327.522 109.324 329.992 110.07 330.796 110.242C329.705 110.586 327.465 111.505 325.627 113.685C324.535 114.948 323.961 116.21 323.559 117.071Z" fill="#F19112"/>
<path d="M297.711 367.396H270.599V417.725H297.711V367.396Z" fill="#1E6EAB"/>
<path d="M328.671 367.396H301.559V417.725H328.671V367.396Z" fill="#1E6EAB"/>
<path d="M337.574 411.125L330.911 417.725L330.968 367.396L337.919 362.403L337.574 411.125Z" fill="#1E6EAB"/>
<path d="M344.984 356.148L290.703 355.574L271.174 365.158" fill="#1E6EAB"/>
<path d="M270.886 365.904H328.154L344.984 356.665" fill="#1E6EAB"/>
<path d="M345.903 403.149L339.24 409.461L339.297 361.428L346.248 356.665L345.903 403.149Z" fill="#1E6EAB"/>
<path d="M292.312 386.219C292.312 386.219 292.771 386.104 293.058 385.818C293.863 385.014 294.265 384.153 294.379 384.038C295.126 382.661 297.481 381.915 299.319 382.202C300.583 382.432 302.421 383.235 303.168 384.67C303.34 385.014 303.57 385.645 303.915 385.588C304.259 385.588 304.489 384.785 304.546 384.67C305.063 382.891 310.118 376.578 317.011 373.192C321.089 371.184 324.823 369.347 327.522 370.954C332.807 374.053 329.705 387.597 328.901 388.572C328.901 388.629 328.499 388.974 328.499 389.433C328.499 389.892 328.786 390.236 328.843 390.294C329.762 391.499 327.752 411.298 317.987 412.503C316.149 412.732 314.771 412.216 313.679 411.814C308.05 409.806 304.374 403.493 304.259 398.73C304.259 398.73 304.259 396.319 304.087 396.319C303.972 396.319 304.144 397.754 303.283 398.787C303.053 399.074 302.766 399.246 302.249 399.591C302.076 399.705 301.272 400.279 300.583 400.509C299.377 400.968 297.768 400.853 296.505 400.222C294.552 399.246 294.207 397.295 293.346 397.467C292.771 397.582 292.484 398.558 292.427 398.902C291.163 403.206 288.004 408.199 285.821 410.552C284.327 412.158 282.949 413.651 281.053 413.651C279.043 413.651 277.262 411.183 273.816 406.305C269.508 400.164 268.991 397.926 269.738 396.779C270.197 396.09 271.346 395.516 271.174 394.885C271.059 394.483 270.484 394.368 270.37 394.368C268.934 393.967 267.21 390.753 266.579 386.277C266.004 381.858 264.97 374.283 269.393 371.413C273.816 368.601 280.479 372.446 282.087 373.364C282.087 373.364 285.993 375.66 290.244 381.8C291.393 383.522 292.024 384.383 292.082 385.186C292.082 385.416 292.082 386.047 292.427 386.104L292.312 386.219Z" fill="#163670"/>
<path d="M303.053 391.269C303.053 394.827 300.87 397.697 298.17 397.697C295.471 397.697 293.288 394.827 293.288 391.269C293.288 387.711 295.471 384.842 298.17 384.842C300.87 384.842 303.053 387.711 303.053 391.269Z" fill="#1898AB"/>
<path d="M306.212 387.252C306.499 386.391 307.016 385.244 307.705 383.981C308.222 383.063 309.888 380.308 313.334 377.382C314.598 376.349 320.687 371.298 324.995 372.561C325.052 372.561 325.11 372.561 325.225 372.618C327.752 373.651 329.418 379.103 327.809 382.776C327.063 384.44 325.11 387.023 325.914 388.457C325.971 388.572 326.144 388.802 326.373 389.261C326.373 389.261 326.89 390.294 327.235 391.442C327.58 392.647 328.211 399.189 323.157 405.731C321.089 408.428 320.112 409.748 318.389 410.035C312.99 410.953 306.786 401.197 306.614 396.721C306.614 396.319 306.557 392.819 306.557 392.819L313.334 390.064C312.99 389.548 311.956 388.17 310.003 387.482C308.28 386.851 306.844 387.08 306.212 387.195V387.252Z" fill="#1898AB"/>
<path d="M291.45 388.687C291.278 388.113 290.991 387.195 290.474 386.162C289.842 384.784 288.636 382.661 282.777 377.095C279.962 374.455 279.273 374.053 278.411 373.709C275.539 372.733 272.84 373.594 272.84 373.594C272.725 373.594 272.667 373.594 272.61 373.651C270.944 374.225 269.048 375.315 268.072 376.406C266.291 378.529 267.038 381.858 267.67 384.842C267.785 385.301 268.187 387.08 269.278 389.375C270.542 391.958 272.035 393.909 273.127 395.114C273.069 395.286 272.897 395.516 272.782 395.803C272.093 397.238 271.576 399.074 271.576 400.107C271.576 401.656 272.725 402.23 277.033 406.247C280.594 409.576 280.881 410.15 281.915 410.15C284.213 410.15 285.936 406.879 287.716 403.493C288.865 401.312 290.244 398.098 291.22 393.909L284.442 391.155C284.672 390.753 285.706 389.146 287.774 388.572C289.497 388.056 290.991 388.572 291.45 388.744V388.687Z" fill="#1898AB"/>
<path d="M351.245 350.237C351.015 348.458 350.383 345.761 348.603 343.064C344.697 336.981 338.321 335.259 336.655 334.857C338.263 334.628 343.318 333.652 347.454 329.233C350.728 325.79 351.704 321.945 352.049 320.281C352.394 322.117 353.255 325.388 355.725 328.659C359.631 333.709 364.858 335.202 366.639 335.661C364.284 336.464 359.574 338.358 355.61 343.006C353.313 345.646 351.992 348.343 351.245 350.237Z" fill="#F19112"/>
<path d="M362.388 358.903C362.273 357.984 361.929 356.665 361.067 355.287C359.114 352.246 355.898 351.385 355.094 351.213C355.898 351.098 358.425 350.639 360.493 348.401C362.101 346.679 362.618 344.785 362.79 343.924C362.963 344.843 363.365 346.507 364.629 348.114C366.581 350.639 369.224 351.385 370.085 351.614C368.879 352.016 366.524 352.992 364.571 355.287C363.422 356.607 362.79 357.927 362.388 358.903Z" fill="#F19112"/>
<path d="M260.547 442C260.318 440.221 259.686 437.524 257.905 434.827C253.999 428.743 247.623 427.022 245.958 426.62C247.566 426.391 252.621 425.415 256.756 420.996C260.03 417.553 261.007 413.708 261.352 412.044C261.696 413.88 262.558 417.151 265.028 420.422C268.934 425.472 274.161 426.965 275.941 427.424C273.586 428.227 268.876 430.121 264.913 434.769C262.615 437.409 261.294 440.106 260.547 442Z" fill="#F19112"/>
<path d="M251.644 417.209C251.529 416.348 251.242 415.085 250.438 413.823C248.6 410.953 245.613 410.15 244.809 409.978C245.556 409.863 247.968 409.404 249.864 407.338C251.414 405.731 251.874 403.895 252.046 403.149C252.219 404.009 252.621 405.559 253.769 407.108C255.608 409.461 258.077 410.207 258.882 410.379C257.79 410.724 255.55 411.642 253.712 413.823C252.621 415.085 252.046 416.348 251.644 417.209Z" fill="#F19112"/>
</g>
<defs>
<clipPath id="clip0_1_15">
<rect width="442" height="442" fill="white"/>
</clipPath>
</defs>
</svg>
