<?xml version="1.0" encoding="utf-8"?>
<!-- Generator: Adobe Illustrator 27.9.0, SVG Export Plug-In . SVG Version: 6.00 Build 0)  -->
<svg version="1.1" id="Слой_1" xmlns="http://www.w3.org/2000/svg" xmlns:xlink="http://www.w3.org/1999/xlink" x="0px" y="0px"
	 viewBox="0 0 1440 900" style="enable-background:new 0 0 1440 900;" xml:space="preserve">
<style type="text/css">
	.st0{fill:#070707;}
	.st1{fill:#F7F7F7;}
	.st2{fill:#050505;}
	.st3{fill:#F9F9F9;}
</style>
<g>
	<rect x="423" y="10" class="st0" width="630" height="880"/>
	<rect x="486" y="74" class="st1" width="504" height="754"/>
	<polygon class="st2" points="550,200 550,259.7 856.9,259.7 918.8,200 	"/>
	<polygon class="st2" points="550,325 549.9,386.9 729.8,386.9 794,325 	"/>
	<polygon class="st2" points="550,450 550,478.2 583,512 604.4,512 666.2,450 	"/>
	<polygon class="st2" points="923.9,481 890.9,512 923.9,512 	"/>
	<polygon class="st2" points="828,576 765,639 923.9,639 923.9,576 	"/>
	<polygon class="st2" points="701,703 641,762 923.9,762 923.9,703 	"/>
	<polygon class="st3" points="455.9,386.9 597,524 1017,104 1154,244 594,809 317,530 	"/>
	<polygon points="462,440 603.3,557.8 1013,153 1106,245 596,762 365,530 	"/>
</g>
</svg>
