<svg width="676" height="1293" viewBox="0 0 676 1293" fill="none" xmlns="http://www.w3.org/2000/svg">
<g clip-path="url(#clip0_2_656)">
<path d="M99.5437 312.738L125.155 288.818L151.739 309.937L124.648 331.056L99.5437 312.738Z" stroke="#1BA2B4" stroke-miterlimit="10"/>
<path d="M99.2192 274.571L124.222 254.242L152.367 274.571V309.243L124.911 287.597L99.2192 311.493V274.571Z" stroke="#1BA2B4" stroke-miterlimit="10"/>
<path d="M152.692 311.972L178.323 288.028L204.907 309.147L177.796 330.29L152.692 311.972Z" stroke="#1BA2B4" stroke-miterlimit="10"/>
<path d="M152.367 273.781L177.39 253.476L205.536 273.781V308.452L178.08 286.831L152.367 310.703V273.781Z" stroke="#1BA2B4" stroke-miterlimit="10"/>
<path d="M125.499 369.199L151.11 345.255L177.694 366.398L150.603 387.517L125.499 369.199Z" stroke="#1BA2B4" stroke-miterlimit="10"/>
<path d="M125.155 331.008L150.177 310.703L178.323 331.008V365.704L150.867 344.058L125.155 367.93V331.008Z" stroke="#1BA2B4" stroke-miterlimit="10"/>
<path d="M179.276 367.643L204.907 343.723L231.491 364.842L204.38 385.961L179.276 367.643Z" stroke="#1BA2B4" stroke-miterlimit="10"/>
<path d="M178.951 329.476L203.974 309.147L232.12 329.476V364.147L204.664 342.501L178.951 366.398V329.476Z" stroke="#1BA2B4" stroke-miterlimit="10"/>
<path d="M205.86 310.176L231.491 286.232L258.075 307.351L230.964 328.47L205.86 310.176Z" stroke="#1BA2B4" stroke-miterlimit="10"/>
<path d="M205.536 271.985L230.558 251.656L258.704 271.985V306.657L231.248 285.011L205.536 308.907V271.985Z" stroke="#1BA2B4" stroke-miterlimit="10"/>
<path d="M232.444 366.039L258.075 342.094L284.639 363.213L257.548 384.356L232.444 366.039Z" stroke="#1BA2B4" stroke-miterlimit="10"/>
<path d="M232.12 327.847L257.122 307.542L285.268 327.847V362.543L257.832 340.897L232.12 364.77V327.847Z" stroke="#1BA2B4" stroke-miterlimit="10"/>
<path d="M99.28 427.432L124.911 403.488L151.495 424.631L124.384 445.75L99.28 427.432Z" stroke="#1BA2B4" stroke-miterlimit="10"/>
<path d="M98.2053 388.235L123.228 367.93L152.104 389.241V423.936L124.668 402.291L98.9556 426.163L98.2053 388.235Z" stroke="#1BA2B4" stroke-miterlimit="10"/>
<path d="M152.063 424.894L177.694 400.95L204.278 422.069L177.167 443.212L152.063 424.894Z" stroke="#1BA2B4" stroke-miterlimit="10"/>
<path d="M151.739 386.703L176.761 366.398L204.907 386.703V421.398L177.451 399.753L151.739 423.625V386.703Z" stroke="#1BA2B4" stroke-miterlimit="10"/>
<path d="M259.9 309.195L285.511 285.25L312.095 306.393L285.004 327.512L259.9 309.195Z" stroke="#1BA2B4" stroke-miterlimit="10"/>
<path d="M259.556 271.003L284.578 250.698L312.724 271.003V305.699L285.268 284.053L259.556 307.926V271.003Z" stroke="#1BA2B4" stroke-miterlimit="10"/>
<path d="M313.048 308.405L338.68 284.484L365.264 305.603L338.152 326.722L313.048 308.405Z" stroke="#1BA2B4" stroke-miterlimit="10"/>
<path d="M312.724 270.213L337.747 249.908L365.892 270.213V304.909L338.436 283.263L312.724 307.159V270.213Z" stroke="#1BA2B4" stroke-miterlimit="10"/>
<path d="M285.836 365.656L311.467 341.711L338.051 362.83L310.94 383.973L285.836 365.656Z" stroke="#1BA2B4" stroke-miterlimit="10"/>
<path d="M285.511 327.464L310.534 307.159L338.68 327.464V362.136L311.223 340.514L285.511 364.387V327.464Z" stroke="#1BA2B4" stroke-miterlimit="10"/>
<path d="M339.633 364.099L365.264 340.155L391.848 361.298L364.736 382.417L339.633 364.099Z" stroke="#1BA2B4" stroke-miterlimit="10"/>
<path d="M339.308 325.908L364.331 305.603L392.476 325.908L392.456 360.603L365.02 338.958L339.308 362.83V325.908Z" stroke="#1BA2B4" stroke-miterlimit="10"/>
<path d="M366.217 306.609L391.848 282.664L418.412 303.807L391.321 324.926L366.217 306.609Z" stroke="#1BA2B4" stroke-miterlimit="10"/>
<path d="M365.892 268.417L390.895 248.112L419.04 268.417V303.113L391.605 281.467L365.892 305.34V268.417Z" stroke="#1BA2B4" stroke-miterlimit="10"/>
<path d="M392.801 362.495L418.412 338.551L444.996 359.67L417.905 380.789L392.801 362.495Z" stroke="#1BA2B4" stroke-miterlimit="10"/>
<path d="M392.476 324.304L417.479 303.975L445.624 324.304V358.975L418.168 337.329L392.476 361.226V324.304Z" stroke="#1BA2B4" stroke-miterlimit="10"/>
<path d="M259.637 423.889L285.248 399.944L311.832 421.063L284.741 442.206L259.637 423.889Z" stroke="#1BA2B4" stroke-miterlimit="10"/>
<path d="M258.562 384.692L283.585 364.363L312.46 385.697V420.369L285.025 398.747L259.312 422.62L258.562 384.692Z" stroke="#1BA2B4" stroke-miterlimit="10"/>
<path d="M312.42 421.327L338.051 397.406L364.635 418.525L337.524 439.644L312.42 421.327Z" stroke="#1BA2B4" stroke-miterlimit="10"/>
<path d="M312.095 383.159L337.118 362.83L365.264 383.159V417.831L337.808 396.185L312.095 420.081V383.159Z" stroke="#1BA2B4" stroke-miterlimit="10"/>
<path d="M421.068 306.489L446.699 282.568L473.283 303.687L446.172 324.806L421.068 306.489Z" stroke="#1BA2B4" stroke-miterlimit="10"/>
<path d="M420.744 268.298L445.766 247.993L473.912 268.298V302.993L446.456 281.347L420.744 305.22V268.298Z" stroke="#1BA2B4" stroke-miterlimit="10"/>
<path d="M474.236 305.699L499.868 281.778L526.452 302.897L499.34 324.016L474.236 305.699Z" stroke="#1BA2B4" stroke-miterlimit="10"/>
<path d="M473.912 267.507L498.935 247.202L527.08 267.507L527.06 302.203L499.624 280.557L473.912 304.454V267.507Z" stroke="#1BA2B4" stroke-miterlimit="10"/>
<path d="M447.024 362.95L472.655 339.005L499.239 360.124L472.127 381.267L447.024 362.95Z" stroke="#1BA2B4" stroke-miterlimit="10"/>
<path d="M446.699 324.759L471.722 304.454L499.867 324.759V359.454L472.411 337.808L446.699 361.681V324.759Z" stroke="#1BA2B4" stroke-miterlimit="10"/>
<path d="M500.821 361.393L526.452 337.449L553.016 358.592L525.924 379.711L500.821 361.393Z" stroke="#1BA2B4" stroke-miterlimit="10"/>
<path d="M500.496 323.202L525.499 302.897L553.644 323.202V357.898L526.208 336.252L500.496 360.124V323.202Z" stroke="#1BA2B4" stroke-miterlimit="10"/>
<path d="M527.405 303.903L553.016 279.982L579.6 301.101L552.509 322.22L527.405 303.903Z" stroke="#1BA2B4" stroke-miterlimit="10"/>
<path d="M527.08 265.712L552.083 245.407L580.228 265.712V300.407L552.772 278.761L527.08 302.634V265.712Z" stroke="#1BA2B4" stroke-miterlimit="10"/>
<path d="M553.989 359.789L579.6 335.845L606.184 356.964L579.093 378.083L553.989 359.789Z" stroke="#1BA2B4" stroke-miterlimit="10"/>
<path d="M553.644 321.598L578.667 301.269L606.812 321.598V356.269L579.356 334.648L553.644 358.52V321.598Z" stroke="#1BA2B4" stroke-miterlimit="10"/>
<path d="M420.825 421.183L446.436 397.238L473.02 418.357L445.929 439.5L420.825 421.183Z" stroke="#1BA2B4" stroke-miterlimit="10"/>
<path d="M419.75 381.986L444.773 361.657L473.648 382.991V417.687L446.192 396.041L420.48 419.914L419.75 381.986Z" stroke="#1BA2B4" stroke-miterlimit="10"/>
<path d="M473.608 418.645L499.239 394.7L525.823 415.819L498.712 436.938L473.608 418.645Z" stroke="#1BA2B4" stroke-miterlimit="10"/>
<path d="M473.283 380.453L498.306 360.124L526.452 380.453L526.431 415.125L498.996 393.479L473.283 417.376V380.453Z" stroke="#1BA2B4" stroke-miterlimit="10"/>
<path d="M527.141 417.328L552.772 393.407L579.336 414.526L552.245 435.645L527.141 417.328Z" stroke="#1BA2B4" stroke-miterlimit="10"/>
<path d="M526.817 379.136L551.839 358.832L579.965 379.136V413.832L552.529 392.186L526.817 416.059V379.136Z" stroke="#1BA2B4" stroke-miterlimit="10"/>
<path d="M580.31 416.538L605.92 392.617L632.505 413.736L605.413 434.855L580.31 416.538Z" stroke="#1BA2B4" stroke-miterlimit="10"/>
<path d="M579.965 378.37L604.988 358.041L633.133 378.37V413.042L605.677 391.396L579.965 415.292V378.37Z" stroke="#1BA2B4" stroke-miterlimit="10"/>
<path d="M553.097 473.789L578.708 449.844L605.292 470.963L578.201 492.106L553.097 473.789Z" stroke="#1BA2B4" stroke-miterlimit="10"/>
<path d="M552.772 435.597L577.775 415.292L605.92 435.597V470.293L578.485 448.647L552.772 472.52V435.597Z" stroke="#1BA2B4" stroke-miterlimit="10"/>
<path d="M606.894 472.232L632.505 448.312L659.089 469.431L631.977 490.55L606.894 472.232Z" stroke="#1BA2B4" stroke-miterlimit="10"/>
<path d="M606.549 434.041L631.572 413.736L659.717 434.041V468.736L632.261 447.091L606.549 470.963V434.041Z" stroke="#1BA2B4" stroke-miterlimit="10"/>
<path d="M633.458 414.742L659.089 390.821L685.673 411.94L658.561 433.059L633.458 414.742Z" stroke="#1BA2B4" stroke-miterlimit="10"/>
<path d="M633.133 376.55L658.156 356.245L686.302 376.55V411.246L658.845 389.6L633.133 413.473V376.55Z" stroke="#1BA2B4" stroke-miterlimit="10"/>
<path d="M660.042 470.628L685.673 446.684L712.257 467.803L685.146 488.922L660.042 470.628Z" stroke="#1BA2B4" stroke-miterlimit="10"/>
<path d="M659.717 432.437L684.74 412.132L712.886 432.437V467.108L685.429 445.486L659.717 469.359V432.437Z" stroke="#1BA2B4" stroke-miterlimit="10"/>
<path d="M526.878 532.022L552.509 508.077L579.093 529.196L551.981 550.339L526.878 532.022Z" stroke="#1BA2B4" stroke-miterlimit="10"/>
<path d="M525.823 492.825L550.826 472.496L579.721 493.83V528.526L552.265 506.88L526.553 530.753L525.823 492.825Z" stroke="#1BA2B4" stroke-miterlimit="10"/>
<path d="M579.681 529.484L605.292 505.539L631.876 526.658L604.785 547.777L579.681 529.484Z" stroke="#1BA2B4" stroke-miterlimit="10"/>
<path d="M579.336 491.292L604.359 470.963L632.505 491.292V525.964L605.048 504.342L579.336 528.215V491.292Z" stroke="#1BA2B4" stroke-miterlimit="10"/>
<path d="M205.008 423.098L231.714 401.955L258.278 423.098L231.187 444.217L205.008 423.098Z" stroke="#1BA2B4" stroke-miterlimit="10"/>
<path d="M205.008 386.703L230.031 366.398L258.075 385.961L258.907 422.404L231.471 400.758L205.394 421.063L205.008 386.703Z" stroke="#1BA2B4" stroke-miterlimit="10"/>
<path d="M364.899 418.74L391.584 397.621L418.168 418.74L391.057 439.859L364.899 418.74Z" stroke="#1BA2B4" stroke-miterlimit="10"/>
<path d="M364.899 382.345L389.901 362.04L417.945 381.627L418.797 418.046L391.341 396.4L365.264 416.729L364.899 382.345Z" stroke="#1BA2B4" stroke-miterlimit="10"/>
<path d="M498.874 472.759L525.559 451.64L552.144 472.759L525.032 493.902L498.874 472.759Z" stroke="#1BA2B4" stroke-miterlimit="10"/>
<path d="M498.874 436.388L523.876 416.059L551.921 435.645L552.772 472.089L525.316 450.443L499.239 470.748L498.874 436.388Z" stroke="#1BA2B4" stroke-miterlimit="10"/>
<path d="M606.508 356.341L633.214 335.198L659.798 356.341L632.687 377.46L606.508 356.341Z" stroke="#1BA2B4" stroke-miterlimit="10"/>
<path d="M606.508 319.946L631.531 299.641L659.575 319.203L660.407 355.647L632.971 334.001L606.894 354.306L606.508 319.946Z" stroke="#1BA2B4" stroke-miterlimit="10"/>
<path d="M578.343 299.88L605.048 278.737L631.612 299.88L604.521 320.999L578.343 299.88Z" stroke="#1BA2B4" stroke-miterlimit="10"/>
<path d="M578.343 263.485L603.365 243.18L631.41 262.742L632.241 299.186L604.805 277.54L578.728 297.845L578.343 263.485Z" stroke="#1BA2B4" stroke-miterlimit="10"/>
<path d="M444.996 475.441L471.702 454.322L498.266 475.441L471.174 496.56L444.996 475.441Z" stroke="#1BA2B4" stroke-miterlimit="10"/>
<path d="M444.996 439.045L470.019 418.74L498.063 438.327L498.894 474.747L471.458 453.101L445.381 473.43L444.996 439.045Z" stroke="#1BA2B4" stroke-miterlimit="10"/>
<path d="M472.756 532.141L499.462 511.022L526.026 532.141L498.935 553.26L472.756 532.141Z" stroke="#1BA2B4" stroke-miterlimit="10"/>
<path d="M472.756 495.746L497.779 475.441L525.823 495.027L526.654 531.447L499.219 509.801L473.141 530.13L472.756 495.746Z" stroke="#1BA2B4" stroke-miterlimit="10"/>
<path d="M391.219 477.764L417.905 456.645L444.489 477.764L417.378 498.906L391.219 477.764Z" stroke="#1BA2B4" stroke-miterlimit="10"/>
<path d="M391.219 441.392L416.222 421.063L444.266 440.65L445.118 477.069L417.661 455.447L391.584 475.752L391.219 441.392Z" stroke="#1BA2B4" stroke-miterlimit="10"/>
<path d="M337.949 474.435L364.635 453.316L391.219 474.435L364.108 495.554L337.949 474.435Z" stroke="#1BA2B4" stroke-miterlimit="10"/>
<path d="M337.949 438.04L362.952 417.735L390.996 437.321L391.848 473.741L364.392 452.095L338.314 472.424L337.949 438.04Z" stroke="#1BA2B4" stroke-miterlimit="10"/>
<path d="M284.883 476.782L311.588 455.639L338.152 476.782L311.061 497.901L284.883 476.782Z" stroke="#1BA2B4" stroke-miterlimit="10"/>
<path d="M284.883 440.386L309.905 420.081L337.95 439.644L338.781 476.087L311.345 454.442L285.268 474.747L284.883 440.386Z" stroke="#1BA2B4" stroke-miterlimit="10"/>
<path d="M231.958 481.331L258.663 460.188L285.248 481.331L258.136 502.45L231.958 481.331Z" stroke="#1BA2B4" stroke-miterlimit="10"/>
<path d="M231.958 444.936L256.98 424.631L285.024 444.193L285.856 480.637L258.42 458.991L232.343 479.296L231.958 444.936Z" stroke="#1BA2B4" stroke-miterlimit="10"/>
<path d="M178.059 481.331L204.765 460.188L231.329 481.331L204.238 502.45L178.059 481.331Z" stroke="#1BA2B4" stroke-miterlimit="10"/>
<path d="M178.059 444.936L203.082 424.631L231.126 444.193L231.958 480.637L204.522 458.991L178.444 479.296L178.059 444.936Z" stroke="#1BA2B4" stroke-miterlimit="10"/>
<path d="M125.743 481.331L152.448 460.188L179.033 481.331L151.921 502.45L125.743 481.331Z" stroke="#1BA2B4" stroke-miterlimit="10"/>
<path d="M125.743 444.936L150.765 424.631L178.809 444.193L179.661 480.637L152.205 458.991L126.128 479.296L125.743 444.936Z" stroke="#1BA2B4" stroke-miterlimit="10"/>
<path d="M418.675 532.788L445.381 511.669L471.945 532.788L444.854 553.907L418.675 532.788Z" stroke="#1BA2B4" stroke-miterlimit="10"/>
<path d="M418.675 496.392L443.698 476.087L471.742 495.65L472.574 532.093L445.138 510.448L419.04 530.753L418.675 496.392Z" stroke="#1BA2B4" stroke-miterlimit="10"/>
<path d="M364.27 534.464L390.956 513.345L417.54 534.464L390.428 555.607L364.27 534.464Z" stroke="#1BA2B4" stroke-miterlimit="10"/>
<path d="M364.27 498.068L389.273 477.764L417.317 497.35L418.168 533.77L390.712 512.148L364.635 532.453L364.27 498.068Z" stroke="#1BA2B4" stroke-miterlimit="10"/>
<path d="M632.139 525.868L658.825 504.749L685.409 525.868L658.318 546.987L632.139 525.868Z" stroke="#1BA2B4" stroke-miterlimit="10"/>
<path d="M632.139 489.472L657.162 469.167L685.186 488.754L686.038 525.174L658.582 503.528L632.504 523.857L632.139 489.472Z" stroke="#1BA2B4" stroke-miterlimit="10"/>
<path d="M311.203 531.351L337.909 510.232L364.493 531.351L337.382 552.47L311.203 531.351Z" stroke="#1BA2B4" stroke-miterlimit="10"/>
<path d="M311.203 494.956L336.226 474.651L364.27 494.237L365.122 530.657L337.666 509.011L311.588 529.34L311.203 494.956Z" stroke="#1BA2B4" stroke-miterlimit="10"/>
<path d="M259.191 534.679L285.896 513.56L312.46 534.679L285.369 555.798L259.191 534.679Z" stroke="#1BA2B4" stroke-miterlimit="10"/>
<path d="M259.191 498.284L284.213 477.979L312.237 497.566L313.089 533.985L285.653 512.363L259.556 532.668L259.191 498.284Z" stroke="#1BA2B4" stroke-miterlimit="10"/>
<path d="M204.38 537.026L231.086 515.907L257.67 537.026L230.558 558.145L204.38 537.026Z" stroke="#1BA2B4" stroke-miterlimit="10"/>
<path d="M204.38 500.63L229.403 480.326L257.447 499.912L258.278 536.332L230.842 514.686L204.765 535.015L204.38 500.63Z" stroke="#1BA2B4" stroke-miterlimit="10"/>
<path d="M150.745 539.301L177.431 518.182L204.015 539.301L176.924 560.444L150.745 539.301Z" stroke="#1BA2B4" stroke-miterlimit="10"/>
<path d="M150.745 502.929L175.768 482.6L203.792 502.187L204.643 538.606L177.187 516.985L151.11 537.289L150.745 502.929Z" stroke="#1BA2B4" stroke-miterlimit="10"/>
<path d="M98.692 539.301L125.378 518.182L151.962 539.301L124.871 560.444L98.692 539.301Z" stroke="#1BA2B4" stroke-miterlimit="10"/>
<path d="M98.692 502.929L123.715 482.6L151.739 502.187L152.59 538.606L125.134 516.985L99.057 537.289L98.692 502.929Z" stroke="#1BA2B4" stroke-miterlimit="10"/>
<path d="M122.558 1174.78L148.169 1150.86L174.753 1171.98L147.662 1193.1L122.558 1174.78Z" stroke="#1BA2B4" stroke-miterlimit="10"/>
<path d="M122.234 1136.61L147.236 1116.28L175.382 1136.61V1171.28L147.926 1149.64L122.234 1173.53V1136.61Z" stroke="#1BA2B4" stroke-miterlimit="10"/>
<path d="M175.706 1174.01L201.337 1150.07L227.921 1171.19L200.81 1192.33L175.706 1174.01Z" stroke="#1BA2B4" stroke-miterlimit="10"/>
<path d="M175.382 1135.82L200.404 1115.52L228.55 1135.82V1170.49L201.094 1148.87L175.382 1172.74V1135.82Z" stroke="#1BA2B4" stroke-miterlimit="10"/>
<path d="M148.514 1231.24L174.124 1207.3L200.709 1228.44L173.618 1249.56L148.514 1231.24Z" stroke="#1BA2B4" stroke-miterlimit="10"/>
<path d="M148.169 1193.05L173.192 1172.74L201.337 1193.05V1227.74L173.881 1206.1L148.169 1229.97V1193.05Z" stroke="#1BA2B4" stroke-miterlimit="10"/>
<path d="M202.29 1229.68L227.921 1205.76L254.506 1226.88L227.394 1248L202.29 1229.68Z" stroke="#1BA2B4" stroke-miterlimit="10"/>
<path d="M201.966 1191.52L226.989 1171.19L255.134 1191.52V1226.19L227.678 1204.54L201.966 1228.44V1191.52Z" stroke="#1BA2B4" stroke-miterlimit="10"/>
<path d="M228.875 1172.22L254.506 1148.27L281.09 1169.39L253.978 1190.51L228.875 1172.22Z" stroke="#1BA2B4" stroke-miterlimit="10"/>
<path d="M228.55 1134.03L253.573 1113.7L281.718 1134.03V1168.7L254.262 1147.05L228.55 1170.95V1134.03Z" stroke="#1BA2B4" stroke-miterlimit="10"/>
<path d="M255.459 1228.08L281.09 1204.13L307.654 1225.25L280.563 1246.4L255.459 1228.08Z" stroke="#1BA2B4" stroke-miterlimit="10"/>
<path d="M255.134 1189.89L280.137 1169.58L308.282 1189.89V1224.58L280.846 1202.94L255.134 1226.81V1189.89Z" stroke="#1BA2B4" stroke-miterlimit="10"/>
<path d="M122.294 1289.47L147.926 1265.53L174.51 1286.67L147.398 1307.79L122.294 1289.47Z" stroke="#1BA2B4" stroke-miterlimit="10"/>
<path d="M121.22 1250.28L146.243 1229.97L175.118 1251.28V1285.98L147.682 1264.33L121.97 1288.2L121.22 1250.28Z" stroke="#1BA2B4" stroke-miterlimit="10"/>
<path d="M175.078 1286.93L200.709 1262.99L227.293 1284.11L200.181 1305.25L175.078 1286.93Z" stroke="#1BA2B4" stroke-miterlimit="10"/>
<path d="M174.753 1248.74L199.776 1228.44L227.921 1248.74V1283.44L200.465 1261.79L174.753 1285.67V1248.74Z" stroke="#1BA2B4" stroke-miterlimit="10"/>
<path d="M282.915 1171.23L308.526 1147.29L335.11 1168.43L308.019 1189.55L282.915 1171.23Z" stroke="#1BA2B4" stroke-miterlimit="10"/>
<path d="M282.57 1133.04L307.593 1112.74L335.738 1133.04V1167.74L308.282 1146.09L282.57 1169.97V1133.04Z" stroke="#1BA2B4" stroke-miterlimit="10"/>
<path d="M336.063 1170.44L361.694 1146.52L388.278 1167.64L361.167 1188.76L336.063 1170.44Z" stroke="#1BA2B4" stroke-miterlimit="10"/>
<path d="M335.738 1132.25L360.761 1111.95L388.907 1132.25V1166.95L361.451 1145.3L335.738 1169.2V1132.25Z" stroke="#1BA2B4" stroke-miterlimit="10"/>
<path d="M308.85 1227.7L334.481 1203.75L361.065 1224.87L333.954 1246.01L308.85 1227.7Z" stroke="#1BA2B4" stroke-miterlimit="10"/>
<path d="M308.526 1189.5L333.548 1169.2L361.694 1189.5V1224.18L334.238 1202.55L308.526 1226.43V1189.5Z" stroke="#1BA2B4" stroke-miterlimit="10"/>
<path d="M362.647 1226.14L388.278 1202.19L414.862 1223.34L387.751 1244.46L362.647 1226.14Z" stroke="#1BA2B4" stroke-miterlimit="10"/>
<path d="M362.323 1187.95L387.345 1167.64L415.491 1187.95L415.471 1222.64L388.035 1201L362.323 1224.87V1187.95Z" stroke="#1BA2B4" stroke-miterlimit="10"/>
<path d="M389.231 1168.65L414.862 1144.7L441.426 1165.85L414.335 1186.97L389.231 1168.65Z" stroke="#1BA2B4" stroke-miterlimit="10"/>
<path d="M388.907 1130.46L413.909 1110.15L442.055 1130.46V1165.15L414.619 1143.51L388.907 1167.38V1130.46Z" stroke="#1BA2B4" stroke-miterlimit="10"/>
<path d="M415.815 1224.54L441.426 1200.59L468.01 1221.71L440.919 1242.83L415.815 1224.54Z" stroke="#1BA2B4" stroke-miterlimit="10"/>
<path d="M415.491 1186.34L440.493 1166.01L468.639 1186.34V1221.02L441.183 1199.37L415.491 1223.27V1186.34Z" stroke="#1BA2B4" stroke-miterlimit="10"/>
<path d="M282.651 1285.93L308.262 1261.98L334.846 1283.1L307.755 1304.25L282.651 1285.93Z" stroke="#1BA2B4" stroke-miterlimit="10"/>
<path d="M281.576 1246.73L306.599 1226.4L335.475 1247.74V1282.41L308.039 1260.79L282.327 1284.66L281.576 1246.73Z" stroke="#1BA2B4" stroke-miterlimit="10"/>
<path d="M335.434 1283.37L361.065 1259.45L387.649 1280.57L360.538 1301.68L335.434 1283.37Z" stroke="#1BA2B4" stroke-miterlimit="10"/>
<path d="M335.11 1245.2L360.133 1224.87L388.278 1245.2V1279.87L360.822 1258.22L335.11 1282.12V1245.2Z" stroke="#1BA2B4" stroke-miterlimit="10"/>
<path d="M444.082 1168.53L469.714 1144.61L496.298 1165.73L469.186 1186.85L444.082 1168.53Z" stroke="#1BA2B4" stroke-miterlimit="10"/>
<path d="M443.758 1130.34L468.781 1110.03L496.926 1130.34V1165.03L469.47 1143.39L443.758 1167.26V1130.34Z" stroke="#1BA2B4" stroke-miterlimit="10"/>
<path d="M497.251 1167.74L522.882 1143.82L549.466 1164.94L522.355 1186.06L497.251 1167.74Z" stroke="#1BA2B4" stroke-miterlimit="10"/>
<path d="M496.926 1129.55L521.949 1109.24L550.095 1129.55L550.074 1164.24L522.639 1142.6L496.926 1166.49V1129.55Z" stroke="#1BA2B4" stroke-miterlimit="10"/>
<path d="M470.038 1224.99L495.669 1201.05L522.253 1222.16L495.142 1243.31L470.038 1224.99Z" stroke="#1BA2B4" stroke-miterlimit="10"/>
<path d="M469.714 1186.8L494.736 1166.49L522.882 1186.8V1221.49L495.426 1199.85L469.714 1223.72V1186.8Z" stroke="#1BA2B4" stroke-miterlimit="10"/>
<path d="M523.835 1223.43L549.466 1199.49L576.03 1220.63L548.939 1241.75L523.835 1223.43Z" stroke="#1BA2B4" stroke-miterlimit="10"/>
<path d="M523.51 1185.24L548.513 1164.94L576.659 1185.24V1219.94L549.223 1198.29L523.51 1222.16V1185.24Z" stroke="#1BA2B4" stroke-miterlimit="10"/>
<path d="M550.419 1165.94L576.03 1142.02L602.614 1163.14L575.523 1184.26L550.419 1165.94Z" stroke="#1BA2B4" stroke-miterlimit="10"/>
<path d="M550.095 1127.75L575.097 1107.45L603.243 1127.75V1162.45L575.787 1140.8L550.095 1164.67V1127.75Z" stroke="#1BA2B4" stroke-miterlimit="10"/>
<path d="M577.003 1221.83L602.614 1197.89L629.198 1219L602.107 1240.12L577.003 1221.83Z" stroke="#1BA2B4" stroke-miterlimit="10"/>
<path d="M576.659 1183.64L601.681 1163.31L629.827 1183.64V1218.31L602.371 1196.69L576.659 1220.56V1183.64Z" stroke="#1BA2B4" stroke-miterlimit="10"/>
<path d="M443.839 1283.22L469.45 1259.28L496.034 1280.4L468.943 1301.54L443.839 1283.22Z" stroke="#1BA2B4" stroke-miterlimit="10"/>
<path d="M442.764 1244.03L467.787 1223.7L496.663 1245.03V1279.73L469.207 1258.08L443.494 1281.95L442.764 1244.03Z" stroke="#1BA2B4" stroke-miterlimit="10"/>
<path d="M496.622 1280.68L522.253 1256.74L548.837 1277.86L521.726 1298.98L496.622 1280.68Z" stroke="#1BA2B4" stroke-miterlimit="10"/>
<path d="M496.298 1242.49L521.321 1222.16L549.466 1242.49L549.446 1277.17L522.01 1255.52L496.298 1279.42V1242.49Z" stroke="#1BA2B4" stroke-miterlimit="10"/>
<path d="M550.156 1279.37L575.787 1255.45L602.351 1276.57L575.259 1297.69L550.156 1279.37Z" stroke="#1BA2B4" stroke-miterlimit="10"/>
<path d="M549.831 1241.18L574.854 1220.87L602.979 1241.18V1275.87L575.543 1254.23L549.831 1278.1V1241.18Z" stroke="#1BA2B4" stroke-miterlimit="10"/>
<path d="M603.324 1278.58L628.935 1254.66L655.519 1275.78L628.428 1296.9L603.324 1278.58Z" stroke="#1BA2B4" stroke-miterlimit="10"/>
<path d="M602.979 1240.41L628.002 1220.08L656.148 1240.41V1275.08L628.691 1253.44L602.979 1277.33V1240.41Z" stroke="#1BA2B4" stroke-miterlimit="10"/>
<path d="M575.787 1297.64L600.789 1277.33L628.935 1297.64V1332.33L601.499 1310.69L575.787 1334.56V1297.64Z" stroke="#1BA2B4" stroke-miterlimit="10"/>
<path d="M629.563 1296.08L654.586 1275.78L682.732 1296.08V1330.78L655.276 1309.13L629.563 1333V1296.08Z" stroke="#1BA2B4" stroke-miterlimit="10"/>
<path d="M656.472 1276.78L682.103 1252.86L708.687 1273.98L681.576 1295.1L656.472 1276.78Z" stroke="#1BA2B4" stroke-miterlimit="10"/>
<path d="M656.148 1238.59L681.17 1218.29L709.316 1238.59V1273.29L681.86 1251.64L656.148 1275.51V1238.59Z" stroke="#1BA2B4" stroke-miterlimit="10"/>
<path d="M228.023 1285.14L254.729 1264L281.293 1285.14L254.201 1306.26L228.023 1285.14Z" stroke="#1BA2B4" stroke-miterlimit="10"/>
<path d="M228.023 1248.74L253.046 1228.44L281.09 1248L281.921 1284.44L254.485 1262.8L228.408 1283.1L228.023 1248.74Z" stroke="#1BA2B4" stroke-miterlimit="10"/>
<path d="M387.913 1280.78L414.599 1259.66L441.183 1280.78L414.071 1301.9L387.913 1280.78Z" stroke="#1BA2B4" stroke-miterlimit="10"/>
<path d="M387.913 1244.39L412.916 1224.08L440.96 1243.67L441.811 1280.09L414.355 1258.44L388.278 1278.77L387.913 1244.39Z" stroke="#1BA2B4" stroke-miterlimit="10"/>
<path d="M521.888 1298.43L546.891 1278.1L574.935 1297.69L575.787 1334.13L548.331 1312.48L522.253 1332.79L521.888 1298.43Z" stroke="#1BA2B4" stroke-miterlimit="10"/>
<path d="M629.523 1218.38L656.229 1197.24L682.813 1218.38L655.701 1239.5L629.523 1218.38Z" stroke="#1BA2B4" stroke-miterlimit="10"/>
<path d="M629.523 1181.99L654.546 1161.68L682.59 1181.24L683.421 1217.69L655.985 1196.04L629.908 1216.35L629.523 1181.99Z" stroke="#1BA2B4" stroke-miterlimit="10"/>
<path d="M601.357 1161.92L628.063 1140.78L654.627 1161.92L627.536 1183.04L601.357 1161.92Z" stroke="#1BA2B4" stroke-miterlimit="10"/>
<path d="M601.357 1125.52L626.38 1105.22L654.424 1124.78L655.255 1161.23L627.819 1139.58L601.742 1159.89L601.357 1125.52Z" stroke="#1BA2B4" stroke-miterlimit="10"/>
<path d="M468.01 1301.09L493.033 1280.78L521.077 1300.37L521.909 1336.79L494.473 1315.14L468.396 1335.47L468.01 1301.09Z" stroke="#1BA2B4" stroke-miterlimit="10"/>
<path d="M414.234 1303.43L439.236 1283.1L467.28 1302.69L468.132 1339.11L440.676 1317.49L414.599 1337.79L414.234 1303.43Z" stroke="#1BA2B4" stroke-miterlimit="10"/>
<path d="M360.964 1300.08L385.966 1279.77L414.011 1299.36L414.862 1335.78L387.406 1314.14L361.329 1334.46L360.964 1300.08Z" stroke="#1BA2B4" stroke-miterlimit="10"/>
<path d="M307.897 1302.43L332.92 1282.12L360.964 1301.68L361.795 1338.13L334.359 1316.48L308.282 1336.79L307.897 1302.43Z" stroke="#1BA2B4" stroke-miterlimit="10"/>
<path d="M254.972 1306.98L279.995 1286.67L308.039 1306.23L308.87 1342.68L281.434 1321.03L255.357 1341.34L254.972 1306.98Z" stroke="#1BA2B4" stroke-miterlimit="10"/>
<path d="M201.074 1306.98L226.096 1286.67L254.141 1306.23L254.972 1342.68L227.536 1321.03L201.459 1341.34L201.074 1306.98Z" stroke="#1BA2B4" stroke-miterlimit="10"/>
<path d="M148.757 1306.98L173.78 1286.67L201.824 1306.23L202.676 1342.68L175.219 1321.03L149.142 1341.34L148.757 1306.98Z" stroke="#1BA2B4" stroke-miterlimit="10"/>
<path d="M124.217 597.091L149.828 573.171L176.412 594.29L149.321 615.409L124.217 597.091Z" stroke="#1BA2B4" stroke-miterlimit="10"/>
<path d="M123.892 558.924L148.895 538.595L177.04 558.924V593.595L149.584 571.949L123.892 595.846V558.924Z" stroke="#1BA2B4" stroke-miterlimit="10"/>
<path d="M177.365 596.325L202.996 572.38L229.58 593.499L202.469 614.642L177.365 596.325Z" stroke="#1BA2B4" stroke-miterlimit="10"/>
<path d="M177.04 558.133L202.063 537.829L230.209 558.133V592.805L202.753 571.183L177.04 595.056V558.133Z" stroke="#1BA2B4" stroke-miterlimit="10"/>
<path d="M150.172 653.552L175.783 629.608L202.367 650.751L175.276 671.87L150.172 653.552Z" stroke="#1BA2B4" stroke-miterlimit="10"/>
<path d="M149.828 615.361L174.85 595.056L202.996 615.361V650.056L175.54 628.41L149.828 652.283V615.361Z" stroke="#1BA2B4" stroke-miterlimit="10"/>
<path d="M203.949 651.996L229.58 628.075L256.164 649.194L229.053 670.313L203.949 651.996Z" stroke="#1BA2B4" stroke-miterlimit="10"/>
<path d="M203.625 613.828L228.647 593.499L256.793 613.828V648.5L229.337 626.854L203.625 650.751V613.828Z" stroke="#1BA2B4" stroke-miterlimit="10"/>
<path d="M230.533 594.529L256.164 570.585L282.748 591.704L255.637 612.823L230.533 594.529Z" stroke="#1BA2B4" stroke-miterlimit="10"/>
<path d="M230.209 556.338L255.232 536.009L283.377 556.338V591.009L255.921 569.363L230.209 593.26V556.338Z" stroke="#1BA2B4" stroke-miterlimit="10"/>
<path d="M257.117 650.391L282.748 626.447L309.312 647.566L282.221 668.709L257.117 650.391Z" stroke="#1BA2B4" stroke-miterlimit="10"/>
<path d="M256.793 612.2L281.795 591.895L309.941 612.2V646.896L282.505 625.25L256.793 649.122V612.2Z" stroke="#1BA2B4" stroke-miterlimit="10"/>
<path d="M123.953 711.785L149.584 687.841L176.168 708.984L149.057 730.103L123.953 711.785Z" stroke="#1BA2B4" stroke-miterlimit="10"/>
<path d="M122.878 672.588L147.901 652.283L176.777 673.594V708.289L149.341 686.643L123.629 710.516L122.878 672.588Z" stroke="#1BA2B4" stroke-miterlimit="10"/>
<path d="M176.736 709.247L202.367 685.302L228.951 706.422L201.84 727.564L176.736 709.247Z" stroke="#1BA2B4" stroke-miterlimit="10"/>
<path d="M176.412 671.055L201.435 650.751L229.58 671.055V705.751L202.124 684.105L176.412 707.978V671.055Z" stroke="#1BA2B4" stroke-miterlimit="10"/>
<path d="M284.573 593.547L310.184 569.603L336.768 590.746L309.677 611.865L284.573 593.547Z" stroke="#1BA2B4" stroke-miterlimit="10"/>
<path d="M284.229 555.356L309.252 535.051L337.397 555.356V590.051L309.941 568.406L284.229 592.278V555.356Z" stroke="#1BA2B4" stroke-miterlimit="10"/>
<path d="M337.722 592.757L363.353 568.837L389.937 589.956L362.825 611.075L337.722 592.757Z" stroke="#1BA2B4" stroke-miterlimit="10"/>
<path d="M337.397 554.566L362.42 534.261L390.565 554.566V589.261L363.109 567.615L337.397 591.512V554.566Z" stroke="#1BA2B4" stroke-miterlimit="10"/>
<path d="M310.509 650.008L336.14 626.064L362.724 647.183L335.613 668.326L310.509 650.008Z" stroke="#1BA2B4" stroke-miterlimit="10"/>
<path d="M310.184 611.817L335.207 591.512L363.353 611.817V646.489L335.897 624.867L310.184 648.739V611.817Z" stroke="#1BA2B4" stroke-miterlimit="10"/>
<path d="M364.306 648.452L389.937 624.508L416.521 645.651L389.41 666.77L364.306 648.452Z" stroke="#1BA2B4" stroke-miterlimit="10"/>
<path d="M363.981 610.261L389.004 589.956L417.15 610.261L417.129 644.956L389.693 623.31L363.981 647.183V610.261Z" stroke="#1BA2B4" stroke-miterlimit="10"/>
<path d="M390.89 590.961L416.521 567.017L443.085 588.16L415.994 609.279L390.89 590.961Z" stroke="#1BA2B4" stroke-miterlimit="10"/>
<path d="M390.565 552.77L415.568 532.465L443.713 552.77V587.465L416.278 565.82L390.565 589.692V552.77Z" stroke="#1BA2B4" stroke-miterlimit="10"/>
<path d="M417.474 646.848L443.085 622.903L469.669 644.022L442.578 665.141L417.474 646.848Z" stroke="#1BA2B4" stroke-miterlimit="10"/>
<path d="M417.15 608.656L442.152 588.328L470.298 608.656V643.328L442.841 621.682L417.15 645.579V608.656Z" stroke="#1BA2B4" stroke-miterlimit="10"/>
<path d="M284.31 708.241L309.921 684.297L336.505 705.416L309.414 726.559L284.31 708.241Z" stroke="#1BA2B4" stroke-miterlimit="10"/>
<path d="M283.235 669.044L308.258 648.715L337.133 670.05V704.721L309.698 683.1L283.985 706.972L283.235 669.044Z" stroke="#1BA2B4" stroke-miterlimit="10"/>
<path d="M337.093 705.679L362.724 681.759L389.308 702.878L362.197 723.997L337.093 705.679Z" stroke="#1BA2B4" stroke-miterlimit="10"/>
<path d="M336.768 667.512L361.791 647.183L389.937 667.512V702.183L362.481 680.537L336.768 704.434V667.512Z" stroke="#1BA2B4" stroke-miterlimit="10"/>
<path d="M445.741 590.842L471.372 566.921L497.956 588.04L470.845 609.159L445.741 590.842Z" stroke="#1BA2B4" stroke-miterlimit="10"/>
<path d="M445.417 552.65L470.44 532.345L498.585 552.65V587.346L471.129 565.7L445.417 589.573V552.65Z" stroke="#1BA2B4" stroke-miterlimit="10"/>
<path d="M498.91 590.051L524.541 566.131L551.125 587.25L524.013 608.369L498.91 590.051Z" stroke="#1BA2B4" stroke-miterlimit="10"/>
<path d="M498.585 551.86L523.608 531.555L551.753 551.86L551.733 586.555L524.297 564.91L498.585 588.806V551.86Z" stroke="#1BA2B4" stroke-miterlimit="10"/>
<path d="M471.697 647.303L497.328 623.358L523.912 644.477L496.801 665.62L471.697 647.303Z" stroke="#1BA2B4" stroke-miterlimit="10"/>
<path d="M471.372 609.111L496.395 588.806L524.541 609.111V643.807L497.084 622.161L471.372 646.034V609.111Z" stroke="#1BA2B4" stroke-miterlimit="10"/>
<path d="M525.494 645.746L551.125 621.802L577.689 642.945L550.598 664.064L525.494 645.746Z" stroke="#1BA2B4" stroke-miterlimit="10"/>
<path d="M525.169 607.555L550.172 587.25L578.317 607.555V642.25L550.881 620.604L525.169 644.477V607.555Z" stroke="#1BA2B4" stroke-miterlimit="10"/>
<path d="M552.078 588.256L577.689 564.335L604.273 585.454L577.182 606.573L552.078 588.256Z" stroke="#1BA2B4" stroke-miterlimit="10"/>
<path d="M551.753 550.064L576.756 529.759L604.901 550.064V584.76L577.445 563.114L551.753 586.987V550.064Z" stroke="#1BA2B4" stroke-miterlimit="10"/>
<path d="M578.662 644.142L604.273 620.198L630.857 641.317L603.766 662.436L578.662 644.142Z" stroke="#1BA2B4" stroke-miterlimit="10"/>
<path d="M578.317 605.951L603.34 585.622L631.486 605.951V640.622L604.029 619L578.317 642.873V605.951Z" stroke="#1BA2B4" stroke-miterlimit="10"/>
<path d="M445.498 705.535L471.109 681.591L497.693 702.71L470.602 723.853L445.498 705.535Z" stroke="#1BA2B4" stroke-miterlimit="10"/>
<path d="M444.423 666.338L469.446 646.01L498.321 667.344V702.04L470.865 680.394L445.153 704.266L444.423 666.338Z" stroke="#1BA2B4" stroke-miterlimit="10"/>
<path d="M498.281 702.997L523.912 679.053L550.496 700.172L523.385 721.291L498.281 702.997Z" stroke="#1BA2B4" stroke-miterlimit="10"/>
<path d="M497.956 664.806L522.979 644.477L551.125 664.806L551.104 699.477L523.669 677.832L497.956 701.728V664.806Z" stroke="#1BA2B4" stroke-miterlimit="10"/>
<path d="M551.814 701.68L577.445 677.76L604.009 698.879L576.918 719.998L551.814 701.68Z" stroke="#1BA2B4" stroke-miterlimit="10"/>
<path d="M551.49 663.489L576.513 643.184L604.638 663.489V698.185L577.202 676.539L551.49 700.411V663.489Z" stroke="#1BA2B4" stroke-miterlimit="10"/>
<path d="M604.983 700.89L630.594 676.97L657.178 698.089L630.087 719.208L604.983 700.89Z" stroke="#1BA2B4" stroke-miterlimit="10"/>
<path d="M604.638 662.723L629.661 642.394L657.806 662.723V697.394L630.35 675.749L604.638 699.645V662.723Z" stroke="#1BA2B4" stroke-miterlimit="10"/>
<path d="M577.77 758.141L603.381 734.197L629.965 755.316L602.874 776.459L577.77 758.141Z" stroke="#1BA2B4" stroke-miterlimit="10"/>
<path d="M577.445 719.95L602.448 699.645L630.593 719.95V754.646L603.158 733L577.445 756.872V719.95Z" stroke="#1BA2B4" stroke-miterlimit="10"/>
<path d="M631.567 756.585L657.178 732.665L683.762 753.784L656.65 774.903L631.567 756.585Z" stroke="#1BA2B4" stroke-miterlimit="10"/>
<path d="M631.222 718.394L656.245 698.089L684.39 718.394V753.089L656.934 731.443L631.222 755.316V718.394Z" stroke="#1BA2B4" stroke-miterlimit="10"/>
<path d="M658.131 699.094L683.762 675.174L710.346 696.293L683.235 717.412L658.131 699.094Z" stroke="#1BA2B4" stroke-miterlimit="10"/>
<path d="M657.806 660.903L682.829 640.598L710.975 660.903V695.599L683.518 673.953L657.806 697.825V660.903Z" stroke="#1BA2B4" stroke-miterlimit="10"/>
<path d="M551.551 816.374L577.182 792.43L603.766 813.549L576.655 834.692L551.551 816.374Z" stroke="#1BA2B4" stroke-miterlimit="10"/>
<path d="M550.496 777.177L575.499 756.848L604.395 778.183V812.878L576.938 791.233L551.226 815.105L550.496 777.177Z" stroke="#1BA2B4" stroke-miterlimit="10"/>
<path d="M604.354 813.836L629.965 789.892L656.549 811.011L629.458 832.13L604.354 813.836Z" stroke="#1BA2B4" stroke-miterlimit="10"/>
<path d="M604.009 775.645L629.032 755.316L657.178 775.645V810.316L629.721 788.695L604.009 812.567V775.645Z" stroke="#1BA2B4" stroke-miterlimit="10"/>
<path d="M229.682 707.451L256.387 686.308L282.951 707.451L255.86 728.57L229.682 707.451Z" stroke="#1BA2B4" stroke-miterlimit="10"/>
<path d="M229.682 671.055L254.704 650.751L282.748 670.313L283.58 706.757L256.144 685.111L230.067 705.416L229.682 671.055Z" stroke="#1BA2B4" stroke-miterlimit="10"/>
<path d="M389.572 703.093L416.257 681.974L442.842 703.093L415.73 724.212L389.572 703.093Z" stroke="#1BA2B4" stroke-miterlimit="10"/>
<path d="M389.572 666.698L414.574 646.393L442.618 665.979L443.47 702.399L416.014 680.753L389.937 701.082L389.572 666.698Z" stroke="#1BA2B4" stroke-miterlimit="10"/>
<path d="M523.547 757.112L550.233 735.993L576.817 757.112L549.705 778.255L523.547 757.112Z" stroke="#1BA2B4" stroke-miterlimit="10"/>
<path d="M523.547 720.74L548.55 700.411L576.594 719.998L577.445 756.441L549.989 734.796L523.912 755.101L523.547 720.74Z" stroke="#1BA2B4" stroke-miterlimit="10"/>
<path d="M631.182 640.694L657.887 619.551L684.472 640.694L657.36 661.813L631.182 640.694Z" stroke="#1BA2B4" stroke-miterlimit="10"/>
<path d="M631.182 604.298L656.204 583.994L684.248 603.556L685.08 640L657.644 618.354L631.567 638.659L631.182 604.298Z" stroke="#1BA2B4" stroke-miterlimit="10"/>
<path d="M603.016 584.233L629.721 563.09L656.285 584.233L629.194 605.352L603.016 584.233Z" stroke="#1BA2B4" stroke-miterlimit="10"/>
<path d="M603.016 547.837L628.038 527.532L656.083 547.095L656.914 583.539L629.478 561.893L603.401 582.198L603.016 547.837Z" stroke="#1BA2B4" stroke-miterlimit="10"/>
<path d="M469.669 759.794L496.375 738.675L522.939 759.794L495.848 780.913L469.669 759.794Z" stroke="#1BA2B4" stroke-miterlimit="10"/>
<path d="M469.669 723.398L494.692 703.093L522.736 722.68L523.567 759.099L496.131 737.453L470.054 757.782L469.669 723.398Z" stroke="#1BA2B4" stroke-miterlimit="10"/>
<path d="M497.429 816.494L524.135 795.375L550.699 816.494L523.608 837.613L497.429 816.494Z" stroke="#1BA2B4" stroke-miterlimit="10"/>
<path d="M497.429 780.098L522.452 759.794L550.496 779.38L551.328 815.8L523.892 794.154L497.814 814.483L497.429 780.098Z" stroke="#1BA2B4" stroke-miterlimit="10"/>
<path d="M415.892 762.116L442.578 740.997L469.162 762.116L442.051 783.259L415.892 762.116Z" stroke="#1BA2B4" stroke-miterlimit="10"/>
<path d="M415.892 725.745L440.895 705.416L468.939 725.002L469.791 761.422L442.335 739.8L416.257 760.105L415.892 725.745Z" stroke="#1BA2B4" stroke-miterlimit="10"/>
<path d="M362.623 758.788L389.308 737.669L415.892 758.788L388.781 779.907L362.623 758.788Z" stroke="#1BA2B4" stroke-miterlimit="10"/>
<path d="M362.623 722.392L387.625 702.088L415.669 721.674L416.521 758.094L389.065 736.448L362.988 756.777L362.623 722.392Z" stroke="#1BA2B4" stroke-miterlimit="10"/>
<path d="M309.556 761.135L336.261 739.992L362.825 761.135L335.734 782.254L309.556 761.135Z" stroke="#1BA2B4" stroke-miterlimit="10"/>
<path d="M309.556 724.739L334.578 704.434L362.623 723.997L363.454 760.44L336.018 738.794L309.941 759.099L309.556 724.739Z" stroke="#1BA2B4" stroke-miterlimit="10"/>
<path d="M256.631 765.684L283.336 744.541L309.921 765.684L282.809 786.803L256.631 765.684Z" stroke="#1BA2B4" stroke-miterlimit="10"/>
<path d="M256.631 729.288L281.653 708.984L309.698 728.546L310.529 764.99L283.093 743.344L257.016 763.649L256.631 729.288Z" stroke="#1BA2B4" stroke-miterlimit="10"/>
<path d="M202.732 765.684L229.438 744.541L256.002 765.684L228.911 786.803L202.732 765.684Z" stroke="#1BA2B4" stroke-miterlimit="10"/>
<path d="M202.732 729.288L227.755 708.984L255.799 728.546L256.631 764.99L229.195 743.344L203.118 763.649L202.732 729.288Z" stroke="#1BA2B4" stroke-miterlimit="10"/>
<path d="M150.416 765.684L177.121 744.541L203.706 765.684L176.594 786.803L150.416 765.684Z" stroke="#1BA2B4" stroke-miterlimit="10"/>
<path d="M150.416 729.288L175.438 708.984L203.483 728.546L204.334 764.99L176.878 743.344L150.801 763.649L150.416 729.288Z" stroke="#1BA2B4" stroke-miterlimit="10"/>
<path d="M443.348 817.14L470.054 796.021L496.618 817.14L469.527 838.259L443.348 817.14Z" stroke="#1BA2B4" stroke-miterlimit="10"/>
<path d="M443.348 780.745L468.371 760.44L496.415 780.003L497.247 816.446L469.811 794.8L443.713 815.105L443.348 780.745Z" stroke="#1BA2B4" stroke-miterlimit="10"/>
<path d="M388.943 818.817L415.629 797.698L442.213 818.817L415.101 839.96L388.943 818.817Z" stroke="#1BA2B4" stroke-miterlimit="10"/>
<path d="M388.943 782.421L413.946 762.116L441.99 781.703L442.841 818.122L415.385 796.5L389.308 816.805L388.943 782.421Z" stroke="#1BA2B4" stroke-miterlimit="10"/>
<path d="M656.812 810.221L683.498 789.102L710.082 810.221L682.991 831.34L656.812 810.221Z" stroke="#1BA2B4" stroke-miterlimit="10"/>
<path d="M656.812 773.825L681.835 753.52L709.859 773.107L710.711 809.526L683.255 787.88L657.178 808.209L656.812 773.825Z" stroke="#1BA2B4" stroke-miterlimit="10"/>
<path d="M335.876 815.704L362.582 794.585L389.166 815.704L362.055 836.823L335.876 815.704Z" stroke="#1BA2B4" stroke-miterlimit="10"/>
<path d="M335.876 779.308L360.899 759.003L388.943 778.59L389.795 815.009L362.339 793.364L336.262 813.693L335.876 779.308Z" stroke="#1BA2B4" stroke-miterlimit="10"/>
<path d="M283.864 819.032L310.569 797.913L337.133 819.032L310.042 840.151L283.864 819.032Z" stroke="#1BA2B4" stroke-miterlimit="10"/>
<path d="M283.864 782.637L308.886 762.332L336.91 781.918L337.762 818.338L310.326 796.716L284.229 817.021L283.864 782.637Z" stroke="#1BA2B4" stroke-miterlimit="10"/>
<path d="M229.053 821.379L255.759 800.26L282.343 821.379L255.231 842.498L229.053 821.379Z" stroke="#1BA2B4" stroke-miterlimit="10"/>
<path d="M229.053 784.983L254.076 764.678L282.12 784.265L282.951 820.684L255.515 799.038L229.438 819.367L229.053 784.983Z" stroke="#1BA2B4" stroke-miterlimit="10"/>
<path d="M175.418 823.653L202.104 802.534L228.688 823.653L201.597 844.796L175.418 823.653Z" stroke="#1BA2B4" stroke-miterlimit="10"/>
<path d="M175.418 787.282L200.441 766.953L228.465 786.54L229.316 822.959L201.86 801.337L175.783 821.642L175.418 787.282Z" stroke="#1BA2B4" stroke-miterlimit="10"/>
<path d="M123.365 823.653L150.051 802.534L176.635 823.653L149.544 844.796L123.365 823.653Z" stroke="#1BA2B4" stroke-miterlimit="10"/>
<path d="M123.365 787.282L148.388 766.953L176.412 786.54L177.263 822.959L149.807 801.337L123.73 821.642L123.365 787.282Z" stroke="#1BA2B4" stroke-miterlimit="10"/>
<path d="M96.8124 888.28L122.423 864.359L149.007 885.478L121.916 906.597L96.8124 888.28Z" stroke="#1BA2B4" stroke-miterlimit="10"/>
<path d="M96.4879 850.112L121.49 829.784L149.636 850.112V884.784L122.18 863.138L96.4879 887.035V850.112Z" stroke="#1BA2B4" stroke-miterlimit="10"/>
<path d="M149.96 887.514L175.592 863.569L202.176 884.688L175.064 905.831L149.96 887.514Z" stroke="#1BA2B4" stroke-miterlimit="10"/>
<path d="M149.636 849.322L174.659 829.017L202.804 849.322V883.994L175.348 862.372L149.636 886.245V849.322Z" stroke="#1BA2B4" stroke-miterlimit="10"/>
<path d="M122.768 944.741L148.379 920.796L174.963 941.939L147.872 963.058L122.768 944.741Z" stroke="#1BA2B4" stroke-miterlimit="10"/>
<path d="M122.423 906.549L147.446 886.245L175.592 906.549V941.245L148.135 919.599L122.423 943.472V906.549Z" stroke="#1BA2B4" stroke-miterlimit="10"/>
<path d="M176.545 943.184L202.176 919.264L228.76 940.383L201.648 961.502L176.545 943.184Z" stroke="#1BA2B4" stroke-miterlimit="10"/>
<path d="M176.22 905.017L201.243 884.688L229.388 905.017V939.689L201.932 918.043L176.22 941.939V905.017Z" stroke="#1BA2B4" stroke-miterlimit="10"/>
<path d="M203.129 885.718L228.76 861.773L255.344 882.892L228.233 904.011L203.129 885.718Z" stroke="#1BA2B4" stroke-miterlimit="10"/>
<path d="M202.804 847.526L227.827 827.198L255.973 847.526V882.198L228.517 860.552L202.804 884.449V847.526Z" stroke="#1BA2B4" stroke-miterlimit="10"/>
<path d="M229.713 941.58L255.344 917.636L281.908 938.755L254.817 959.898L229.713 941.58Z" stroke="#1BA2B4" stroke-miterlimit="10"/>
<path d="M229.388 903.389L254.391 883.084L282.536 903.389V938.084L255.101 916.438L229.388 940.311V903.389Z" stroke="#1BA2B4" stroke-miterlimit="10"/>
<path d="M96.5487 1002.97L122.18 979.029L148.764 1000.17L121.653 1021.29L96.5487 1002.97Z" stroke="#1BA2B4" stroke-miterlimit="10"/>
<path d="M95.474 963.777L120.497 943.472L149.372 964.782V999.478L121.936 977.832L96.2243 1001.7L95.474 963.777Z" stroke="#1BA2B4" stroke-miterlimit="10"/>
<path d="M149.332 1000.44L174.963 976.491L201.547 997.61L174.436 1018.75L149.332 1000.44Z" stroke="#1BA2B4" stroke-miterlimit="10"/>
<path d="M149.007 962.244L174.03 941.939L202.176 962.244V996.94L174.72 975.294L149.007 999.167V962.244Z" stroke="#1BA2B4" stroke-miterlimit="10"/>
<path d="M257.169 884.736L282.78 860.792L309.364 881.935L282.273 903.054L257.169 884.736Z" stroke="#1BA2B4" stroke-miterlimit="10"/>
<path d="M256.824 846.545L281.847 826.24L309.993 846.545V881.24L282.537 859.594L256.824 883.467V846.545Z" stroke="#1BA2B4" stroke-miterlimit="10"/>
<path d="M310.317 883.946L335.948 860.025L362.532 881.144L335.421 902.263L310.317 883.946Z" stroke="#1BA2B4" stroke-miterlimit="10"/>
<path d="M309.993 845.754L335.015 825.45L363.161 845.754V880.45L335.705 858.804L309.993 882.701V845.754Z" stroke="#1BA2B4" stroke-miterlimit="10"/>
<path d="M283.104 941.197L308.735 917.253L335.32 938.372L308.208 959.515L283.104 941.197Z" stroke="#1BA2B4" stroke-miterlimit="10"/>
<path d="M282.78 903.006L307.803 882.701L335.948 903.006V937.677L308.492 916.055L282.78 939.928V903.006Z" stroke="#1BA2B4" stroke-miterlimit="10"/>
<path d="M336.901 939.641L362.532 915.696L389.117 936.839L362.005 957.958L336.901 939.641Z" stroke="#1BA2B4" stroke-miterlimit="10"/>
<path d="M336.577 901.449L361.6 881.144L389.745 901.449L389.725 936.145L362.289 914.499L336.577 938.372V901.449Z" stroke="#1BA2B4" stroke-miterlimit="10"/>
<path d="M363.485 882.15L389.117 858.206L415.68 879.349L388.589 900.468L363.485 882.15Z" stroke="#1BA2B4" stroke-miterlimit="10"/>
<path d="M363.161 843.959L388.164 823.654L416.309 843.959V878.654L388.873 857.008L363.161 880.881V843.959Z" stroke="#1BA2B4" stroke-miterlimit="10"/>
<path d="M390.07 938.036L415.68 914.092L442.265 935.211L415.173 956.33L390.07 938.036Z" stroke="#1BA2B4" stroke-miterlimit="10"/>
<path d="M389.745 899.845L414.748 879.516L442.893 899.845V934.517L415.437 912.871L389.745 936.767V899.845Z" stroke="#1BA2B4" stroke-miterlimit="10"/>
<path d="M256.905 999.43L282.516 975.485L309.1 996.604L282.009 1017.75L256.905 999.43Z" stroke="#1BA2B4" stroke-miterlimit="10"/>
<path d="M255.831 960.233L280.853 939.904L309.729 961.239V995.91L282.293 974.288L256.581 998.161L255.831 960.233Z" stroke="#1BA2B4" stroke-miterlimit="10"/>
<path d="M309.688 996.868L335.32 972.947L361.904 994.066L334.792 1015.19L309.688 996.868Z" stroke="#1BA2B4" stroke-miterlimit="10"/>
<path d="M309.364 958.7L334.387 938.372L362.532 958.7V993.372L335.076 971.726L309.364 995.623V958.7Z" stroke="#1BA2B4" stroke-miterlimit="10"/>
<path d="M418.337 882.03L443.968 858.11L470.552 879.229L443.441 900.348L418.337 882.03Z" stroke="#1BA2B4" stroke-miterlimit="10"/>
<path d="M418.012 843.839L443.035 823.534L471.181 843.839V878.534L443.725 856.889L418.012 880.761V843.839Z" stroke="#1BA2B4" stroke-miterlimit="10"/>
<path d="M471.505 881.24L497.136 857.32L523.721 878.439L496.609 899.558L471.505 881.24Z" stroke="#1BA2B4" stroke-miterlimit="10"/>
<path d="M471.181 843.049L496.204 822.744L524.349 843.049L524.329 877.744L496.893 856.098L471.181 879.995V843.049Z" stroke="#1BA2B4" stroke-miterlimit="10"/>
<path d="M444.292 938.491L469.924 914.547L496.508 935.666L469.396 956.809L444.292 938.491Z" stroke="#1BA2B4" stroke-miterlimit="10"/>
<path d="M443.968 900.3L468.991 879.995L497.136 900.3V934.995L469.68 913.35L443.968 937.222V900.3Z" stroke="#1BA2B4" stroke-miterlimit="10"/>
<path d="M498.089 936.935L523.72 912.99L550.284 934.133L523.193 955.252L498.089 936.935Z" stroke="#1BA2B4" stroke-miterlimit="10"/>
<path d="M497.765 898.743L522.767 878.439L550.913 898.743V933.439L523.477 911.793L497.765 935.666V898.743Z" stroke="#1BA2B4" stroke-miterlimit="10"/>
<path d="M524.674 879.444L550.284 855.524L576.869 876.643L549.777 897.762L524.674 879.444Z" stroke="#1BA2B4" stroke-miterlimit="10"/>
<path d="M524.349 841.253L549.352 820.948L577.497 841.253V875.948L550.041 854.303L524.349 878.175V841.253Z" stroke="#1BA2B4" stroke-miterlimit="10"/>
<path d="M551.258 935.331L576.868 911.386L603.453 932.505L576.362 953.624L551.258 935.331Z" stroke="#1BA2B4" stroke-miterlimit="10"/>
<path d="M550.913 897.139L575.936 876.81L604.081 897.139V931.811L576.625 910.189L550.913 934.062V897.139Z" stroke="#1BA2B4" stroke-miterlimit="10"/>
<path d="M418.094 996.724L443.704 972.78L470.289 993.899L443.197 1015.04L418.094 996.724Z" stroke="#1BA2B4" stroke-miterlimit="10"/>
<path d="M417.019 957.527L442.042 937.198L470.917 958.533V993.228L443.461 971.582L417.749 995.455L417.019 957.527Z" stroke="#1BA2B4" stroke-miterlimit="10"/>
<path d="M470.877 994.186L496.508 970.242L523.092 991.361L495.98 1012.48L470.877 994.186Z" stroke="#1BA2B4" stroke-miterlimit="10"/>
<path d="M470.552 955.995L495.575 935.666L523.72 955.995L523.7 990.666L496.264 969.02L470.552 992.917V955.995Z" stroke="#1BA2B4" stroke-miterlimit="10"/>
<path d="M524.41 992.869L550.041 968.949L576.605 990.068L549.514 1011.19L524.41 992.869Z" stroke="#1BA2B4" stroke-miterlimit="10"/>
<path d="M524.085 954.678L549.108 934.373L577.233 954.678V989.373L549.798 967.728L524.085 991.6V954.678Z" stroke="#1BA2B4" stroke-miterlimit="10"/>
<path d="M577.578 992.079L603.189 968.158L629.773 989.277L602.682 1010.4L577.578 992.079Z" stroke="#1BA2B4" stroke-miterlimit="10"/>
<path d="M577.234 953.911L602.256 933.583L630.402 953.911V988.583L602.946 966.937L577.234 990.834V953.911Z" stroke="#1BA2B4" stroke-miterlimit="10"/>
<path d="M550.365 1049.33L575.976 1025.39L602.56 1046.5L575.469 1067.65L550.365 1049.33Z" stroke="#1BA2B4" stroke-miterlimit="10"/>
<path d="M550.041 1011.14L575.043 990.834L603.189 1011.14V1045.83L575.753 1024.19L550.041 1048.06V1011.14Z" stroke="#1BA2B4" stroke-miterlimit="10"/>
<path d="M604.162 1047.77L629.773 1023.85L656.357 1044.97L629.246 1066.09L604.162 1047.77Z" stroke="#1BA2B4" stroke-miterlimit="10"/>
<path d="M603.818 1009.58L628.84 989.277L656.986 1009.58V1044.28L629.53 1022.63L603.818 1046.5V1009.58Z" stroke="#1BA2B4" stroke-miterlimit="10"/>
<path d="M630.726 990.283L656.357 966.363L682.942 987.482L655.83 1008.6L630.726 990.283Z" stroke="#1BA2B4" stroke-miterlimit="10"/>
<path d="M630.402 952.092L655.425 931.787L683.57 952.092V986.787L656.114 965.141L630.402 989.014V952.092Z" stroke="#1BA2B4" stroke-miterlimit="10"/>
<path d="M657.31 1046.17L682.942 1022.23L709.526 1043.34L682.414 1064.46L657.31 1046.17Z" stroke="#1BA2B4" stroke-miterlimit="10"/>
<path d="M656.986 1007.98L682.009 987.673L710.154 1007.98V1042.65L682.698 1021.03L656.986 1044.9V1007.98Z" stroke="#1BA2B4" stroke-miterlimit="10"/>
<path d="M524.146 1107.56L549.777 1083.62L576.362 1104.74L549.25 1125.88L524.146 1107.56Z" stroke="#1BA2B4" stroke-miterlimit="10"/>
<path d="M523.092 1068.37L548.094 1048.04L576.99 1069.37V1104.07L549.534 1082.42L523.822 1106.29L523.092 1068.37Z" stroke="#1BA2B4" stroke-miterlimit="10"/>
<path d="M576.95 1105.03L602.56 1081.08L629.145 1102.2L602.053 1123.32L576.95 1105.03Z" stroke="#1BA2B4" stroke-miterlimit="10"/>
<path d="M576.605 1066.83L601.628 1046.5L629.773 1066.83V1101.51L602.317 1079.88L576.605 1103.76V1066.83Z" stroke="#1BA2B4" stroke-miterlimit="10"/>
<path d="M202.277 998.64L228.983 977.497L255.547 998.64L228.456 1019.76L202.277 998.64Z" stroke="#1BA2B4" stroke-miterlimit="10"/>
<path d="M202.277 962.244L227.3 941.939L255.344 961.502L256.175 997.945L228.74 976.3L202.662 996.605L202.277 962.244Z" stroke="#1BA2B4" stroke-miterlimit="10"/>
<path d="M362.167 994.282L388.853 973.163L415.437 994.282L388.326 1015.4L362.167 994.282Z" stroke="#1BA2B4" stroke-miterlimit="10"/>
<path d="M362.167 957.886L387.17 937.581L415.214 957.168L416.066 993.587L388.609 971.942L362.532 992.271L362.167 957.886Z" stroke="#1BA2B4" stroke-miterlimit="10"/>
<path d="M496.143 1048.3L522.828 1027.18L549.412 1048.3L522.301 1069.44L496.143 1048.3Z" stroke="#1BA2B4" stroke-miterlimit="10"/>
<path d="M496.143 1011.93L521.145 991.6L549.189 1011.19L550.041 1047.63L522.585 1025.98L496.508 1046.29L496.143 1011.93Z" stroke="#1BA2B4" stroke-miterlimit="10"/>
<path d="M603.777 931.883L630.483 910.74L657.067 931.883L629.956 953.002L603.777 931.883Z" stroke="#1BA2B4" stroke-miterlimit="10"/>
<path d="M603.777 895.487L628.8 875.182L656.844 894.745L657.675 931.188L630.24 909.543L604.162 929.847L603.777 895.487Z" stroke="#1BA2B4" stroke-miterlimit="10"/>
<path d="M575.611 875.422L602.317 854.279L628.881 875.422L601.79 896.541L575.611 875.422Z" stroke="#1BA2B4" stroke-miterlimit="10"/>
<path d="M575.611 839.026L600.634 818.721L628.678 838.284L629.51 874.727L602.074 853.081L575.996 873.386L575.611 839.026Z" stroke="#1BA2B4" stroke-miterlimit="10"/>
<path d="M442.265 1050.98L468.97 1029.86L495.534 1050.98L468.443 1072.1L442.265 1050.98Z" stroke="#1BA2B4" stroke-miterlimit="10"/>
<path d="M442.265 1014.59L467.287 994.282L495.331 1013.87L496.163 1050.29L468.727 1028.64L442.65 1048.97L442.265 1014.59Z" stroke="#1BA2B4" stroke-miterlimit="10"/>
<path d="M470.025 1107.68L496.731 1086.56L523.295 1107.68L496.204 1128.8L470.025 1107.68Z" stroke="#1BA2B4" stroke-miterlimit="10"/>
<path d="M470.025 1071.29L495.048 1050.98L523.092 1070.57L523.923 1106.99L496.487 1085.34L470.41 1105.67L470.025 1071.29Z" stroke="#1BA2B4" stroke-miterlimit="10"/>
<path d="M388.488 1053.3L415.173 1032.19L441.758 1053.3L414.646 1074.45L388.488 1053.3Z" stroke="#1BA2B4" stroke-miterlimit="10"/>
<path d="M388.488 1016.93L413.49 996.604L441.535 1016.19L442.386 1052.61L414.93 1030.99L388.853 1051.29L388.488 1016.93Z" stroke="#1BA2B4" stroke-miterlimit="10"/>
<path d="M335.218 1049.98L361.904 1028.86L388.488 1049.98L361.376 1071.1L335.218 1049.98Z" stroke="#1BA2B4" stroke-miterlimit="10"/>
<path d="M335.218 1013.58L360.221 993.276L388.265 1012.86L389.116 1049.28L361.66 1027.64L335.583 1047.97L335.218 1013.58Z" stroke="#1BA2B4" stroke-miterlimit="10"/>
<path d="M282.151 1052.32L308.857 1031.18L335.421 1052.32L308.33 1073.44L282.151 1052.32Z" stroke="#1BA2B4" stroke-miterlimit="10"/>
<path d="M282.151 1015.93L307.174 995.623L335.218 1015.19L336.05 1051.63L308.614 1029.98L282.536 1050.29L282.151 1015.93Z" stroke="#1BA2B4" stroke-miterlimit="10"/>
<path d="M229.226 1056.87L255.932 1035.73L282.516 1056.87L255.405 1077.99L229.226 1056.87Z" stroke="#1BA2B4" stroke-miterlimit="10"/>
<path d="M229.226 1020.48L254.249 1000.17L282.293 1019.73L283.125 1056.18L255.689 1034.53L229.611 1054.84L229.226 1020.48Z" stroke="#1BA2B4" stroke-miterlimit="10"/>
<path d="M175.328 1056.87L202.034 1035.73L228.598 1056.87L201.506 1077.99L175.328 1056.87Z" stroke="#1BA2B4" stroke-miterlimit="10"/>
<path d="M175.328 1020.48L200.351 1000.17L228.395 1019.73L229.226 1056.18L201.79 1034.53L175.713 1054.84L175.328 1020.48Z" stroke="#1BA2B4" stroke-miterlimit="10"/>
<path d="M123.011 1056.87L149.717 1035.73L176.301 1056.87L149.19 1077.99L123.011 1056.87Z" stroke="#1BA2B4" stroke-miterlimit="10"/>
<path d="M123.011 1020.48L148.034 1000.17L176.078 1019.73L176.93 1056.18L149.474 1034.53L123.397 1054.84L123.011 1020.48Z" stroke="#1BA2B4" stroke-miterlimit="10"/>
<path d="M415.944 1108.33L442.65 1087.21L469.214 1108.33L442.123 1129.45L415.944 1108.33Z" stroke="#1BA2B4" stroke-miterlimit="10"/>
<path d="M415.944 1071.93L440.967 1051.63L469.011 1071.19L469.842 1107.63L442.407 1085.99L416.309 1106.29L415.944 1071.93Z" stroke="#1BA2B4" stroke-miterlimit="10"/>
<path d="M361.539 1110.01L388.224 1088.89L414.808 1110.01L387.697 1131.15L361.539 1110.01Z" stroke="#1BA2B4" stroke-miterlimit="10"/>
<path d="M361.539 1073.61L386.541 1053.3L414.585 1072.89L415.437 1109.31L387.981 1087.69L361.904 1107.99L361.539 1073.61Z" stroke="#1BA2B4" stroke-miterlimit="10"/>
<path d="M629.408 1101.41L656.094 1080.29L682.678 1101.41L655.587 1122.53L629.408 1101.41Z" stroke="#1BA2B4" stroke-miterlimit="10"/>
<path d="M629.408 1065.01L654.431 1044.71L682.455 1064.3L683.307 1100.71L655.85 1079.07L629.773 1099.4L629.408 1065.01Z" stroke="#1BA2B4" stroke-miterlimit="10"/>
<path d="M308.472 1106.89L335.178 1085.77L361.762 1106.89L334.65 1128.01L308.472 1106.89Z" stroke="#1BA2B4" stroke-miterlimit="10"/>
<path d="M308.472 1070.5L333.495 1050.19L361.539 1069.78L362.39 1106.2L334.934 1084.55L308.857 1104.88L308.472 1070.5Z" stroke="#1BA2B4" stroke-miterlimit="10"/>
<path d="M256.459 1110.22L283.165 1089.1L309.729 1110.22L282.638 1131.34L256.459 1110.22Z" stroke="#1BA2B4" stroke-miterlimit="10"/>
<path d="M256.459 1073.83L281.482 1053.52L309.506 1073.11L310.358 1109.53L282.922 1087.9L256.824 1108.21L256.459 1073.83Z" stroke="#1BA2B4" stroke-miterlimit="10"/>
<path d="M201.648 1112.57L228.354 1091.45L254.938 1112.57L227.827 1133.69L201.648 1112.57Z" stroke="#1BA2B4" stroke-miterlimit="10"/>
<path d="M201.648 1076.17L226.671 1055.87L254.715 1075.45L255.547 1111.87L228.111 1090.23L202.034 1110.56L201.648 1076.17Z" stroke="#1BA2B4" stroke-miterlimit="10"/>
<path d="M148.014 1114.84L174.699 1093.72L201.283 1114.84L174.192 1135.99L148.014 1114.84Z" stroke="#1BA2B4" stroke-miterlimit="10"/>
<path d="M148.014 1078.47L173.036 1058.14L201.06 1077.73L201.912 1114.15L174.456 1092.53L148.379 1112.83L148.014 1078.47Z" stroke="#1BA2B4" stroke-miterlimit="10"/>
<path d="M95.9607 1114.84L122.646 1093.72L149.23 1114.84L122.139 1135.99L95.9607 1114.84Z" stroke="#1BA2B4" stroke-miterlimit="10"/>
<path d="M95.9607 1078.47L120.983 1058.14L149.007 1077.73L149.859 1114.15L122.403 1092.53L96.3257 1112.83L95.9607 1078.47Z" stroke="#1BA2B4" stroke-miterlimit="10"/>
</g>
<defs>
<clipPath id="clip0_2_656">
<rect width="1460" height="1293" fill="white"/>
</clipPath>
</defs>
</svg>
